<?xml version="1.0" encoding="UTF-8"?>
<svg id="Layer_1" data-name="Layer 1" xmlns="http://www.w3.org/2000/svg" viewBox="0 0 200 210.84">
  <defs>
    <style>
      .cls-1 {
        fill: #6ecbd3;
      }
    </style>
  </defs>
  <path class="cls-1" d="M96,144.1c-2.97-4.03-5.92-14.12,2.35-13.69,4.21.65,7.64,3.18,9.83,6.98,4.27,8.08-.86,19.44-10.27,20.56-8.82.69-16.51-7.04-17.93-15.26-1.42-9.65,4.47-19.16,13.5-21.8,6.93-1.99,14.39-.58,20.46,3.11,3.64,2.34,6.37,5.9,8.14,9.83,3.33,8.06,3.46,17.16.22,25.43-7.35,19.15-30.6,20.22-46.76,12.26-22.02-9.89-31.38-35.85-22.63-57.68,0,0,.87.21.87.21-.45,5.3-.31,10.51.5,15.53,1.97,12.11,8.42,23.38,18.93,29.85,9.61,5.77,22.53,10.13,33.27,5.82,5.19-2.17,8.71-7.04,10.74-12.21,3.28-8.17,3.48-19.15-3.42-25.53-6.59-5.89-18.91-6.54-24.28,1.19-2.56,3.73-3.33,8.66-2.19,12.48,2.05,6.76,11.3,13.77,15.16,4.29,1.54-3.91-.14-7.85-3.64-10.06-.85-.59-1.54-.61-1.97-.83-.02-.02-.05-.01-.08.01-.45.35-.57,1.02-.71,1.7-.33,2.26.08,4.92.72,7.46l-.82.37h0Z"/>
  <path class="cls-1" d="M64.93,73.82c3.34-1.53,8.38-.89,10.01,2.99,2.01,5.94-4.05,12.12-9.84,12.18-11.37.23-18.81-11.58-12.61-21.43,5.36-9.29,16.56-11.02,25.05-4.92,4.81,3.29,8.38,8.83,8.58,14.67.34,10.9-6.74,22.04-17.22,25.49-12.44,3.6-26.69-2.88-33.14-13.94-5.35-9.17-3.96-20.82.86-29.87,7.24-13.88,21.85-23.67,37.74-22.96,9.33.21,18.8,3.77,25.87,9.71,0,0-.47.77-.47.77-11.21-4.69-23.97-5.99-35.19-1.29-12.48,4.9-25.3,21.53-22.99,35.36,1.82,8.97,10.64,16.23,19.55,18.31,9.88,2.41,18.75-4.73,21.09-14.18,2.6-9.68-4.44-17.48-13.88-18.03-6.76-.54-14.16,8.54-8.09,13.91,1.92,1.76,4.79,2.9,7.27,2.08,3.55-1.5,6.17-5.74,1.11-7.53-1.06-.37-2.26-.52-3.5-.45l-.22-.87h0Z"/>
  <path class="cls-1" d="M135.8,89.44c-3.05,12.13-14.72,3.09-13.34-5.69,1.14-6.73,9.06-9.9,15.17-8.68,5.42,1.04,9.57,5.69,11.38,10.58,2.56,6.2.8,13.64-4.05,18.05-6.43,6.06-16.52,8.03-24.43,4.06-7.3-3.78-12.51-10.76-14.42-18.72-2.43-9.52,2.63-17.85,9.73-23.81,10.05-8.61,26.13-14.22,38.3-6.24,14.14,8.88,15.59,32.65,11.08,46.97-3.31,10.38-9.51,19.41-17.43,26.08l-.67-.6c5.36-8.43,9.54-17.36,11.2-27.17,1.57-9.12.43-19.22-2.49-27.64-5.44-15.04-18.69-15.07-31.44-8.79-6.03,3.06-12.69,7.04-14.86,13.78-2.68,9.07,3.63,19.73,12.43,22.74,7.93,2.66,18.05-2.9,20-10.7.77-4.05-1.5-9.57-5.42-11.3-2.2-.97-5.65-.45-7.41.9-2.22,1.59-1.72,4.85-.51,7.02.73,1.15,1.46,2.22,2.73,2.12,1.56-.42,2.66-1.94,3.65-3.31,0,0,.83.36.83.36h0Z"/>
</svg>