<?xml version="1.0" encoding="UTF-8"?>
<svg id="Layer_1" data-name="Layer 1" xmlns="http://www.w3.org/2000/svg" viewBox="0 0 200 210.84">
  <defs>
    <style>
      .cls-1 {
        fill: #2b6c36;
      }
    </style>
  </defs>
  <path class="cls-1" d="M153.07,139.57l-45.64-.11,1.04-1.05,1.29,33.93s-1.38-1.36-1.38-1.36c0,0,59.86.26,59.86.26l-2.04,1.61c2.72-12.94,2.05-26.64-2.32-39.1,0,0-2.76-7.69-2.76-7.69-3.55-9.84-23.6-65.8-27.6-76.89-.92-6.23-5.39-10.48-11.68-11.11-2.27-.15-9.86.06-12.38.04,0,0-33.89.33-33.89.33l.63-.05c-3.3.58-6.1,3.02-7.1,6.2,0,0-.3.89-.3.89,0,0-4.85,14.28-4.85,14.28-8.97,26.59-20.19,59.27-29.69,85.51,0,0,.26-1.52.26-1.52-.02,7.07-.21,21.36-.3,28.43,0,0-4.28-4.28-4.28-4.28,13.85.14,32.76.5,46.6.77,0,0,15.53.36,15.53.36l-3.15,3.07c.42-8.42,1.35-25.28,1.86-33.68,0,0,2.2,2.28,2.2,2.28-13.01-.57-31.42-1.21-44.25-1.99,0,0,0-.9,0-.9,12.76-.57,31.3-1.19,44.26-1.54,0,0,2.2-.07,2.2-.07v2.34c.06,8.39.07,25.34.03,33.73,0,0,0,3,0,3-1.9.04-16.42.38-18.68.43-15.51.29-35.34.66-50.83.82-.16-9.06-.28-23.68-.36-32.77,0,0,0-.74,0-.74,0,0,.27-.78.27-.78,5.51-16.5,14.18-40.18,20.1-56.81,0,0,10.34-28.31,10.34-28.31l5.17-14.15c.96-3.03,2.61-5.86,5.01-7.99,2.6-2.31,5.89-3.88,9.33-4.2,6.29.04,36.86.37,42.47.4,3.1-.05,6.49.15,9.45,1.33,6.45,2.21,11.45,8.4,12.27,15.17,0,0-.14-.59-.14-.59,3.92,11.5,22.81,67.22,26.3,77.45,0,0,2.63,7.74,2.63,7.74,4.42,13.31,4.89,27.92,1.68,41.52,0,0-.39,1.65-.39,1.65,0,0-1.65-.04-1.65-.04,0,0-59.84-1.58-59.84-1.58,0,0-1.36-.04-1.36-.04l-.02-1.33-.54-33.95-.02-1.08s1.06.03,1.06.03l45.62,1.26s-.01.9-.01.9h0Z"/>
  <polygon class="cls-1" points="90.29 158.98 43.01 154.94 90.2 149.98 90.29 158.98 90.29 158.98"/>
  <polygon class="cls-1" points="108.44 149.3 156.51 154.66 108.28 158.29 108.44 149.3 108.44 149.3"/>
  <path class="cls-1" d="M99.1,91.36c7.72,7.93,14.98-2.92,8.49-9.81-1.64-1.75-3.9-2.85-5.94-2.67-4.42.23-8.39,4.61-9.69,8.69-1.05,3.22-.34,6.61,1.43,9.44,5.97,9.79,18.73,10.04,26.36,2.15,2.99-3.18,4.47-7.66,4.37-12.39.12-15.2-14.56-26.05-29.11-22.12-5.49,1.48-10.66,5.38-14.26,10.06-3.64,5.2-6.01,11.59-5.94,17.97-.01,7.64,3.79,15.04,9.62,19.95,8.18,7.14,20.51,8.13,30.4,3.51-15.87,10.93-37.26,3.61-44.39-14.08-4.31-10.16-2.11-22.1,3.6-31.27,4.4-6.61,10.69-11.84,18.56-14.33,15.76-5.03,34.57,4.45,38.98,20.71,1.86,6.28,2.02,13.05-.27,19.32-5.88,16.71-29.68,22.21-41.07,7.95-4.36-5.08-6.56-12.59-3.76-18.94,3.89-9.47,16.5-15.87,23.8-6.15,1.95,2.55,2.98,5.95,2.24,9.12-.62,3-2.69,6.23-5.95,6.69-3.04.47-5.99-1.27-7.46-3.79h0Z"/>
</svg>