<?xml version="1.0" encoding="UTF-8"?>
<svg id="Layer_1" data-name="Layer 1" xmlns="http://www.w3.org/2000/svg" xmlns:xlink="http://www.w3.org/1999/xlink" viewBox="0 0 500 350">
  <defs>
    <style>
      .cls-1 {
        filter: url(#outer-glow-65);
      }

      .cls-2 {
        filter: url(#outer-glow-48);
      }

      .cls-3 {
        filter: url(#outer-glow-53);
      }

      .cls-4 {
        filter: url(#outer-glow-68);
      }

      .cls-5 {
        filter: url(#outer-glow-47);
      }

      .cls-6 {
        filter: url(#outer-glow-49);
      }

      .cls-7 {
        filter: url(#outer-glow-67);
      }

      .cls-8 {
        filter: url(#outer-glow-60);
      }

      .cls-9 {
        filter: url(#outer-glow-56);
      }

      .cls-10 {
        filter: url(#outer-glow-55);
      }

      .cls-11 {
        fill: #84321a;
      }

      .cls-12 {
        filter: url(#outer-glow-54);
      }

      .cls-13 {
        fill: #b34626;
      }

      .cls-14 {
        filter: url(#outer-glow-51);
      }

      .cls-15 {
        filter: url(#outer-glow-52);
      }

      .cls-16 {
        filter: url(#outer-glow-57);
      }

      .cls-17 {
        filter: url(#outer-glow-50);
      }

      .cls-18 {
        filter: url(#outer-glow-62);
      }

      .cls-19 {
        filter: url(#outer-glow-61);
      }

      .cls-20 {
        filter: url(#outer-glow-64);
      }

      .cls-21 {
        filter: url(#outer-glow-58);
      }

      .cls-22 {
        filter: url(#outer-glow-63);
      }

      .cls-23 {
        filter: url(#outer-glow-66);
      }

      .cls-24 {
        filter: url(#outer-glow-59);
      }

      .cls-25 {
        filter: url(#outer-glow-46);
      }

      .cls-26 {
        filter: url(#outer-glow-69);
      }
    </style>
    <filter id="outer-glow-46" x="182.52" y="-9.62" width="87.12" height="99.84" filterUnits="userSpaceOnUse">
      <feOffset dx="0" dy="0"/>
      <feGaussianBlur result="blur" stdDeviation="5"/>
      <feFlood flood-color="#231f20" flood-opacity=".75"/>
      <feComposite in2="blur" operator="in"/>
      <feComposite in="SourceGraphic"/>
    </filter>
    <filter id="outer-glow-47" x="271.56" y="-9.62" width="87.12" height="99.84" filterUnits="userSpaceOnUse">
      <feOffset dx="0" dy="0"/>
      <feGaussianBlur result="blur-2" stdDeviation="5"/>
      <feFlood flood-color="#231f20" flood-opacity=".75"/>
      <feComposite in2="blur-2" operator="in"/>
      <feComposite in="SourceGraphic"/>
    </filter>
    <filter id="outer-glow-48" x="361.8" y="-10.1" width="87.12" height="99.84" filterUnits="userSpaceOnUse">
      <feOffset dx="0" dy="0"/>
      <feGaussianBlur result="blur-3" stdDeviation="5"/>
      <feFlood flood-color="#231f20" flood-opacity=".75"/>
      <feComposite in2="blur-3" operator="in"/>
      <feComposite in="SourceGraphic"/>
    </filter>
    <filter id="outer-glow-49" x="453.72" y="-9.62" width="87.12" height="99.84" filterUnits="userSpaceOnUse">
      <feOffset dx="0" dy="0"/>
      <feGaussianBlur result="blur-4" stdDeviation="5"/>
      <feFlood flood-color="#231f20" flood-opacity=".75"/>
      <feComposite in2="blur-4" operator="in"/>
      <feComposite in="SourceGraphic"/>
    </filter>
    <filter id="outer-glow-50" x="92.52" y="-9.62" width="86.88" height="99.84" filterUnits="userSpaceOnUse">
      <feOffset dx="0" dy="0"/>
      <feGaussianBlur result="blur-5" stdDeviation="5"/>
      <feFlood flood-color="#231f20" flood-opacity=".75"/>
      <feComposite in2="blur-5" operator="in"/>
      <feComposite in="SourceGraphic"/>
    </filter>
    <filter id="outer-glow-51" x="3.48" y="-9.62" width="86.88" height="99.84" filterUnits="userSpaceOnUse">
      <feOffset dx="0" dy="0"/>
      <feGaussianBlur result="blur-6" stdDeviation="5"/>
      <feFlood flood-color="#231f20" flood-opacity=".75"/>
      <feComposite in2="blur-6" operator="in"/>
      <feComposite in="SourceGraphic"/>
    </filter>
    <filter id="outer-glow-52" x="137.16" y="78.7" width="87.12" height="99.84" filterUnits="userSpaceOnUse">
      <feOffset dx="0" dy="0"/>
      <feGaussianBlur result="blur-7" stdDeviation="5"/>
      <feFlood flood-color="#231f20" flood-opacity=".75"/>
      <feComposite in2="blur-7" operator="in"/>
      <feComposite in="SourceGraphic"/>
    </filter>
    <filter id="outer-glow-53" x="226.2" y="78.7" width="87.12" height="99.84" filterUnits="userSpaceOnUse">
      <feOffset dx="0" dy="0"/>
      <feGaussianBlur result="blur-8" stdDeviation="5"/>
      <feFlood flood-color="#231f20" flood-opacity=".75"/>
      <feComposite in2="blur-8" operator="in"/>
      <feComposite in="SourceGraphic"/>
    </filter>
    <filter id="outer-glow-54" x="316.44" y="78.22" width="87.12" height="99.84" filterUnits="userSpaceOnUse">
      <feOffset dx="0" dy="0"/>
      <feGaussianBlur result="blur-9" stdDeviation="5"/>
      <feFlood flood-color="#231f20" flood-opacity=".75"/>
      <feComposite in2="blur-9" operator="in"/>
      <feComposite in="SourceGraphic"/>
    </filter>
    <filter id="outer-glow-55" x="408.36" y="78.7" width="87.12" height="99.84" filterUnits="userSpaceOnUse">
      <feOffset dx="0" dy="0"/>
      <feGaussianBlur result="blur-10" stdDeviation="5"/>
      <feFlood flood-color="#231f20" flood-opacity=".75"/>
      <feComposite in2="blur-10" operator="in"/>
      <feComposite in="SourceGraphic"/>
    </filter>
    <filter id="outer-glow-56" x="46.92" y="78.7" width="87.12" height="99.84" filterUnits="userSpaceOnUse">
      <feOffset dx="0" dy="0"/>
      <feGaussianBlur result="blur-11" stdDeviation="5"/>
      <feFlood flood-color="#231f20" flood-opacity=".75"/>
      <feComposite in2="blur-11" operator="in"/>
      <feComposite in="SourceGraphic"/>
    </filter>
    <filter id="outer-glow-57" x="-42.12" y="78.7" width="87.12" height="99.84" filterUnits="userSpaceOnUse">
      <feOffset dx="0" dy="0"/>
      <feGaussianBlur result="blur-12" stdDeviation="5"/>
      <feFlood flood-color="#231f20" flood-opacity=".75"/>
      <feComposite in2="blur-12" operator="in"/>
      <feComposite in="SourceGraphic"/>
    </filter>
    <filter id="outer-glow-58" x="180.36" y="170.62" width="86.88" height="99.84" filterUnits="userSpaceOnUse">
      <feOffset dx="0" dy="0"/>
      <feGaussianBlur result="blur-13" stdDeviation="5"/>
      <feFlood flood-color="#231f20" flood-opacity=".75"/>
      <feComposite in2="blur-13" operator="in"/>
      <feComposite in="SourceGraphic"/>
    </filter>
    <filter id="outer-glow-59" x="269.16" y="170.62" width="87.12" height="99.84" filterUnits="userSpaceOnUse">
      <feOffset dx="0" dy="0"/>
      <feGaussianBlur result="blur-14" stdDeviation="5"/>
      <feFlood flood-color="#231f20" flood-opacity=".75"/>
      <feComposite in2="blur-14" operator="in"/>
      <feComposite in="SourceGraphic"/>
    </filter>
    <filter id="outer-glow-60" x="359.4" y="170.14" width="87.12" height="99.84" filterUnits="userSpaceOnUse">
      <feOffset dx="0" dy="0"/>
      <feGaussianBlur result="blur-15" stdDeviation="5"/>
      <feFlood flood-color="#231f20" flood-opacity=".75"/>
      <feComposite in2="blur-15" operator="in"/>
      <feComposite in="SourceGraphic"/>
    </filter>
    <filter id="outer-glow-61" x="451.32" y="170.62" width="87.12" height="99.84" filterUnits="userSpaceOnUse">
      <feOffset dx="0" dy="0"/>
      <feGaussianBlur result="blur-16" stdDeviation="5"/>
      <feFlood flood-color="#231f20" flood-opacity=".75"/>
      <feComposite in2="blur-16" operator="in"/>
      <feComposite in="SourceGraphic"/>
    </filter>
    <filter id="outer-glow-62" x="90.12" y="170.62" width="86.88" height="99.84" filterUnits="userSpaceOnUse">
      <feOffset dx="0" dy="0"/>
      <feGaussianBlur result="blur-17" stdDeviation="5"/>
      <feFlood flood-color="#231f20" flood-opacity=".75"/>
      <feComposite in2="blur-17" operator="in"/>
      <feComposite in="SourceGraphic"/>
    </filter>
    <filter id="outer-glow-63" x="1.08" y="170.62" width="86.88" height="99.84" filterUnits="userSpaceOnUse">
      <feOffset dx="0" dy="0"/>
      <feGaussianBlur result="blur-18" stdDeviation="5"/>
      <feFlood flood-color="#231f20" flood-opacity=".75"/>
      <feComposite in2="blur-18" operator="in"/>
      <feComposite in="SourceGraphic"/>
    </filter>
    <filter id="outer-glow-64" x="137.16" y="256.54" width="87.12" height="99.84" filterUnits="userSpaceOnUse">
      <feOffset dx="0" dy="0"/>
      <feGaussianBlur result="blur-19" stdDeviation="5"/>
      <feFlood flood-color="#231f20" flood-opacity=".75"/>
      <feComposite in2="blur-19" operator="in"/>
      <feComposite in="SourceGraphic"/>
    </filter>
    <filter id="outer-glow-65" x="226.2" y="256.54" width="87.12" height="99.84" filterUnits="userSpaceOnUse">
      <feOffset dx="0" dy="0"/>
      <feGaussianBlur result="blur-20" stdDeviation="5"/>
      <feFlood flood-color="#231f20" flood-opacity=".75"/>
      <feComposite in2="blur-20" operator="in"/>
      <feComposite in="SourceGraphic"/>
    </filter>
    <filter id="outer-glow-66" x="316.44" y="256.06" width="87.12" height="99.84" filterUnits="userSpaceOnUse">
      <feOffset dx="0" dy="0"/>
      <feGaussianBlur result="blur-21" stdDeviation="5"/>
      <feFlood flood-color="#231f20" flood-opacity=".75"/>
      <feComposite in2="blur-21" operator="in"/>
      <feComposite in="SourceGraphic"/>
    </filter>
    <filter id="outer-glow-67" x="408.36" y="256.54" width="87.12" height="99.84" filterUnits="userSpaceOnUse">
      <feOffset dx="0" dy="0"/>
      <feGaussianBlur result="blur-22" stdDeviation="5"/>
      <feFlood flood-color="#231f20" flood-opacity=".75"/>
      <feComposite in2="blur-22" operator="in"/>
      <feComposite in="SourceGraphic"/>
    </filter>
    <filter id="outer-glow-68" x="46.92" y="256.54" width="87.12" height="99.84" filterUnits="userSpaceOnUse">
      <feOffset dx="0" dy="0"/>
      <feGaussianBlur result="blur-23" stdDeviation="5"/>
      <feFlood flood-color="#231f20" flood-opacity=".75"/>
      <feComposite in2="blur-23" operator="in"/>
      <feComposite in="SourceGraphic"/>
    </filter>
    <filter id="outer-glow-69" x="-42.12" y="256.54" width="87.12" height="99.84" filterUnits="userSpaceOnUse">
      <feOffset dx="0" dy="0"/>
      <feGaussianBlur result="blur-24" stdDeviation="5"/>
      <feFlood flood-color="#231f20" flood-opacity=".75"/>
      <feComposite in2="blur-24" operator="in"/>
      <feComposite in="SourceGraphic"/>
    </filter>
  </defs>
  <rect class="cls-11" x="-.67" y="-.68" width="504.46" height="349.85"/>
  <g class="cls-25">
    <path class="cls-13" d="M246.68,66.47c-5.96.41-11.92.66-17.88.88-.26-6.69-.45-13.39-.56-20.08-.13-6.23-.19-14.49-.24-20.77,1.15-.02,8.68-.13,9.99-.15,0,0,.24,0,.24,0l.24.06c2.92.65,4.72,3.42,5.09,6.13,2.58,5.31,4.37,11.04,6.18,16.63,0,0,3.58,11.79,3.58,11.79,1.16,4.23,1.48,8.62,1.1,12.96,0,0-.56,0-.56,0-12.42,0-28.25.53-40.72.91-5.09.14-10.19.23-15.28.3-.35-4.73.1-9.55,1.71-14.05.52-1.51,1.18-2.94,1.72-4.39,0,0-.02.07-.02.07l-.03.14s-.05.39-.01.57c-.84-.88.99,2.39,2.79,1.56.23-.1.45-.26.62-.44.05-.05.11-.13.15-.18.08-.11-.09.14-.08.13-.3.4-.44.65-1.18.92,0,.08-1.43.38-2.29-.91-.34-.74-.18-.49-.26-.79-.02-.32-.01-.39.02-.6.66-2.27,1.61-4.31,2.41-6.44,2.81-7.09,6.04-14.76,9.07-21.78.17-.42,1-1.55,1.21-1.92,0,0,.62-.95.62-.95.19.01,8.91-.07,9.46-.06,0,0,2.05-.01,2.05-.01l-.04,1.99c-.18,12.42-.55,25.93-1.01,38.3,0,0-.03.99-.03.99-5.69-.14-11.39-.37-17.08-.64,0,0,0-.4,0-.4,2.69-.19,5.38-.35,8.07-.49,2.69-.14,5.38-.32,8.07-.43,0,0-.96.97-.96.97-.46-12.36-.83-25.89-1.01-38.3,0,0,2.01,1.98,2.01,1.98l-8.36.24,1.71-.96-1.01,1.62.16-.31c-3.37,8.42-8.03,18.97-11.41,27.38,0,.01-.02.1.01-.09.03-.16.03-.24.01-.53-.08-.3.08-.03-.26-.77-.86-1.29-2.29-.99-2.27-.91-.63.22-.72.38-.94.61-.1.13-.07.1-.08.11.24-.4.57-.76,1-.95,1.8-.83,3.64,2.44,2.8,1.57.04.19,0,.55-.01.59-.13.63-.63,1.62-.85,2.2-1.99,4.25-3.06,8.78-2.94,13.49,0,0-1.79-1.73-1.79-1.73,4.52.07,9.05.15,13.57.28,6.76.21,20.38.62,27.15.78,3.37.06,10.2.13,13.57.14,0,0-.6.56-.6.56.59-6.13-1.09-12.03-3.4-17.65-2.8-7.28-5.57-14.94-9.33-21.74-.2-.45-.26-.76-.33-1.03-.41-1.84-1.17-2.63-2.63-3.02l.48.06-8.22.17s1.76-1.79,1.76-1.79c0,0-.08,9.5-.08,9.5-.1,9.5-.31,19-.67,28.5,0,0-1.05-1.05-1.05-1.05,5.62.21,11.25.46,16.87.85v.4h0Z"/>
    <polygon class="cls-13" points="230.79 57.96 245.1 59.96 230.79 61.96 230.79 57.96 230.79 57.96"/>
    <polygon class="cls-13" points="222.98 61.96 209 59.96 222.98 57.96 222.98 61.96 222.98 61.96"/>
    <path class="cls-13" d="M227.13,17.21c-.38,4.02-6.07,2.14-5.92-1.22.18-2.04,1.89-3.36,3.57-4.05,2.32-.88,4.95-.15,6.75,1.45,1.9,1.52,2.76,4.57,1.74,6.82-4.31,9.21-17.4,4.35-16.89-4.99.29-7.07,7.52-11.16,14.03-9.24,6.52,1.57,10.76,9.44,7.49,15.55-1.21,2.31-3.07,4.64-5.81,5.11-.56.04-.9-.11-1.32-.11-.71,0-.78,1.06-.79,1.69,0,0-.39.07-.39.07-.27-.7-.48-1.62,0-2.37.18-.29.49-.53.8-.65.62-.26,1.28-.18,1.4-.31,2.79-1.7,4.14-5.95,3.31-8.99-1.56-5.74-9.66-8.73-14.15-4.43-2.27,2.1-3.55,5.82-1.78,8.69,1.55,2.84,5.73,4.52,8.43,2.44,1.71-1.28,2.99-3.25,2.46-5.21-.51-1.65-2.7-2.99-4.32-2.57-.8.2-1.76.64-2.1,1.33-.08.11-.08.32.03.59.35.77,1.37,1.69,2.26,1.16.3-.19.59-.52.81-.9l.38.11h0Z"/>
  </g>
  <g class="cls-5">
    <path class="cls-13" d="M335.65,66.47c-5.96.41-11.92.66-17.88.88-.26-6.69-.45-13.39-.56-20.08-.13-6.23-.19-14.49-.24-20.77,1.15-.02,8.68-.13,9.99-.15,0,0,.24,0,.24,0l.24.06c2.92.65,4.72,3.42,5.09,6.13,2.58,5.31,4.37,11.04,6.18,16.63,0,0,3.58,11.79,3.58,11.79,1.16,4.23,1.48,8.62,1.1,12.96,0,0-.56,0-.56,0-12.42,0-28.25.53-40.72.91-5.09.14-10.19.23-15.28.3-.35-4.73.1-9.55,1.71-14.05.52-1.51,1.18-2.94,1.72-4.39,0,0-.02.07-.02.07l-.03.14s-.05.39-.01.57c-.84-.88.99,2.39,2.79,1.56.23-.1.45-.26.62-.44.05-.05.11-.13.15-.18.08-.11-.09.14-.08.13-.3.4-.44.65-1.18.92,0,.08-1.43.38-2.29-.91-.34-.74-.18-.49-.26-.79-.02-.32-.01-.39.02-.6.66-2.27,1.61-4.31,2.41-6.44,2.81-7.09,6.04-14.76,9.07-21.78.17-.42,1-1.55,1.21-1.92,0,0,.62-.95.62-.95.19.01,8.91-.07,9.46-.06,0,0,2.05-.01,2.05-.01l-.04,1.99c-.18,12.42-.55,25.93-1.01,38.3,0,0-.03.99-.03.99-5.69-.14-11.39-.37-17.08-.64,0,0,0-.4,0-.4,2.69-.19,5.38-.35,8.07-.49,2.69-.14,5.38-.32,8.07-.43l-.96.97c-.46-12.36-.83-25.89-1.01-38.3,0,0,2.01,1.98,2.01,1.98l-8.36.24s1.71-.96,1.71-.96l-1.01,1.62.16-.31c-3.37,8.42-8.03,18.97-11.41,27.38,0,.01-.02.1.01-.09.03-.16.03-.24.01-.53-.08-.3.08-.03-.26-.77-.86-1.29-2.29-.99-2.27-.91-.63.22-.72.38-.94.61-.1.13-.07.1-.08.11.24-.4.57-.76,1-.95,1.8-.83,3.64,2.44,2.8,1.57.04.19,0,.55-.01.59-.13.63-.63,1.62-.85,2.2-1.99,4.25-3.06,8.78-2.94,13.49,0,0-1.79-1.73-1.79-1.73,4.52.07,9.05.15,13.57.28,6.76.21,20.38.62,27.15.78,3.37.06,10.2.13,13.57.14,0,0-.6.56-.6.56.59-6.13-1.09-12.03-3.4-17.65-2.8-7.28-5.57-14.94-9.33-21.74-.2-.45-.26-.76-.33-1.03-.41-1.84-1.17-2.63-2.63-3.02l.48.06-8.22.17,1.76-1.79-.08,9.5c-.1,9.5-.31,19-.67,28.5,0,0-1.05-1.05-1.05-1.05,5.62.21,11.25.46,16.87.85,0,0,0,.4,0,.4h0Z"/>
    <polygon class="cls-13" points="319.77 57.96 334.07 59.96 319.77 61.96 319.77 57.96 319.77 57.96"/>
    <polygon class="cls-13" points="311.96 61.96 297.98 59.96 311.96 57.96 311.96 61.96 311.96 61.96"/>
    <path class="cls-13" d="M316.11,17.21c-.38,4.02-6.07,2.14-5.92-1.22.18-2.04,1.89-3.36,3.57-4.05,2.32-.88,4.95-.15,6.75,1.45,1.9,1.52,2.76,4.57,1.74,6.82-4.31,9.21-17.4,4.35-16.89-4.99.29-7.07,7.52-11.16,14.03-9.24,6.52,1.57,10.76,9.44,7.49,15.55-1.21,2.31-3.07,4.64-5.81,5.11-.56.04-.9-.11-1.32-.11-.71,0-.78,1.06-.79,1.69,0,0-.39.07-.39.07-.27-.7-.48-1.62,0-2.37.18-.29.49-.53.8-.65.62-.26,1.28-.18,1.4-.31,2.79-1.7,4.14-5.95,3.31-8.99-1.56-5.74-9.66-8.73-14.15-4.43-2.27,2.1-3.55,5.82-1.78,8.69,1.55,2.84,5.73,4.52,8.43,2.44,1.71-1.28,2.99-3.25,2.46-5.21-.51-1.65-2.7-2.99-4.32-2.57-.8.2-1.76.64-2.1,1.33-.08.11-.08.32.03.59.35.77,1.37,1.69,2.26,1.16.3-.19.59-.52.81-.9l.38.11h0Z"/>
  </g>
  <g class="cls-2">
    <path class="cls-13" d="M425.84,65.98c-5.96.41-11.92.66-17.88.88-.26-6.69-.45-13.39-.56-20.08-.13-6.23-.19-14.49-.24-20.77,1.15-.02,8.68-.13,9.99-.15,0,0,.24,0,.24,0l.24.06c2.92.65,4.72,3.42,5.09,6.13,2.58,5.31,4.37,11.04,6.18,16.63,0,0,3.58,11.79,3.58,11.79,1.16,4.23,1.48,8.62,1.1,12.96,0,0-.56,0-.56,0-12.42,0-28.25.53-40.72.91-5.09.14-10.19.23-15.28.3-.35-4.73.1-9.55,1.71-14.05.52-1.51,1.18-2.94,1.72-4.39,0,0-.02.07-.02.07l-.03.14s-.05.39-.01.57c-.84-.88.99,2.39,2.79,1.56.3-.13.58-.36.77-.62.08-.11-.09.14-.08.13-.3.4-.44.65-1.18.92,0,.08-1.43.38-2.29-.91-.34-.74-.18-.49-.26-.79-.02-.32-.01-.39.02-.6.66-2.27,1.61-4.31,2.41-6.44,2.81-7.09,6.04-14.76,9.07-21.78.17-.42,1-1.55,1.21-1.92,0,0,.62-.95.62-.95.19.01,8.91-.07,9.46-.06,0,0,2.05-.01,2.05-.01l-.04,1.99c-.18,12.42-.55,25.93-1.01,38.3,0,0-.03.99-.03.99-5.69-.14-11.39-.37-17.08-.64,0,0,0-.4,0-.4,2.69-.19,5.38-.35,8.07-.49,2.69-.14,5.38-.32,8.07-.43l-.96.97c-.46-12.36-.83-25.89-1.01-38.3,0,0,2.01,1.98,2.01,1.98l-8.36.24s1.71-.96,1.71-.96l-1.01,1.62s.16-.31.16-.31c-3.37,8.42-8.03,18.97-11.41,27.38,0,.01-.02.1.01-.09.03-.16.03-.24.01-.53-.08-.3.08-.03-.26-.77-.86-1.29-2.29-.99-2.27-.91-.63.22-.72.38-.94.61-.1.13-.07.1-.08.11.24-.4.57-.76,1-.95,1.8-.83,3.64,2.44,2.8,1.57.04.19,0,.55-.01.59-.13.63-.63,1.62-.85,2.2-1.99,4.25-3.06,8.78-2.94,13.49,0,0-1.79-1.73-1.79-1.73,4.52.07,9.05.15,13.57.28,6.76.21,20.38.61,27.15.78,3.37.06,10.2.14,13.57.14,0,0-.6.56-.6.56.59-6.13-1.09-12.03-3.4-17.65-2.8-7.28-5.57-14.94-9.33-21.74-.2-.45-.26-.76-.33-1.03-.41-1.84-1.17-2.63-2.63-3.02,0,0,.48.06.48.06l-8.22.17,1.76-1.79-.08,9.5c-.1,9.5-.31,19-.67,28.5,0,0-1.05-1.05-1.05-1.05,5.62.21,11.25.46,16.87.85,0,0,0,.4,0,.4h0Z"/>
    <polygon class="cls-13" points="409.95 57.47 424.26 59.47 409.95 61.47 409.95 57.47 409.95 57.47"/>
    <polygon class="cls-13" points="402.14 61.47 388.17 59.47 402.14 57.47 402.14 61.47 402.14 61.47"/>
    <path class="cls-13" d="M406.29,16.72c-.38,4.02-6.07,2.14-5.92-1.22.18-2.04,1.89-3.36,3.57-4.05,2.32-.88,4.95-.15,6.75,1.45,1.9,1.52,2.76,4.57,1.74,6.82-4.31,9.21-17.4,4.35-16.89-4.99.29-7.07,7.52-11.16,14.03-9.24,6.52,1.57,10.76,9.44,7.49,15.55-1.21,2.31-3.07,4.64-5.81,5.11-.56.04-.9-.11-1.32-.11-.71,0-.78,1.06-.79,1.69,0,0-.39.07-.39.07-.27-.7-.48-1.62,0-2.37.18-.29.49-.53.8-.65.62-.26,1.28-.19,1.4-.31,2.79-1.7,4.14-5.95,3.31-8.99-1.56-5.74-9.66-8.73-14.15-4.43-2.27,2.1-3.55,5.82-1.78,8.69,1.55,2.84,5.73,4.52,8.43,2.44,1.71-1.28,2.99-3.25,2.46-5.21-.51-1.65-2.7-2.99-4.32-2.57-.8.2-1.76.64-2.1,1.33-.08.11-.08.32.03.59.35.77,1.37,1.69,2.26,1.16.3-.19.59-.52.81-.9l.38.11h0Z"/>
  </g>
  <g class="cls-6">
    <path class="cls-13" d="M517.83,66.47c-5.96.41-11.92.66-17.88.88-.26-6.69-.45-13.39-.56-20.08-.13-6.23-.19-14.49-.24-20.77,1.15-.02,8.68-.13,9.99-.15,0,0,.24,0,.24,0l.24.06c2.92.65,4.72,3.42,5.09,6.13,2.58,5.31,4.37,11.04,6.18,16.63,0,0,3.58,11.79,3.58,11.79,1.16,4.23,1.48,8.62,1.1,12.96,0,0-.56,0-.56,0-12.42,0-28.25.53-40.72.91-5.09.14-10.19.23-15.28.3-.35-4.73.1-9.55,1.71-14.05.52-1.51,1.18-2.94,1.72-4.39,0,0-.02.07-.02.07l-.03.14s-.05.39-.01.57c-.84-.88.99,2.39,2.79,1.56.23-.1.45-.26.62-.44.05-.05.11-.13.15-.18.08-.11-.09.14-.08.13-.3.4-.44.65-1.18.92,0,.08-1.43.38-2.29-.91-.34-.74-.18-.49-.26-.79-.02-.32-.01-.39.02-.6.66-2.27,1.61-4.31,2.41-6.44,2.81-7.09,6.04-14.76,9.07-21.78.17-.42,1-1.55,1.21-1.92,0,0,.62-.95.62-.95.19.01,8.91-.07,9.46-.06,0,0,2.05-.01,2.05-.01l-.04,1.99c-.18,12.42-.55,25.93-1.01,38.3,0,0-.03.99-.03.99-5.69-.14-11.39-.37-17.08-.64,0,0,0-.4,0-.4,2.69-.19,5.38-.35,8.07-.49,2.69-.14,5.38-.32,8.07-.43l-.96.97c-.46-12.36-.83-25.89-1.01-38.3,0,0,2.01,1.98,2.01,1.98,0,0-8.36.24-8.36.24,0,0,1.71-.96,1.71-.96,0,0-1.01,1.62-1.01,1.62l.16-.31c-3.37,8.42-8.03,18.97-11.41,27.38,0,.01-.02.1.01-.09.03-.16.03-.24.01-.53-.08-.3.08-.03-.26-.77-.86-1.29-2.29-.99-2.27-.91-.63.22-.72.38-.94.61-.1.13-.07.1-.08.11.24-.4.57-.76,1-.95,1.8-.83,3.64,2.44,2.8,1.57.04.19,0,.55-.01.59-.13.63-.63,1.62-.85,2.2-1.99,4.25-3.06,8.78-2.94,13.49,0,0-1.79-1.73-1.79-1.73,4.52.07,9.05.15,13.57.28,6.76.21,20.38.62,27.15.78,3.37.06,10.2.13,13.57.14,0,0-.6.56-.6.56.59-6.13-1.09-12.03-3.4-17.65-2.8-7.28-5.57-14.94-9.33-21.74-.2-.45-.26-.76-.33-1.03-.41-1.84-1.17-2.63-2.63-3.02l.48.06-8.22.17,1.76-1.79-.08,9.5c-.1,9.5-.31,19-.67,28.5,0,0-1.05-1.05-1.05-1.05,5.62.21,11.25.46,16.87.85v.4h0Z"/>
    <polygon class="cls-13" points="494.13 61.96 480.16 59.96 494.13 57.96 494.13 61.96 494.13 61.96"/>
    <path class="cls-13" d="M498.28,17.21c-.38,4.02-6.07,2.14-5.92-1.22.18-2.04,1.89-3.36,3.57-4.05,2.32-.88,4.95-.15,6.75,1.45,1.9,1.52,2.76,4.57,1.74,6.82-4.31,9.21-17.4,4.35-16.89-4.99.29-7.07,7.52-11.16,14.03-9.24,6.52,1.57,10.76,9.44,7.49,15.55-1.21,2.31-3.07,4.64-5.81,5.11-.56.04-.9-.11-1.32-.11-.71,0-.78,1.06-.79,1.69,0,0-.39.07-.39.07-.27-.7-.48-1.62,0-2.37.18-.29.49-.53.8-.65.62-.26,1.28-.18,1.4-.31,2.79-1.7,4.14-5.95,3.31-8.99-1.56-5.74-9.66-8.73-14.15-4.43-2.27,2.1-3.55,5.82-1.78,8.69,1.55,2.84,5.73,4.52,8.43,2.44,1.71-1.28,2.99-3.25,2.46-5.21-.51-1.65-2.7-2.99-4.32-2.57-.8.2-1.76.64-2.1,1.33-.08.11-.08.32.03.59.35.77,1.37,1.69,2.26,1.16.3-.19.59-.52.81-.9l.38.11h0Z"/>
  </g>
  <g class="cls-17">
    <path class="cls-13" d="M156.46,66.47c-5.96.41-11.92.66-17.88.88-.26-6.69-.45-13.39-.56-20.08-.13-6.23-.19-14.49-.24-20.77,1.15-.02,8.68-.13,9.99-.15,0,0,.24,0,.24,0,0,0,.24.06.24.06,2.92.65,4.72,3.42,5.09,6.13,2.58,5.31,4.37,11.04,6.18,16.63,0,0,3.58,11.79,3.58,11.79,1.16,4.23,1.48,8.62,1.1,12.96,0,0-.56,0-.56,0-12.42,0-28.25.53-40.72.91-5.09.14-10.19.23-15.28.3-.35-4.73.1-9.55,1.71-14.05.52-1.51,1.18-2.94,1.72-4.39,0,0-.02.07-.02.07,0,0-.03.14-.03.14-.01.03-.05.39-.01.57-.84-.88.99,2.39,2.79,1.56.23-.1.45-.26.62-.44.05-.05.11-.13.15-.18.08-.11-.09.14-.08.13-.3.4-.44.65-1.18.92,0,.08-1.43.38-2.29-.91-.34-.74-.18-.49-.26-.79-.02-.32-.01-.39.02-.6.66-2.27,1.61-4.31,2.41-6.44,2.81-7.09,6.04-14.76,9.07-21.78.17-.42,1-1.55,1.21-1.92,0,0,.62-.95.62-.95.19.01,8.91-.07,9.46-.06,0,0,2.05-.01,2.05-.01l-.04,1.99c-.18,12.42-.55,25.93-1.01,38.3,0,0-.03.99-.03.99-5.69-.14-11.39-.37-17.08-.64,0,0,0-.4,0-.4,2.69-.19,5.38-.35,8.07-.49,2.69-.14,5.38-.32,8.07-.43l-.96.97c-.46-12.36-.83-25.89-1.01-38.3,0,0,2.01,1.98,2.01,1.98,0,0-8.36.24-8.36.24l1.71-.96-1.01,1.62s.16-.31.16-.31c-3.37,8.42-8.03,18.97-11.41,27.38,0,.01-.02.1.01-.09.03-.16.03-.24.01-.53-.08-.3.08-.03-.26-.77-.86-1.29-2.29-.99-2.27-.91-.63.22-.72.38-.94.61-.1.13-.07.1-.08.11.24-.4.57-.76,1-.95,1.8-.83,3.64,2.44,2.8,1.57.04.19,0,.55-.01.59-.13.63-.63,1.62-.85,2.2-1.99,4.25-3.06,8.78-2.94,13.49,0,0-1.79-1.73-1.79-1.73,4.52.07,9.05.15,13.57.28,6.76.21,20.38.62,27.15.78,3.37.06,10.2.13,13.57.14,0,0-.6.56-.6.56.59-6.13-1.09-12.03-3.4-17.65-2.8-7.28-5.57-14.94-9.33-21.74-.2-.45-.26-.76-.33-1.03-.41-1.84-1.17-2.63-2.63-3.02l.48.06-8.22.17,1.76-1.79s-.08,9.5-.08,9.5c-.1,9.5-.31,19-.67,28.5,0,0-1.05-1.05-1.05-1.05,5.62.21,11.25.46,16.87.85,0,0,0,.4,0,.4h0Z"/>
    <polygon class="cls-13" points="140.58 57.96 154.88 59.96 140.58 61.96 140.58 57.96 140.58 57.96"/>
    <polygon class="cls-13" points="132.76 61.96 118.79 59.96 132.76 57.96 132.76 61.96 132.76 61.96"/>
    <path class="cls-13" d="M136.92,17.21c-.38,4.02-6.07,2.14-5.92-1.22.18-2.04,1.89-3.36,3.57-4.05,2.32-.88,4.95-.15,6.75,1.45,1.9,1.52,2.76,4.57,1.74,6.82-4.31,9.21-17.4,4.35-16.89-4.99.29-7.07,7.52-11.16,14.03-9.24,6.52,1.57,10.76,9.44,7.49,15.55-1.21,2.31-3.07,4.64-5.81,5.11-.56.04-.9-.11-1.32-.11-.71,0-.78,1.06-.79,1.69,0,0-.39.07-.39.07-.27-.7-.48-1.62,0-2.37.18-.29.49-.53.8-.65.62-.26,1.28-.18,1.4-.31,2.79-1.7,4.14-5.95,3.31-8.99-1.56-5.74-9.66-8.73-14.15-4.43-2.27,2.1-3.55,5.82-1.78,8.69,1.55,2.84,5.73,4.52,8.43,2.44,1.71-1.28,2.99-3.25,2.46-5.21-.51-1.65-2.7-2.99-4.32-2.57-.8.2-1.76.64-2.1,1.33-.08.11-.08.32.03.59.35.77,1.37,1.69,2.26,1.16.3-.19.59-.52.81-.9l.38.11h0Z"/>
  </g>
  <g class="cls-14">
    <path class="cls-13" d="M67.42,66.47c-5.96.41-11.92.66-17.88.88-.26-6.69-.45-13.39-.56-20.08-.13-6.23-.19-14.49-.24-20.77,1.15-.02,8.68-.13,9.99-.15,0,0,.24,0,.24,0,0,0,.24.06.24.06,2.92.65,4.72,3.42,5.09,6.13,2.58,5.31,4.37,11.04,6.18,16.63,0,0,3.58,11.79,3.58,11.79,1.16,4.23,1.48,8.62,1.1,12.96,0,0-.56,0-.56,0-12.42,0-28.25.53-40.72.91-5.09.14-10.19.23-15.28.3-.35-4.73.1-9.55,1.71-14.05.52-1.51,1.18-2.94,1.72-4.39,0,0-.02.07-.02.07l-.03.14s-.05.39-.01.57c-.84-.88.99,2.39,2.79,1.56.23-.1.45-.26.62-.44.05-.05.11-.13.15-.18.08-.11-.09.14-.08.13-.3.4-.44.65-1.18.92,0,.08-1.43.38-2.29-.91-.34-.74-.18-.49-.26-.79-.02-.32-.01-.39.02-.6.66-2.27,1.61-4.31,2.41-6.44,2.81-7.09,6.04-14.76,9.07-21.78.17-.42,1-1.55,1.21-1.92,0,0,.62-.95.62-.95.19.01,8.91-.07,9.46-.06,0,0,2.05-.01,2.05-.01l-.04,1.99c-.18,12.42-.55,25.93-1.01,38.3,0,0-.03.99-.03.99-5.69-.14-11.39-.37-17.08-.64,0,0,0-.4,0-.4,2.69-.19,5.38-.35,8.07-.49,2.69-.14,5.38-.32,8.07-.43l-.96.97c-.46-12.36-.83-25.89-1.01-38.3,0,0,2.01,1.98,2.01,1.98,0,0-8.36.24-8.36.24,0,0,1.71-.96,1.71-.96s-1.01,1.62-1.01,1.62l.16-.31c-3.37,8.42-8.03,18.97-11.41,27.38,0,.01-.02.1.01-.09.03-.16.03-.24.01-.53-.08-.3.08-.03-.26-.77-.86-1.29-2.29-.99-2.27-.91-.63.22-.72.38-.94.61-.1.13-.07.1-.08.11.24-.4.57-.76,1-.95,1.8-.83,3.64,2.44,2.8,1.57.04.19,0,.55-.01.59-.13.63-.63,1.62-.85,2.2-1.99,4.25-3.06,8.78-2.94,13.49,0,0-1.79-1.73-1.79-1.73,4.52.07,9.05.15,13.57.28,6.76.21,20.38.62,27.15.78,3.37.06,10.2.13,13.57.14,0,0-.6.56-.6.56.59-6.13-1.09-12.03-3.4-17.65-2.8-7.28-5.57-14.94-9.33-21.74-.2-.45-.26-.76-.33-1.03-.41-1.84-1.17-2.63-2.63-3.02l.48.06-8.22.17,1.76-1.79s-.08,9.5-.08,9.5c-.1,9.5-.31,19-.67,28.5,0,0-1.05-1.05-1.05-1.05,5.62.21,11.25.46,16.87.85v.4h0Z"/>
    <polygon class="cls-13" points="51.54 57.96 65.84 59.96 51.54 61.96 51.54 57.96 51.54 57.96"/>
    <polygon class="cls-13" points="43.72 61.96 29.75 59.96 43.72 57.96 43.72 61.96 43.72 61.96"/>
    <path class="cls-13" d="M47.88,17.21c-.38,4.02-6.07,2.14-5.92-1.22.18-2.04,1.89-3.36,3.57-4.05,2.32-.88,4.95-.15,6.75,1.45,1.9,1.52,2.76,4.57,1.74,6.82-4.31,9.21-17.4,4.35-16.89-4.99.29-7.07,7.52-11.16,14.03-9.24,6.52,1.57,10.76,9.44,7.49,15.55-1.21,2.31-3.07,4.64-5.81,5.11-.56.04-.9-.11-1.32-.11-.71,0-.78,1.06-.79,1.69,0,0-.39.07-.39.07-.27-.7-.48-1.62,0-2.37.18-.29.49-.53.8-.65.62-.26,1.28-.18,1.4-.31,2.79-1.7,4.14-5.95,3.31-8.99-1.56-5.74-9.66-8.73-14.15-4.43-2.27,2.1-3.55,5.82-1.78,8.69,1.55,2.84,5.73,4.52,8.43,2.44,1.71-1.28,2.99-3.25,2.46-5.21-.51-1.65-2.7-2.99-4.32-2.57-.8.2-1.76.64-2.1,1.33-.08.11-.08.32.03.59.35.77,1.37,1.69,2.26,1.16.3-.19.59-.52.81-.9l.38.11h0Z"/>
  </g>
  <g class="cls-15">
    <path class="cls-13" d="M201.26,154.7c-5.96.41-11.92.66-17.88.88-.26-6.69-.45-13.39-.56-20.08-.13-6.23-.19-14.49-.24-20.77,1.15-.02,8.68-.13,9.99-.15,0,0,.24,0,.24,0,0,0,.24.06.24.06,2.92.65,4.72,3.42,5.09,6.13,2.58,5.31,4.37,11.04,6.18,16.63,0,0,3.58,11.79,3.58,11.79,1.16,4.23,1.48,8.62,1.1,12.96,0,0-.56,0-.56,0-12.42,0-28.25.53-40.72.91-5.09.14-10.19.23-15.28.3-.35-4.73.1-9.55,1.71-14.05.52-1.51,1.18-2.94,1.72-4.39,0,0-.02.07-.02.07,0,0-.03.14-.03.14-.01.03-.05.39-.01.57-.84-.88.99,2.39,2.79,1.56.23-.1.45-.26.62-.44.05-.05.11-.13.15-.18.08-.11-.09.14-.08.13-.3.4-.44.65-1.18.92,0,.08-1.43.38-2.29-.91-.34-.74-.18-.49-.26-.79-.02-.32-.01-.39.02-.6.66-2.27,1.61-4.31,2.41-6.44,2.81-7.09,6.04-14.76,9.07-21.78.17-.42,1-1.55,1.21-1.92,0,0,.62-.95.62-.95.19.01,8.91-.07,9.46-.06,0,0,2.05-.01,2.05-.01,0,0-.04,1.99-.04,1.99-.18,12.42-.55,25.93-1.01,38.3,0,0-.03.99-.03.99-5.69-.14-11.39-.37-17.08-.64,0,0,0-.4,0-.4,2.69-.19,5.38-.35,8.07-.49,2.69-.14,5.38-.32,8.07-.43l-.96.97c-.46-12.36-.83-25.89-1.01-38.3,0,0,2.01,1.98,2.01,1.98l-8.36.24s1.71-.96,1.71-.96l-1.01,1.62s.16-.31.16-.31c-3.37,8.42-8.03,18.97-11.41,27.38,0,.01-.02.1.01-.09.03-.16.03-.24.01-.53-.08-.3.08-.03-.26-.77-.86-1.29-2.29-.99-2.27-.91-.63.22-.72.38-.94.61-.1.13-.07.1-.08.11.24-.4.57-.76,1-.95,1.8-.83,3.64,2.44,2.8,1.57.04.19,0,.55-.01.59-.13.63-.63,1.62-.85,2.2-1.99,4.25-3.06,8.78-2.94,13.49,0,0-1.79-1.73-1.79-1.73,4.52.07,9.05.15,13.57.28,6.76.21,20.38.62,27.15.78,3.37.06,10.2.13,13.57.14,0,0-.6.56-.6.56.59-6.13-1.09-12.03-3.4-17.65-2.8-7.28-5.57-14.94-9.33-21.74-.2-.45-.26-.76-.33-1.03-.41-1.84-1.17-2.63-2.63-3.02l.48.06s-8.22.17-8.22.17c0,0,1.76-1.79,1.76-1.79,0,0-.08,9.5-.08,9.5-.1,9.5-.31,19-.67,28.5,0,0-1.05-1.05-1.05-1.05,5.62.21,11.25.46,16.87.85v.4h0Z"/>
    <polygon class="cls-13" points="185.38 146.19 199.68 148.19 185.38 150.19 185.38 146.19 185.38 146.19"/>
    <polygon class="cls-13" points="177.56 150.19 163.59 148.19 177.56 146.19 177.56 150.19 177.56 150.19"/>
    <path class="cls-13" d="M181.72,105.44c-.38,4.02-6.07,2.14-5.92-1.22.18-2.04,1.89-3.36,3.57-4.05,2.32-.88,4.95-.15,6.75,1.45,1.9,1.52,2.76,4.57,1.74,6.82-4.31,9.21-17.4,4.35-16.89-4.99.29-7.07,7.52-11.16,14.03-9.24,6.52,1.57,10.76,9.44,7.49,15.55-1.21,2.31-3.07,4.64-5.81,5.11-.56.04-.9-.11-1.32-.11-.71,0-.78,1.06-.79,1.69,0,0-.39.07-.39.07-.27-.71-.48-1.62,0-2.37.18-.29.49-.53.8-.65.62-.26,1.28-.18,1.4-.31,2.79-1.7,4.14-5.95,3.31-8.99-1.56-5.74-9.66-8.73-14.15-4.43-2.27,2.1-3.55,5.82-1.78,8.69,1.55,2.84,5.73,4.52,8.43,2.44,1.71-1.28,2.99-3.25,2.46-5.21-.51-1.65-2.7-2.99-4.32-2.57-.8.2-1.76.64-2.1,1.33-.08.11-.08.32.03.59.35.77,1.37,1.69,2.26,1.16.3-.19.59-.52.81-.9l.38.11h0Z"/>
  </g>
  <g class="cls-3">
    <path class="cls-13" d="M290.24,154.7c-5.96.41-11.92.66-17.88.88-.26-6.69-.45-13.39-.56-20.08-.13-6.23-.19-14.49-.24-20.77,1.15-.02,8.68-.13,9.99-.15,0,0,.24,0,.24,0l.24.06c2.92.65,4.72,3.42,5.09,6.13,2.58,5.31,4.37,11.04,6.18,16.63,0,0,3.58,11.79,3.58,11.79,1.16,4.23,1.48,8.62,1.1,12.96,0,0-.56,0-.56,0-12.42,0-28.25.53-40.72.91-5.09.14-10.19.23-15.28.3-.35-4.73.1-9.55,1.71-14.05.52-1.51,1.18-2.94,1.72-4.39,0,0-.02.07-.02.07l-.03.14s-.05.39-.01.57c-.84-.88.99,2.39,2.79,1.56.23-.1.45-.26.62-.44.05-.05.11-.13.15-.18.08-.11-.09.14-.08.13-.3.4-.44.65-1.18.92,0,.08-1.43.38-2.29-.91-.34-.74-.18-.49-.26-.79-.02-.32-.01-.39.02-.6.66-2.27,1.61-4.31,2.41-6.44,2.81-7.09,6.04-14.76,9.07-21.78.17-.42,1-1.55,1.21-1.92,0,0,.62-.95.62-.95.19.01,8.91-.07,9.46-.06,0,0,2.05-.01,2.05-.01l-.04,1.99c-.18,12.42-.55,25.93-1.01,38.3,0,0-.03.99-.03.99-5.69-.14-11.39-.37-17.08-.64,0,0,0-.4,0-.4,2.69-.19,5.38-.35,8.07-.49,2.69-.14,5.38-.32,8.07-.43l-.96.97c-.46-12.36-.83-25.89-1.01-38.3,0,0,2.01,1.98,2.01,1.98l-8.36.24,1.71-.96-1.01,1.62.16-.31c-3.37,8.42-8.03,18.97-11.41,27.38,0,.01-.02.1.01-.09.03-.16.03-.24.01-.53-.08-.3.08-.03-.26-.77-.86-1.29-2.29-.99-2.27-.91-.63.22-.72.38-.94.61-.1.13-.07.1-.08.11.24-.4.57-.76,1-.95,1.8-.83,3.64,2.44,2.8,1.57.04.19,0,.55-.01.59-.13.63-.63,1.62-.85,2.2-1.99,4.25-3.06,8.78-2.94,13.49,0,0-1.79-1.73-1.79-1.73,4.52.07,9.05.15,13.57.28,6.76.21,20.38.62,27.15.78,3.37.06,10.2.13,13.57.14,0,0-.6.56-.6.56.59-6.13-1.09-12.03-3.4-17.65-2.8-7.28-5.57-14.94-9.33-21.74-.2-.45-.26-.76-.33-1.03-.41-1.84-1.17-2.63-2.63-3.02l.48.06-8.22.17,1.76-1.79-.08,9.5c-.1,9.5-.31,19-.67,28.5,0,0-1.05-1.05-1.05-1.05,5.62.21,11.25.46,16.87.85,0,0,0,.4,0,.4h0Z"/>
    <polygon class="cls-13" points="274.35 146.19 288.66 148.19 274.35 150.19 274.35 146.19 274.35 146.19"/>
    <polygon class="cls-13" points="266.54 150.19 252.57 148.19 266.54 146.19 266.54 150.19 266.54 150.19"/>
    <path class="cls-13" d="M270.69,105.44c-.38,4.02-6.07,2.14-5.92-1.22.18-2.04,1.89-3.36,3.57-4.05,2.32-.88,4.95-.15,6.75,1.45,1.9,1.52,2.76,4.57,1.74,6.82-4.31,9.21-17.4,4.35-16.89-4.99.29-7.07,7.52-11.16,14.03-9.24,6.52,1.57,10.76,9.44,7.49,15.55-1.21,2.31-3.07,4.64-5.81,5.11-.56.04-.9-.11-1.32-.11-.71,0-.78,1.06-.79,1.69,0,0-.39.07-.39.07-.27-.71-.48-1.62,0-2.37.18-.29.49-.53.8-.65.62-.26,1.28-.18,1.4-.31,2.79-1.7,4.14-5.95,3.31-8.99-1.56-5.74-9.66-8.73-14.15-4.43-2.27,2.1-3.55,5.82-1.78,8.69,1.55,2.84,5.73,4.52,8.43,2.44,1.71-1.28,2.99-3.25,2.46-5.21-.51-1.65-2.7-2.99-4.32-2.57-.8.2-1.76.64-2.1,1.33-.08.11-.08.32.03.59.35.77,1.37,1.69,2.26,1.16.3-.19.59-.52.81-.9l.38.11h0Z"/>
  </g>
  <g class="cls-12">
    <path class="cls-13" d="M380.42,154.22c-5.96.41-11.92.66-17.88.88-.26-6.69-.45-13.39-.56-20.08-.13-6.23-.19-14.49-.24-20.77,1.15-.02,8.68-.13,9.99-.15,0,0,.24,0,.24,0l.24.06c2.92.65,4.72,3.42,5.09,6.13,2.58,5.31,4.37,11.04,6.18,16.63,0,0,3.58,11.79,3.58,11.79,1.16,4.23,1.48,8.62,1.1,12.96,0,0-.56,0-.56,0-12.42,0-28.25.53-40.72.91-5.09.14-10.19.23-15.28.3-.35-4.73.1-9.55,1.71-14.05.52-1.51,1.18-2.94,1.72-4.39,0,0-.02.07-.02.07,0,0-.03.14-.03.14-.01.03-.05.39-.01.57-.84-.88.99,2.39,2.79,1.56.23-.1.45-.26.62-.44.05-.05.11-.13.15-.18.08-.11-.09.14-.08.13-.3.4-.44.65-1.18.92,0,.08-1.43.38-2.29-.91-.34-.74-.18-.49-.26-.79-.02-.32-.01-.39.02-.6.66-2.27,1.61-4.31,2.41-6.44,2.81-7.09,6.04-14.76,9.07-21.78.17-.42,1-1.55,1.21-1.92,0,0,.62-.95.62-.95.19.01,8.91-.07,9.46-.06,0,0,2.05-.01,2.05-.01l-.04,1.99c-.18,12.42-.55,25.93-1.01,38.3,0,0-.03.99-.03.99-5.69-.14-11.39-.37-17.08-.64,0,0,0-.4,0-.4,2.69-.19,5.38-.35,8.07-.49,2.69-.14,5.38-.32,8.07-.43l-.96.97c-.46-12.36-.83-25.89-1.01-38.3,0,0,2.01,1.98,2.01,1.98,0,0-8.36.24-8.36.24l1.71-.96-1.01,1.62.16-.31c-3.37,8.42-8.03,18.97-11.41,27.38,0,.01-.02.1.01-.09.03-.16.03-.24.01-.53-.08-.3.08-.03-.26-.77-.86-1.29-2.29-.99-2.27-.91-.63.22-.72.38-.94.61-.1.13-.07.1-.08.11.24-.4.57-.76,1-.95,1.8-.83,3.64,2.44,2.8,1.57.04.19,0,.55-.01.59-.13.63-.63,1.62-.85,2.2-1.99,4.25-3.06,8.78-2.94,13.49,0,0-1.79-1.73-1.79-1.73,4.52.07,9.05.15,13.57.28,6.76.21,20.38.61,27.15.78,3.37.06,10.2.13,13.57.14,0,0-.6.56-.6.56.59-6.13-1.09-12.03-3.4-17.65-2.8-7.28-5.57-14.94-9.33-21.74-.2-.45-.26-.76-.33-1.03-.41-1.84-1.17-2.63-2.63-3.02,0,0,.48.06.48.06,0,0-8.22.17-8.22.17l1.76-1.79-.08,9.5c-.1,9.5-.31,19-.67,28.5,0,0-1.05-1.05-1.05-1.05,5.62.21,11.25.46,16.87.85v.4h0Z"/>
    <polygon class="cls-13" points="364.54 145.71 378.85 147.71 364.54 149.71 364.54 145.71 364.54 145.71"/>
    <polygon class="cls-13" points="356.73 149.71 342.75 147.71 356.73 145.71 356.73 149.71 356.73 149.71"/>
    <path class="cls-13" d="M360.88,104.96c-.38,4.02-6.07,2.14-5.92-1.22.18-2.04,1.89-3.36,3.57-4.05,2.32-.88,4.95-.15,6.75,1.45,1.9,1.52,2.76,4.57,1.74,6.82-4.31,9.21-17.4,4.35-16.89-4.99.29-7.07,7.52-11.16,14.03-9.24,6.52,1.57,10.76,9.44,7.49,15.55-1.21,2.31-3.07,4.64-5.81,5.11-.56.04-.9-.11-1.32-.11-.71,0-.78,1.06-.79,1.69,0,0-.39.07-.39.07-.27-.7-.48-1.62,0-2.37.18-.29.49-.53.8-.65.62-.26,1.28-.19,1.4-.31,2.79-1.7,4.14-5.95,3.31-8.99-1.56-5.74-9.66-8.73-14.15-4.43-2.27,2.1-3.55,5.82-1.78,8.69,1.55,2.84,5.73,4.52,8.43,2.44,1.71-1.28,2.99-3.25,2.46-5.21-.51-1.65-2.7-2.99-4.32-2.57-.8.2-1.76.64-2.1,1.33-.08.11-.08.32.03.59.35.77,1.37,1.69,2.26,1.16.3-.19.59-.52.81-.9l.38.11h0Z"/>
  </g>
  <g class="cls-10">
    <path class="cls-13" d="M472.41,154.7c-5.96.41-11.92.66-17.88.88-.26-6.69-.45-13.39-.56-20.08-.13-6.23-.19-14.49-.24-20.77,1.15-.02,8.68-.13,9.99-.15,0,0,.24,0,.24,0,0,0,.24.06.24.06,2.92.65,4.72,3.42,5.09,6.13,2.58,5.31,4.37,11.04,6.18,16.63,0,0,3.58,11.79,3.58,11.79,1.16,4.23,1.48,8.62,1.1,12.96,0,0-.56,0-.56,0-12.42,0-28.25.53-40.72.91-5.09.14-10.19.23-15.28.3-.35-4.73.1-9.55,1.71-14.05.52-1.51,1.18-2.94,1.72-4.39,0,0-.02.07-.02.07l-.03.14s-.05.39-.01.57c-.84-.88.99,2.39,2.79,1.56.23-.1.45-.26.62-.44.05-.05.11-.13.15-.18.08-.11-.09.14-.08.13-.3.4-.44.65-1.18.92,0,.08-1.43.38-2.29-.91-.34-.74-.18-.49-.26-.79-.02-.32-.01-.39.02-.6.66-2.27,1.61-4.31,2.41-6.44,2.81-7.09,6.04-14.76,9.07-21.78.17-.42,1-1.55,1.21-1.92,0,0,.62-.95.62-.95.19.01,8.91-.07,9.46-.06,0,0,2.05-.01,2.05-.01l-.04,1.99c-.18,12.42-.55,25.93-1.01,38.3,0,0-.03.99-.03.99-5.69-.14-11.39-.37-17.08-.64,0,0,0-.4,0-.4,2.69-.19,5.38-.35,8.07-.49,2.69-.14,5.38-.32,8.07-.43l-.96.97c-.46-12.36-.83-25.89-1.01-38.3,0,0,2.01,1.98,2.01,1.98l-8.36.24s1.71-.96,1.71-.96c0,0-1.01,1.62-1.01,1.62l.16-.31c-3.37,8.42-8.03,18.97-11.41,27.38,0,.01-.02.1.01-.09.03-.16.03-.24.01-.53-.08-.3.08-.03-.26-.77-.86-1.29-2.29-.99-2.27-.91-.63.22-.72.38-.94.61-.1.13-.07.1-.08.11.24-.4.57-.76,1-.95,1.8-.83,3.64,2.44,2.8,1.57.04.19,0,.55-.01.59-.13.63-.63,1.62-.85,2.2-1.99,4.25-3.06,8.78-2.94,13.49,0,0-1.79-1.73-1.79-1.73,4.52.07,9.05.15,13.57.28,6.76.21,20.38.62,27.15.78,3.37.06,10.2.13,13.57.14,0,0-.6.56-.6.56.59-6.13-1.09-12.03-3.4-17.65-2.8-7.28-5.57-14.94-9.33-21.74-.2-.45-.26-.76-.33-1.03-.41-1.84-1.17-2.63-2.63-3.02,0,0,.48.06.48.06l-8.22.17,1.76-1.79-.08,9.5c-.1,9.5-.31,19-.67,28.5,0,0-1.05-1.05-1.05-1.05,5.62.21,11.25.46,16.87.85,0,0,0,.4,0,.4h0Z"/>
    <polygon class="cls-13" points="456.53 146.19 470.84 148.19 456.53 150.19 456.53 146.19 456.53 146.19"/>
    <polygon class="cls-13" points="448.72 150.19 434.74 148.19 448.72 146.19 448.72 150.19 448.72 150.19"/>
    <path class="cls-13" d="M452.87,105.44c-.38,4.02-6.07,2.14-5.92-1.22.18-2.04,1.89-3.36,3.57-4.05,2.32-.88,4.95-.15,6.75,1.45,1.9,1.52,2.76,4.57,1.74,6.82-4.31,9.21-17.4,4.35-16.89-4.99.29-7.07,7.52-11.16,14.03-9.24,6.52,1.57,10.76,9.44,7.49,15.55-1.21,2.31-3.07,4.64-5.81,5.11-.56.04-.9-.11-1.32-.11-.71,0-.78,1.06-.79,1.69,0,0-.39.07-.39.07-.27-.71-.48-1.62,0-2.37.18-.29.49-.53.8-.65.62-.26,1.28-.18,1.4-.31,2.79-1.7,4.14-5.95,3.31-8.99-1.56-5.74-9.66-8.73-14.15-4.43-2.27,2.1-3.55,5.82-1.78,8.69,1.55,2.84,5.73,4.52,8.43,2.44,1.71-1.28,2.99-3.25,2.46-5.21-.51-1.65-2.7-2.99-4.32-2.57-.8.2-1.76.64-2.1,1.33-.08.11-.08.32.03.59.35.77,1.37,1.69,2.26,1.16.3-.19.59-.52.81-.9l.38.11h0Z"/>
  </g>
  <g class="cls-9">
    <path class="cls-13" d="M111.05,154.7c-5.96.41-11.92.66-17.88.88-.26-6.69-.45-13.39-.56-20.08-.13-6.23-.19-14.49-.24-20.77,1.15-.02,8.68-.13,9.99-.15,0,0,.24,0,.24,0,0,0,.24.06.24.06,2.92.65,4.72,3.42,5.09,6.13,2.58,5.31,4.37,11.04,6.18,16.63,0,0,3.58,11.79,3.58,11.79,1.16,4.23,1.48,8.62,1.1,12.96,0,0-.56,0-.56,0-12.42,0-28.25.53-40.72.91-5.09.14-10.19.23-15.28.3-.35-4.73.1-9.55,1.71-14.05.52-1.51,1.18-2.94,1.72-4.39,0,0-.02.07-.02.07l-.03.14s-.05.39-.01.57c-.84-.88.99,2.39,2.79,1.56.23-.1.45-.26.62-.44.05-.05.11-.13.15-.18.08-.11-.09.14-.08.13-.3.4-.44.65-1.18.92,0,.08-1.43.38-2.29-.91-.34-.74-.18-.49-.26-.79-.02-.32-.01-.39.02-.6.66-2.27,1.61-4.31,2.41-6.44,2.81-7.09,6.04-14.76,9.07-21.78.17-.42,1-1.55,1.21-1.92,0,0,.62-.95.62-.95.19.01,8.91-.07,9.46-.06,0,0,2.05-.01,2.05-.01l-.04,1.99c-.18,12.42-.55,25.93-1.01,38.3,0,0-.03.99-.03.99-5.69-.14-11.39-.37-17.08-.64,0,0,0-.4,0-.4,2.69-.19,5.38-.35,8.07-.49,2.69-.14,5.38-.32,8.07-.43l-.96.97c-.46-12.36-.83-25.89-1.01-38.3,0,0,2.01,1.98,2.01,1.98,0,0-8.36.24-8.36.24l1.71-.96-1.01,1.62.16-.31c-3.37,8.42-8.03,18.97-11.41,27.38,0,.01-.02.1.01-.09.03-.16.03-.24.01-.53-.08-.3.08-.03-.26-.77-.86-1.29-2.29-.99-2.27-.91-.63.22-.72.38-.94.61-.1.13-.07.1-.08.11.24-.4.57-.76,1-.95,1.8-.83,3.64,2.44,2.8,1.57.04.19,0,.55-.01.59-.13.63-.63,1.62-.85,2.2-1.99,4.25-3.06,8.78-2.94,13.49,0,0-1.79-1.73-1.79-1.73,4.52.07,9.05.15,13.57.28,6.76.21,20.38.62,27.15.78,3.37.06,10.2.13,13.57.14,0,0-.6.56-.6.56.59-6.13-1.09-12.03-3.4-17.65-2.8-7.28-5.57-14.94-9.33-21.74-.2-.45-.26-.76-.33-1.03-.41-1.84-1.17-2.63-2.63-3.02,0,0,.48.06.48.06,0,0-8.22.17-8.22.17l1.76-1.79-.08,9.5c-.1,9.5-.31,19-.67,28.5,0,0-1.05-1.05-1.05-1.05,5.62.21,11.25.46,16.87.85v.4h0Z"/>
    <polygon class="cls-13" points="95.16 146.19 109.47 148.19 95.16 150.19 95.16 146.19 95.16 146.19"/>
    <polygon class="cls-13" points="87.35 150.19 73.37 148.19 87.35 146.19 87.35 150.19 87.35 150.19"/>
    <path class="cls-13" d="M91.5,105.44c-.38,4.02-6.07,2.14-5.92-1.22.18-2.04,1.89-3.36,3.57-4.05,2.32-.88,4.95-.15,6.75,1.45,1.9,1.52,2.76,4.57,1.74,6.82-4.31,9.21-17.4,4.35-16.89-4.99.29-7.07,7.52-11.16,14.03-9.24,6.52,1.57,10.76,9.44,7.49,15.55-1.21,2.31-3.07,4.64-5.81,5.11-.56.04-.9-.11-1.32-.11-.71,0-.78,1.06-.79,1.69,0,0-.39.07-.39.07-.27-.71-.48-1.62,0-2.37.18-.29.49-.53.8-.65.62-.26,1.28-.18,1.4-.31,2.79-1.7,4.14-5.95,3.31-8.99-1.56-5.74-9.66-8.73-14.15-4.43-2.27,2.1-3.55,5.82-1.78,8.69,1.55,2.84,5.73,4.52,8.43,2.44,1.71-1.28,2.99-3.25,2.46-5.21-.51-1.65-2.7-2.99-4.32-2.57-.8.2-1.76.64-2.1,1.33-.08.11-.08.32.03.59.35.77,1.37,1.69,2.26,1.16.3-.19.59-.52.81-.9l.38.11h0Z"/>
  </g>
  <g class="cls-16">
    <path class="cls-13" d="M22,154.7c-5.96.41-11.92.66-17.88.88-.26-6.69-.45-13.39-.56-20.08-.13-6.23-.19-14.49-.24-20.77,1.15-.02,8.68-.13,9.99-.15,0,0,.24,0,.24,0,0,0,.24.06.24.06,2.92.65,4.72,3.42,5.09,6.13,2.58,5.31,4.37,11.04,6.18,16.63,0,0,3.58,11.79,3.58,11.79,1.16,4.23,1.48,8.62,1.1,12.96,0,0-.56,0-.56,0-12.42,0-28.25.53-40.72.91-5.09.14-10.19.23-15.28.3-.35-4.73.1-9.55,1.71-14.05.52-1.51,1.18-2.94,1.72-4.39,0,0-.02.07-.02.07l-.03.14s-.05.39-.01.57c-.84-.88.99,2.39,2.79,1.56.23-.1.45-.26.62-.44.05-.05.11-.13.15-.18.08-.11-.09.14-.08.13-.3.4-.44.65-1.18.92,0,.08-1.43.38-2.29-.91-.34-.74-.18-.49-.26-.79-.02-.32-.01-.39.02-.6.66-2.27,1.61-4.31,2.41-6.44,2.81-7.09,6.04-14.76,9.07-21.78.17-.42,1-1.55,1.21-1.92,0,0,.62-.95.62-.95.19.01,8.91-.07,9.46-.06,0,0,2.05-.01,2.05-.01l-.04,1.99c-.18,12.42-.55,25.93-1.01,38.3,0,0-.03.99-.03.99-5.69-.14-11.39-.37-17.08-.64,0,0,0-.4,0-.4,2.69-.19,5.38-.35,8.07-.49,2.69-.14,5.38-.32,8.07-.43,0,0-.96.97-.96.97-.46-12.36-.83-25.89-1.01-38.3,0,0,2.01,1.98,2.01,1.98l-8.36.24,1.71-.96-1.01,1.62s.16-.31.16-.31c-3.37,8.42-8.03,18.97-11.41,27.38,0,.01-.02.1.01-.09.03-.16.03-.24.01-.53-.08-.3.08-.03-.26-.77-.86-1.29-2.29-.99-2.27-.91-.63.22-.72.38-.94.61-.1.13-.07.1-.08.11.24-.4.57-.76,1-.95,1.8-.83,3.64,2.44,2.8,1.57.04.19,0,.55-.01.59-.13.63-.63,1.62-.85,2.2-1.99,4.25-3.06,8.78-2.94,13.49,0,0-1.79-1.73-1.79-1.73,4.52.07,9.05.15,13.57.28,6.76.21,20.38.62,27.15.78,3.37.06,10.2.13,13.57.14,0,0-.6.56-.6.56.59-6.13-1.09-12.03-3.4-17.65-2.8-7.28-5.57-14.94-9.33-21.74-.2-.45-.26-.76-.33-1.03-.41-1.84-1.17-2.63-2.63-3.02l.48.06-8.22.17,1.76-1.79-.08,9.5c-.1,9.5-.31,19-.67,28.5,0,0-1.05-1.05-1.05-1.05,5.62.21,11.25.46,16.87.85v.4h0Z"/>
    <polygon class="cls-13" points="6.12 146.19 20.43 148.19 6.12 150.19 6.12 146.19 6.12 146.19"/>
    <path class="cls-13" d="M2.46,105.44c-.38,4.02-6.07,2.14-5.92-1.22.18-2.04,1.89-3.36,3.57-4.05,2.32-.88,4.95-.15,6.75,1.45,1.9,1.52,2.76,4.57,1.74,6.82-4.31,9.21-17.4,4.35-16.89-4.99.29-7.07,7.52-11.16,14.03-9.24,6.52,1.57,10.76,9.44,7.49,15.55-1.21,2.31-3.07,4.64-5.81,5.11-.56.04-.9-.11-1.32-.11-.71,0-.78,1.06-.79,1.69,0,0-.39.07-.39.07-.27-.71-.48-1.62,0-2.37.18-.29.49-.53.8-.65.62-.26,1.28-.18,1.4-.31,2.79-1.7,4.14-5.95,3.31-8.99-1.56-5.74-9.66-8.73-14.15-4.43-2.27,2.1-3.55,5.82-1.78,8.69,1.55,2.84,5.73,4.52,8.43,2.44,1.71-1.28,2.99-3.25,2.46-5.21-.51-1.65-2.7-2.99-4.32-2.57-.8.2-1.76.64-2.1,1.33-.08.11-.08.32.03.59.35.77,1.37,1.69,2.26,1.16.3-.19.59-.52.81-.9l.38.11h0Z"/>
  </g>
  <g class="cls-21">
    <path class="cls-13" d="M244.29,246.75c-5.96.41-11.92.66-17.88.88-.26-6.69-.45-13.39-.56-20.08-.13-6.23-.19-14.49-.24-20.77,1.15-.02,8.68-.13,9.99-.15,0,0,.24,0,.24,0,0,0,.24.06.24.06,2.92.65,4.72,3.42,5.09,6.13,2.58,5.31,4.37,11.04,6.18,16.63,0,0,3.58,11.79,3.58,11.79,1.16,4.23,1.48,8.62,1.1,12.96,0,0-.56,0-.56,0-12.42,0-28.25.53-40.72.91-5.09.14-10.19.23-15.28.3-.35-4.73.1-9.55,1.71-14.05.52-1.51,1.18-2.94,1.72-4.39,0,0-.02.07-.02.07l-.03.14s-.05.39-.01.57c-.84-.88.99,2.39,2.79,1.56.23-.1.45-.26.62-.44.05-.05.11-.13.15-.18.08-.11-.09.14-.08.13-.3.4-.44.65-1.18.92,0,.08-1.43.38-2.29-.91-.34-.74-.18-.49-.26-.79-.02-.32-.01-.39.02-.6.66-2.27,1.61-4.31,2.41-6.44,2.81-7.09,6.04-14.76,9.07-21.78.17-.42,1-1.55,1.21-1.92,0,0,.62-.95.62-.95.19.01,8.91-.07,9.46-.06,0,0,2.05-.01,2.05-.01l-.04,1.99c-.18,12.42-.55,25.93-1.01,38.3,0,0-.03.99-.03.99-5.69-.14-11.39-.37-17.08-.64,0,0,0-.4,0-.4,2.69-.19,5.38-.35,8.07-.49,2.69-.14,5.38-.32,8.07-.43l-.96.97c-.46-12.36-.83-25.89-1.01-38.3,0,0,2.01,1.98,2.01,1.98,0,0-8.36.24-8.36.24l1.71-.96-1.01,1.62.16-.31c-3.37,8.42-8.03,18.97-11.41,27.38,0,.01-.02.1.01-.09.03-.16.03-.24.01-.53-.08-.3.08-.03-.26-.77-.86-1.29-2.29-.99-2.27-.91-.63.22-.72.38-.94.61-.1.13-.07.1-.08.11.24-.4.57-.76,1-.95,1.8-.83,3.64,2.44,2.8,1.57.04.19,0,.55-.01.59-.13.63-.63,1.62-.85,2.2-1.99,4.25-3.06,8.78-2.94,13.49,0,0-1.79-1.73-1.79-1.73,4.52.07,9.05.15,13.57.28,6.76.21,20.38.62,27.15.78,3.37.06,10.2.13,13.57.14,0,0-.6.56-.6.56.59-6.13-1.09-12.03-3.4-17.65-2.8-7.28-5.57-14.94-9.33-21.74-.2-.45-.26-.76-.33-1.03-.41-1.84-1.17-2.63-2.63-3.02,0,0,.48.06.48.06l-8.22.17s1.76-1.79,1.76-1.79l-.08,9.5c-.1,9.5-.31,19-.67,28.5,0,0-1.05-1.05-1.05-1.05,5.62.21,11.25.46,16.87.85,0,0,0,.4,0,.4h0Z"/>
    <polygon class="cls-13" points="228.41 238.24 242.71 240.24 228.41 242.24 228.41 238.24 228.41 238.24"/>
    <polygon class="cls-13" points="220.59 242.24 206.62 240.24 220.59 238.24 220.59 242.24 220.59 242.24"/>
    <path class="cls-13" d="M224.75,197.49c-.38,4.02-6.07,2.14-5.92-1.22.18-2.04,1.89-3.36,3.57-4.05,2.32-.88,4.95-.15,6.75,1.45,1.9,1.52,2.76,4.57,1.74,6.82-4.31,9.21-17.4,4.35-16.89-4.99.29-7.07,7.52-11.16,14.03-9.24,6.52,1.57,10.76,9.44,7.49,15.55-1.21,2.31-3.07,4.64-5.81,5.11-.56.04-.9-.11-1.32-.11-.71,0-.78,1.06-.79,1.69,0,0-.39.07-.39.07-.27-.7-.48-1.62,0-2.37.18-.29.49-.53.8-.65.62-.26,1.28-.18,1.4-.31,2.79-1.7,4.14-5.95,3.31-8.99-1.56-5.74-9.66-8.73-14.15-4.43-2.27,2.1-3.55,5.82-1.78,8.69,1.55,2.84,5.73,4.52,8.43,2.44,1.71-1.28,2.99-3.25,2.46-5.21-.51-1.65-2.7-2.99-4.32-2.57-.8.2-1.76.64-2.1,1.33-.08.11-.08.32.03.59.35.77,1.37,1.69,2.26,1.16.3-.19.59-.52.81-.9l.38.11h0Z"/>
  </g>
  <g class="cls-24">
    <path class="cls-13" d="M333.27,246.75c-5.96.41-11.92.66-17.88.88-.26-6.69-.45-13.39-.56-20.08-.13-6.23-.19-14.49-.24-20.77,1.15-.02,8.68-.13,9.99-.15,0,0,.24,0,.24,0,0,0,.24.06.24.06,2.92.65,4.72,3.42,5.09,6.13,2.58,5.31,4.37,11.04,6.18,16.63,0,0,3.58,11.79,3.58,11.79,1.16,4.23,1.48,8.62,1.1,12.96,0,0-.56,0-.56,0-12.42,0-28.25.53-40.72.91-5.09.14-10.19.23-15.28.3-.35-4.73.1-9.55,1.71-14.05.52-1.51,1.18-2.94,1.72-4.39,0,0-.02.07-.02.07l-.03.14s-.05.39-.01.57c-.84-.88.99,2.39,2.79,1.56.23-.1.45-.26.62-.44.05-.05.11-.13.15-.18.08-.11-.09.14-.08.13-.3.4-.44.65-1.18.92,0,.08-1.43.38-2.29-.91-.34-.74-.18-.49-.26-.79-.02-.32-.01-.39.02-.6.66-2.27,1.61-4.31,2.41-6.44,2.81-7.09,6.04-14.76,9.07-21.78.17-.42,1-1.55,1.21-1.92,0,0,.62-.95.62-.95.19.01,8.91-.07,9.46-.06,0,0,2.05-.01,2.05-.01,0,0-.04,1.99-.04,1.99-.18,12.42-.55,25.93-1.01,38.3,0,0-.03.99-.03.99-5.69-.14-11.39-.37-17.08-.64,0,0,0-.4,0-.4,2.69-.19,5.38-.35,8.07-.49,2.69-.14,5.38-.32,8.07-.43l-.96.97c-.46-12.36-.83-25.89-1.01-38.3,0,0,2.01,1.98,2.01,1.98s-8.36.24-8.36.24c0,0,1.71-.96,1.71-.96l-1.01,1.62.16-.31c-3.37,8.42-8.03,18.97-11.41,27.38,0,.01-.02.1.01-.09.03-.16.03-.24.01-.53-.08-.3.08-.03-.26-.77-.86-1.29-2.29-.99-2.27-.91-.63.22-.72.38-.94.61-.1.13-.07.1-.08.11.24-.4.57-.76,1-.95,1.8-.83,3.64,2.44,2.8,1.57.04.19,0,.55-.01.59-.13.63-.63,1.62-.85,2.2-1.99,4.25-3.06,8.78-2.94,13.49,0,0-1.79-1.73-1.79-1.73,4.52.07,9.05.15,13.57.28,6.76.21,20.38.62,27.15.78,3.37.06,10.2.13,13.57.14,0,0-.6.56-.6.56.59-6.13-1.09-12.03-3.4-17.65-2.8-7.28-5.57-14.94-9.33-21.74-.2-.45-.26-.76-.33-1.03-.41-1.84-1.17-2.63-2.63-3.02,0,0,.48.06.48.06l-8.22.17,1.76-1.79-.08,9.5c-.1,9.5-.31,19-.67,28.5,0,0-1.05-1.05-1.05-1.05,5.62.21,11.25.46,16.87.85,0,0,0,.4,0,.4h0Z"/>
    <polygon class="cls-13" points="317.38 238.24 331.69 240.24 317.38 242.24 317.38 238.24 317.38 238.24"/>
    <polygon class="cls-13" points="309.57 242.24 295.59 240.24 309.57 238.24 309.57 242.24 309.57 242.24"/>
    <path class="cls-13" d="M313.72,197.49c-.38,4.02-6.07,2.14-5.92-1.22.18-2.04,1.89-3.36,3.57-4.05,2.32-.88,4.95-.15,6.75,1.45,1.9,1.52,2.76,4.57,1.74,6.82-4.31,9.21-17.4,4.35-16.89-4.99.29-7.07,7.52-11.16,14.03-9.24,6.52,1.57,10.76,9.44,7.49,15.55-1.21,2.31-3.07,4.64-5.81,5.11-.56.04-.9-.11-1.32-.11-.71,0-.78,1.06-.79,1.69,0,0-.39.07-.39.07-.27-.7-.48-1.62,0-2.37.18-.29.49-.53.8-.65.62-.26,1.28-.18,1.4-.31,2.79-1.7,4.14-5.95,3.31-8.99-1.56-5.74-9.66-8.73-14.15-4.43-2.27,2.1-3.55,5.82-1.78,8.69,1.55,2.84,5.73,4.52,8.43,2.44,1.71-1.28,2.99-3.25,2.46-5.21-.51-1.65-2.7-2.99-4.32-2.57-.8.2-1.76.64-2.1,1.33-.08.11-.08.32.03.59.35.77,1.37,1.69,2.26,1.16.3-.19.59-.52.81-.9l.38.11h0Z"/>
  </g>
  <g class="cls-8">
    <path class="cls-13" d="M423.45,246.26c-5.96.41-11.92.66-17.88.88-.26-6.69-.45-13.39-.56-20.08-.13-6.23-.19-14.49-.24-20.77,1.15-.02,8.68-.13,9.99-.15,0,0,.24,0,.24,0l.24.06c2.92.65,4.72,3.42,5.09,6.13,2.58,5.31,4.37,11.04,6.18,16.63,0,0,3.58,11.79,3.58,11.79,1.16,4.23,1.48,8.62,1.1,12.96,0,0-.56,0-.56,0-12.42,0-28.25.53-40.72.91-5.09.14-10.19.23-15.28.3-.35-4.73.1-9.55,1.71-14.05.52-1.51,1.18-2.94,1.72-4.39,0,0-.02.07-.02.07l-.03.14s-.05.39-.01.57c-.84-.88.99,2.39,2.79,1.56.3-.13.58-.36.77-.62.08-.11-.09.14-.08.13-.3.4-.44.65-1.18.92,0,.08-1.43.38-2.29-.91-.34-.74-.18-.49-.26-.79-.02-.32-.01-.39.02-.6.66-2.27,1.61-4.31,2.41-6.44,2.81-7.09,6.04-14.76,9.07-21.78.17-.42,1-1.55,1.21-1.92,0,0,.62-.95.62-.95.19.01,8.91-.07,9.46-.06,0,0,2.05-.01,2.05-.01,0,0-.04,1.99-.04,1.99-.18,12.42-.55,25.93-1.01,38.3,0,0-.03.99-.03.99-5.69-.14-11.39-.37-17.08-.64,0,0,0-.4,0-.4,2.69-.19,5.38-.35,8.07-.49,2.69-.14,5.38-.32,8.07-.43l-.96.97c-.46-12.36-.83-25.89-1.01-38.3,0,0,2.01,1.98,2.01,1.98l-8.36.24,1.71-.96-1.01,1.62.16-.31c-3.37,8.42-8.03,18.97-11.41,27.38,0,.01-.02.1.01-.09.03-.16.03-.24.01-.53-.08-.3.08-.03-.26-.77-.86-1.29-2.29-.99-2.27-.91-.63.22-.72.38-.94.61-.1.13-.07.1-.08.11.24-.4.57-.76,1-.95,1.8-.83,3.64,2.44,2.8,1.57.04.19,0,.55-.01.59-.13.63-.63,1.62-.85,2.2-1.99,4.25-3.06,8.78-2.94,13.49,0,0-1.79-1.73-1.79-1.73,4.52.07,9.05.15,13.57.28,6.76.21,20.38.61,27.15.78,3.37.06,10.2.13,13.57.14,0,0-.6.56-.6.56.59-6.13-1.09-12.03-3.4-17.65-2.8-7.28-5.57-14.94-9.33-21.74-.2-.45-.26-.76-.33-1.03-.41-1.84-1.17-2.63-2.63-3.02,0,0,.48.06.48.06l-8.22.17,1.76-1.79-.08,9.5c-.1,9.5-.31,19-.67,28.5,0,0-1.05-1.05-1.05-1.05,5.62.21,11.25.46,16.87.85v.4h0Z"/>
    <polygon class="cls-13" points="407.57 237.75 421.87 239.75 407.57 241.75 407.57 237.75 407.57 237.75"/>
    <polygon class="cls-13" points="399.76 241.75 385.78 239.75 399.76 237.75 399.76 241.75 399.76 241.75"/>
    <path class="cls-13" d="M403.91,197c-.38,4.02-6.07,2.14-5.92-1.22.18-2.04,1.89-3.36,3.57-4.05,2.32-.88,4.95-.15,6.75,1.45,1.9,1.52,2.76,4.57,1.74,6.82-4.31,9.21-17.4,4.35-16.89-4.99.29-7.07,7.52-11.16,14.03-9.24,6.52,1.57,10.76,9.44,7.49,15.55-1.21,2.31-3.07,4.64-5.81,5.11-.56.04-.9-.11-1.32-.11-.71,0-.78,1.06-.79,1.69,0,0-.39.07-.39.07-.27-.7-.48-1.62,0-2.37.18-.29.49-.53.8-.65.62-.26,1.28-.19,1.4-.31,2.79-1.7,4.14-5.95,3.31-8.99-1.56-5.74-9.66-8.73-14.15-4.43-2.27,2.1-3.55,5.82-1.78,8.69,1.55,2.84,5.73,4.52,8.43,2.44,1.71-1.28,2.99-3.25,2.46-5.21-.51-1.65-2.7-2.99-4.32-2.57-.8.2-1.76.64-2.1,1.33-.08.11-.08.32.03.59.35.77,1.37,1.69,2.26,1.16.3-.19.59-.52.81-.9l.38.11h0Z"/>
  </g>
  <g class="cls-19">
    <path class="cls-13" d="M515.44,246.75c-5.96.41-11.92.66-17.88.88-.26-6.69-.45-13.39-.56-20.08-.13-6.23-.19-14.49-.24-20.77,1.15-.02,8.68-.13,9.99-.15,0,0,.24,0,.24,0l.24.06c2.92.65,4.72,3.42,5.09,6.13,2.58,5.31,4.37,11.04,6.18,16.63,0,0,3.58,11.79,3.58,11.79,1.16,4.23,1.48,8.62,1.1,12.96,0,0-.56,0-.56,0-12.42,0-28.25.53-40.72.91-5.09.14-10.19.23-15.28.3-.35-4.73.1-9.55,1.71-14.05.52-1.51,1.18-2.94,1.72-4.39,0,0-.02.07-.02.07,0,0-.03.14-.03.14-.01.03-.05.39-.01.57-.84-.88.99,2.39,2.79,1.56.23-.1.45-.26.62-.44.05-.05.11-.13.15-.18.08-.11-.09.14-.08.13-.3.4-.44.65-1.18.92,0,.08-1.43.38-2.29-.91-.34-.74-.18-.49-.26-.79-.02-.32-.01-.39.02-.6.66-2.27,1.61-4.31,2.41-6.44,2.81-7.09,6.04-14.76,9.07-21.78.17-.42,1-1.55,1.21-1.92,0,0,.62-.95.62-.95.19.01,8.91-.07,9.46-.06,0,0,2.05-.01,2.05-.01l-.04,1.99c-.18,12.42-.55,25.93-1.01,38.3,0,0-.03.99-.03.99-5.69-.14-11.39-.37-17.08-.64,0,0,0-.4,0-.4,2.69-.19,5.38-.35,8.07-.49,2.69-.14,5.38-.32,8.07-.43l-.96.97c-.46-12.36-.83-25.89-1.01-38.3,0,0,2.01,1.98,2.01,1.98l-8.36.24s1.71-.96,1.71-.96l-1.01,1.62.16-.31c-3.37,8.42-8.03,18.97-11.41,27.38,0,.01-.02.1.01-.09.03-.16.03-.24.01-.53-.08-.3.08-.03-.26-.77-.86-1.29-2.29-.99-2.27-.91-.63.22-.72.38-.94.61-.1.13-.07.1-.08.11.24-.4.57-.76,1-.95,1.8-.83,3.64,2.44,2.8,1.57.04.19,0,.55-.01.59-.13.63-.63,1.62-.85,2.2-1.99,4.25-3.06,8.78-2.94,13.49,0,0-1.79-1.73-1.79-1.73,4.52.07,9.05.15,13.57.28,6.76.21,20.38.62,27.15.78,3.37.06,10.2.13,13.57.14,0,0-.6.56-.6.56.59-6.13-1.09-12.03-3.4-17.65-2.8-7.28-5.57-14.94-9.33-21.74-.2-.45-.26-.76-.33-1.03-.41-1.84-1.17-2.63-2.63-3.02l.48.06-8.22.17s1.76-1.79,1.76-1.79l-.08,9.5c-.1,9.5-.31,19-.67,28.5,0,0-1.05-1.05-1.05-1.05,5.62.21,11.25.46,16.87.85,0,0,0,.4,0,.4h0Z"/>
    <polygon class="cls-13" points="499.56 238.24 513.86 240.24 499.56 242.24 499.56 238.24 499.56 238.24"/>
    <polygon class="cls-13" points="491.75 242.24 477.77 240.24 491.75 238.24 491.75 242.24 491.75 242.24"/>
    <path class="cls-13" d="M495.9,197.49c-.38,4.02-6.07,2.14-5.92-1.22.18-2.04,1.89-3.36,3.57-4.05,2.32-.88,4.95-.15,6.75,1.45,1.9,1.52,2.76,4.57,1.74,6.82-4.31,9.21-17.4,4.35-16.89-4.99.29-7.07,7.52-11.16,14.03-9.24,6.52,1.57,10.76,9.44,7.49,15.55-1.21,2.31-3.07,4.64-5.81,5.11-.56.04-.9-.11-1.32-.11-.71,0-.78,1.06-.79,1.69,0,0-.39.07-.39.07-.27-.7-.48-1.62,0-2.37.18-.29.49-.53.8-.65.62-.26,1.28-.18,1.4-.31,2.79-1.7,4.14-5.95,3.31-8.99-1.56-5.74-9.66-8.73-14.15-4.43-2.27,2.1-3.55,5.82-1.78,8.69,1.55,2.84,5.73,4.52,8.43,2.44,1.71-1.28,2.99-3.25,2.46-5.21-.51-1.65-2.7-2.99-4.32-2.57-.8.2-1.76.64-2.1,1.33-.08.11-.08.32.03.59.35.77,1.37,1.69,2.26,1.16.3-.19.59-.52.81-.9l.38.11h0Z"/>
  </g>
  <g class="cls-18">
    <path class="cls-13" d="M154.08,246.75c-5.96.41-11.92.66-17.88.88-.26-6.69-.45-13.39-.56-20.08-.13-6.23-.19-14.49-.24-20.77,1.15-.02,8.68-.13,9.99-.15,0,0,.24,0,.24,0l.24.06c2.92.65,4.72,3.42,5.09,6.13,2.58,5.31,4.37,11.04,6.18,16.63,0,0,3.58,11.79,3.58,11.79,1.16,4.23,1.48,8.62,1.1,12.96,0,0-.56,0-.56,0-12.42,0-28.25.53-40.72.91-5.09.14-10.19.23-15.28.3-.35-4.73.1-9.55,1.71-14.05.52-1.51,1.18-2.94,1.72-4.39,0,0-.02.07-.02.07,0,0-.03.14-.03.14-.01.03-.05.39-.01.57-.84-.88.99,2.39,2.79,1.56.23-.1.45-.26.62-.44.05-.05.11-.13.15-.18.08-.11-.09.14-.08.13-.3.4-.44.65-1.18.92,0,.08-1.43.38-2.29-.91-.34-.74-.18-.49-.26-.79-.02-.32-.01-.39.02-.6.66-2.27,1.61-4.31,2.41-6.44,2.81-7.09,6.04-14.76,9.07-21.78.17-.42,1-1.55,1.21-1.92,0,0,.62-.95.62-.95.19.01,8.91-.07,9.46-.06,0,0,2.05-.01,2.05-.01l-.04,1.99c-.18,12.42-.55,25.93-1.01,38.3,0,0-.03.99-.03.99-5.69-.14-11.39-.37-17.08-.64,0,0,0-.4,0-.4,2.69-.19,5.38-.35,8.07-.49,2.69-.14,5.38-.32,8.07-.43l-.96.97c-.46-12.36-.83-25.89-1.01-38.3,0,0,2.01,1.98,2.01,1.98,0,0-8.36.24-8.36.24l1.71-.96-1.01,1.62.16-.31c-3.37,8.42-8.03,18.97-11.41,27.38,0,.01-.02.1.01-.09.03-.16.03-.24.01-.53-.08-.3.08-.03-.26-.77-.86-1.29-2.29-.99-2.27-.91-.63.22-.72.38-.94.61-.1.13-.07.1-.08.11.24-.4.57-.76,1-.95,1.8-.83,3.64,2.44,2.8,1.57.04.19,0,.55-.01.59-.13.63-.63,1.62-.85,2.2-1.99,4.25-3.06,8.78-2.94,13.49,0,0-1.79-1.73-1.79-1.73,4.52.07,9.05.15,13.57.28,6.76.21,20.38.62,27.15.78,3.37.06,10.2.13,13.57.14,0,0-.6.56-.6.56.59-6.13-1.09-12.03-3.4-17.65-2.8-7.28-5.57-14.94-9.33-21.74-.2-.45-.26-.76-.33-1.03-.41-1.84-1.17-2.63-2.63-3.02,0,0,.48.06.48.06,0,0-8.22.17-8.22.17l1.76-1.79-.08,9.5c-.1,9.5-.31,19-.67,28.5,0,0-1.05-1.05-1.05-1.05,5.62.21,11.25.46,16.87.85,0,0,0,.4,0,.4h0Z"/>
    <polygon class="cls-13" points="138.19 238.24 152.5 240.24 138.19 242.24 138.19 238.24 138.19 238.24"/>
    <polygon class="cls-13" points="130.38 242.24 116.4 240.24 130.38 238.24 130.38 242.24 130.38 242.24"/>
    <path class="cls-13" d="M134.53,197.49c-.38,4.02-6.07,2.14-5.92-1.22.18-2.04,1.89-3.36,3.57-4.05,2.32-.88,4.95-.15,6.75,1.45,1.9,1.52,2.76,4.57,1.74,6.82-4.31,9.21-17.4,4.35-16.89-4.99.29-7.07,7.52-11.16,14.03-9.24,6.52,1.57,10.76,9.44,7.49,15.55-1.21,2.31-3.07,4.64-5.81,5.11-.56.04-.9-.11-1.32-.11-.71,0-.78,1.06-.79,1.69,0,0-.39.07-.39.07-.27-.7-.48-1.62,0-2.37.18-.29.49-.53.8-.65.62-.26,1.28-.18,1.4-.31,2.79-1.7,4.14-5.95,3.31-8.99-1.56-5.74-9.66-8.73-14.15-4.43-2.27,2.1-3.55,5.82-1.78,8.69,1.55,2.84,5.73,4.52,8.43,2.44,1.71-1.28,2.99-3.25,2.46-5.21-.51-1.65-2.7-2.99-4.32-2.57-.8.2-1.76.64-2.1,1.33-.08.11-.08.32.03.59.35.77,1.37,1.69,2.26,1.16.3-.19.59-.52.81-.9l.38.11h0Z"/>
  </g>
  <g class="cls-22">
    <path class="cls-13" d="M65.03,246.75c-5.96.41-11.92.66-17.88.88-.26-6.69-.45-13.39-.56-20.08-.13-6.23-.19-14.49-.24-20.77,1.15-.02,8.68-.13,9.99-.15,0,0,.24,0,.24,0l.24.06c2.92.65,4.72,3.42,5.09,6.13,2.58,5.31,4.37,11.04,6.18,16.63,0,0,3.58,11.79,3.58,11.79,1.16,4.23,1.48,8.62,1.1,12.96,0,0-.56,0-.56,0-12.42,0-28.25.53-40.72.91-5.09.14-10.19.23-15.28.3-.35-4.73.1-9.55,1.71-14.05.52-1.51,1.18-2.94,1.72-4.39,0,0-.02.07-.02.07,0,0-.03.14-.03.14-.01.03-.05.39-.01.57-.84-.88.99,2.39,2.79,1.56.23-.1.45-.26.62-.44.05-.05.11-.13.15-.18.08-.11-.09.14-.08.13-.3.4-.44.65-1.18.92,0,.08-1.43.38-2.29-.91-.34-.74-.18-.49-.26-.79-.02-.32-.01-.39.02-.6.66-2.27,1.61-4.31,2.41-6.44,2.81-7.09,6.04-14.76,9.07-21.78.17-.42,1-1.55,1.21-1.92,0,0,.62-.95.62-.95.19.01,8.91-.07,9.46-.06,0,0,2.05-.01,2.05-.01l-.04,1.99c-.18,12.42-.55,25.93-1.01,38.3,0,0-.03.99-.03.99-5.69-.14-11.39-.37-17.08-.64,0,0,0-.4,0-.4,2.69-.19,5.38-.35,8.07-.49,2.69-.14,5.38-.32,8.07-.43l-.96.97c-.46-12.36-.83-25.89-1.01-38.3,0,0,2.01,1.98,2.01,1.98l-8.36.24s1.71-.96,1.71-.96l-1.01,1.62.16-.31c-3.37,8.42-8.03,18.97-11.41,27.38,0,.01-.02.1.01-.09.03-.16.03-.24.01-.53-.08-.3.08-.03-.26-.77-.86-1.29-2.29-.99-2.27-.91-.63.22-.72.38-.94.61-.1.13-.07.1-.08.11.24-.4.57-.76,1-.95,1.8-.83,3.64,2.44,2.8,1.57.04.19,0,.55-.01.59-.13.63-.63,1.62-.85,2.2-1.99,4.25-3.06,8.78-2.94,13.49,0,0-1.79-1.73-1.79-1.73,4.52.07,9.05.15,13.57.28,6.76.21,20.38.62,27.15.78,3.37.06,10.2.13,13.57.14,0,0-.6.56-.6.56.59-6.13-1.09-12.03-3.4-17.65-2.8-7.28-5.57-14.94-9.33-21.74-.2-.45-.26-.76-.33-1.03-.41-1.84-1.17-2.63-2.63-3.02l.48.06-8.22.17,1.76-1.79s-.08,9.5-.08,9.5c-.1,9.5-.31,19-.67,28.5,0,0-1.05-1.05-1.05-1.05,5.62.21,11.25.46,16.87.85,0,0,0,.4,0,.4h0Z"/>
    <polygon class="cls-13" points="49.15 238.24 63.46 240.24 49.15 242.24 49.15 238.24 49.15 238.24"/>
    <polygon class="cls-13" points="41.34 242.24 27.36 240.24 41.34 238.24 41.34 242.24 41.34 242.24"/>
    <path class="cls-13" d="M45.49,197.49c-.38,4.02-6.07,2.14-5.92-1.22.18-2.04,1.89-3.36,3.57-4.05,2.32-.88,4.95-.15,6.75,1.45,1.9,1.52,2.76,4.57,1.74,6.82-4.31,9.21-17.4,4.35-16.89-4.99.29-7.07,7.52-11.16,14.03-9.24,6.52,1.57,10.76,9.44,7.49,15.55-1.21,2.31-3.07,4.64-5.81,5.11-.56.04-.9-.11-1.32-.11-.71,0-.78,1.06-.79,1.69,0,0-.39.07-.39.07-.27-.7-.48-1.62,0-2.37.18-.29.49-.53.8-.65.62-.26,1.28-.18,1.4-.31,2.79-1.7,4.14-5.95,3.31-8.99-1.56-5.74-9.66-8.73-14.15-4.43-2.27,2.1-3.55,5.82-1.78,8.69,1.55,2.84,5.73,4.52,8.43,2.44,1.71-1.28,2.99-3.25,2.46-5.21-.51-1.65-2.7-2.99-4.32-2.57-.8.2-1.76.64-2.1,1.33-.08.11-.08.32.03.59.35.77,1.37,1.69,2.26,1.16.3-.19.59-.52.81-.9l.38.11h0Z"/>
  </g>
  <g class="cls-20">
    <path class="cls-13" d="M201.26,332.68c-5.96.41-11.92.66-17.88.88-.26-6.69-.45-13.39-.56-20.08-.13-6.23-.19-14.49-.24-20.77,1.15-.02,8.68-.13,9.99-.15,0,0,.24,0,.24,0,0,0,.24.06.24.06,2.92.65,4.72,3.42,5.09,6.13,2.58,5.31,4.37,11.04,6.18,16.63,0,0,3.58,11.79,3.58,11.79,1.16,4.23,1.48,8.62,1.1,12.96,0,0-.56,0-.56,0-12.42,0-28.25.53-40.72.91-5.09.14-10.19.23-15.28.3-.35-4.73.1-9.55,1.71-14.05.52-1.51,1.18-2.94,1.72-4.39,0,0-.02.07-.02.07l-.03.14s-.05.39-.01.57c-.84-.88.99,2.39,2.79,1.56.23-.1.45-.26.62-.44.05-.05.11-.13.15-.18.08-.11-.09.14-.08.13-.3.4-.44.65-1.18.92,0,.08-1.43.38-2.29-.91-.34-.74-.18-.49-.26-.79-.02-.32-.01-.39.02-.6.66-2.27,1.61-4.31,2.41-6.44,2.81-7.09,6.04-14.76,9.07-21.78.17-.42,1-1.55,1.21-1.92,0,0,.62-.95.62-.95.19.01,8.91-.07,9.46-.06,0,0,2.05-.01,2.05-.01l-.04,1.99c-.18,12.42-.55,25.93-1.01,38.3,0,0-.03.99-.03.99-5.69-.14-11.39-.37-17.08-.64,0,0,0-.4,0-.4,2.69-.19,5.38-.35,8.07-.49,2.69-.14,5.38-.32,8.07-.43l-.96.97c-.46-12.36-.83-25.89-1.01-38.3,0,0,2.01,1.98,2.01,1.98l-8.36.24,1.71-.96-1.01,1.62.16-.31c-3.37,8.42-8.03,18.97-11.41,27.38,0,.01-.02.1.01-.09.03-.16.03-.24.01-.53-.08-.3.08-.03-.26-.77-.86-1.29-2.29-.99-2.27-.91-.63.22-.72.38-.94.61-.1.13-.07.1-.08.11.24-.4.57-.76,1-.95,1.8-.83,3.64,2.44,2.8,1.57.04.19,0,.55-.01.59-.13.63-.63,1.62-.85,2.2-1.99,4.25-3.06,8.78-2.94,13.49,0,0-1.79-1.73-1.79-1.73,4.52.07,9.05.15,13.57.28,6.76.21,20.38.61,27.15.78,3.37.06,10.2.13,13.57.14,0,0-.6.56-.6.56.59-6.13-1.09-12.03-3.4-17.65-2.8-7.28-5.57-14.94-9.33-21.74-.2-.45-.26-.76-.33-1.03-.41-1.84-1.17-2.63-2.63-3.02,0,0,.48.06.48.06,0,0-8.22.17-8.22.17l1.76-1.79-.08,9.5c-.1,9.5-.31,19-.67,28.5,0,0-1.05-1.05-1.05-1.05,5.62.21,11.25.46,16.87.85v.4h0Z"/>
    <polygon class="cls-13" points="185.38 324.17 199.68 326.17 185.38 328.17 185.38 324.17 185.38 324.17"/>
    <polygon class="cls-13" points="177.56 328.17 163.59 326.17 177.56 324.17 177.56 328.17 177.56 328.17"/>
    <path class="cls-13" d="M181.72,283.42c-.38,4.02-6.07,2.14-5.92-1.22.18-2.04,1.89-3.36,3.57-4.05,2.32-.88,4.95-.15,6.75,1.45,1.9,1.52,2.76,4.57,1.74,6.82-4.31,9.21-17.4,4.35-16.89-4.99.29-7.07,7.52-11.16,14.03-9.24,6.52,1.57,10.76,9.44,7.49,15.55-1.21,2.31-3.07,4.64-5.81,5.11-.56.04-.9-.11-1.32-.11-.71,0-.78,1.06-.79,1.69,0,0-.39.07-.39.07-.27-.7-.48-1.62,0-2.37.18-.29.49-.53.8-.65.62-.26,1.28-.19,1.4-.31,2.79-1.7,4.14-5.95,3.31-8.99-1.56-5.74-9.66-8.73-14.15-4.43-2.27,2.1-3.55,5.82-1.78,8.69,1.55,2.84,5.73,4.52,8.43,2.44,1.71-1.28,2.99-3.25,2.46-5.21-.51-1.65-2.7-2.99-4.32-2.57-.8.2-1.76.64-2.1,1.33-.08.11-.08.32.03.59.35.77,1.37,1.69,2.26,1.16.3-.19.59-.52.81-.9l.38.11h0Z"/>
  </g>
  <g class="cls-1">
    <path class="cls-13" d="M290.24,332.68c-5.96.41-11.92.66-17.88.88-.26-6.69-.45-13.39-.56-20.08-.13-6.23-.19-14.49-.24-20.77,1.15-.02,8.68-.13,9.99-.15,0,0,.24,0,.24,0,0,0,.24.06.24.06,2.92.65,4.72,3.42,5.09,6.13,2.58,5.31,4.37,11.04,6.18,16.63,0,0,3.58,11.79,3.58,11.79,1.16,4.23,1.48,8.62,1.1,12.96,0,0-.56,0-.56,0-12.42,0-28.25.53-40.72.91-5.09.14-10.19.23-15.28.3-.35-4.73.1-9.55,1.71-14.05.52-1.51,1.18-2.94,1.72-4.39,0,0-.02.07-.02.07l-.03.14s-.05.39-.01.57c-.84-.88.99,2.39,2.79,1.56.3-.13.58-.36.77-.62.08-.11-.09.14-.08.13-.3.4-.44.65-1.18.92,0,.08-1.43.38-2.29-.91-.34-.74-.18-.49-.26-.79-.02-.32-.01-.39.02-.6.66-2.27,1.61-4.31,2.41-6.44,2.81-7.09,6.04-14.76,9.07-21.78.17-.42,1-1.55,1.21-1.92,0,0,.62-.95.62-.95.19.01,8.91-.07,9.46-.06,0,0,2.05-.01,2.05-.01l-.04,1.99c-.18,12.42-.55,25.93-1.01,38.3,0,0-.03.99-.03.99-5.69-.14-11.39-.37-17.08-.64,0,0,0-.4,0-.4,2.69-.19,5.38-.35,8.07-.49,2.69-.14,5.38-.32,8.07-.43l-.96.97c-.46-12.36-.83-25.89-1.01-38.3,0,0,2.01,1.98,2.01,1.98,0,0-8.36.24-8.36.24,0,0,1.71-.96,1.71-.96l-1.01,1.62.16-.31c-3.37,8.42-8.03,18.97-11.41,27.38,0,.01-.02.1.01-.09.03-.16.03-.24.01-.53-.08-.3.08-.03-.26-.77-.86-1.29-2.29-.99-2.27-.91-.63.22-.72.38-.94.61-.1.13-.07.1-.08.11.24-.4.57-.76,1-.95,1.8-.83,3.64,2.44,2.8,1.57.04.19,0,.55-.01.59-.13.63-.63,1.62-.85,2.2-1.99,4.25-3.06,8.78-2.94,13.49,0,0-1.79-1.73-1.79-1.73,4.52.07,9.05.15,13.57.28,6.76.21,20.38.61,27.15.78,3.37.06,10.2.13,13.57.14,0,0-.6.56-.6.56.59-6.13-1.09-12.03-3.4-17.65-2.8-7.28-5.57-14.94-9.33-21.74-.2-.45-.26-.76-.33-1.03-.41-1.84-1.17-2.63-2.63-3.02,0,0,.48.06.48.06,0,0-8.22.17-8.22.17l1.76-1.79-.08,9.5c-.1,9.5-.31,19-.67,28.5,0,0-1.05-1.05-1.05-1.05,5.62.21,11.25.46,16.87.85v.4h0Z"/>
    <polygon class="cls-13" points="274.35 324.17 288.66 326.17 274.35 328.17 274.35 324.17 274.35 324.17"/>
    <polygon class="cls-13" points="266.54 328.17 252.57 326.17 266.54 324.17 266.54 328.17 266.54 328.17"/>
    <path class="cls-13" d="M270.69,283.42c-.38,4.02-6.07,2.14-5.92-1.22.18-2.04,1.89-3.36,3.57-4.05,2.32-.88,4.95-.15,6.75,1.45,1.9,1.52,2.76,4.57,1.74,6.82-4.31,9.21-17.4,4.35-16.89-4.99.29-7.07,7.52-11.16,14.03-9.24,6.52,1.57,10.76,9.44,7.49,15.55-1.21,2.31-3.07,4.64-5.81,5.11-.56.04-.9-.11-1.32-.11-.71,0-.78,1.06-.79,1.69,0,0-.39.07-.39.07-.27-.7-.48-1.62,0-2.37.18-.29.49-.53.8-.65.62-.26,1.28-.19,1.4-.31,2.79-1.7,4.14-5.95,3.31-8.99-1.56-5.74-9.66-8.73-14.15-4.43-2.27,2.1-3.55,5.82-1.78,8.69,1.55,2.84,5.73,4.52,8.43,2.44,1.71-1.28,2.99-3.25,2.46-5.21-.51-1.65-2.7-2.99-4.32-2.57-.8.2-1.76.64-2.1,1.33-.08.11-.08.32.03.59.35.77,1.37,1.69,2.26,1.16.3-.19.59-.52.81-.9l.38.11h0Z"/>
  </g>
  <g class="cls-23">
    <path class="cls-13" d="M380.42,332.19c-5.96.41-11.92.66-17.88.88-.26-6.69-.45-13.39-.56-20.08-.13-6.23-.19-14.49-.24-20.77,1.15-.02,8.68-.13,9.99-.15,0,0,.24,0,.24,0l.24.06c2.92.65,4.72,3.42,5.09,6.13,2.58,5.31,4.37,11.04,6.18,16.63,0,0,3.58,11.79,3.58,11.79,1.16,4.23,1.48,8.62,1.1,12.96,0,0-.56,0-.56,0-12.42,0-28.25.53-40.72.91-5.09.14-10.19.23-15.28.3-.35-4.73.1-9.55,1.71-14.05.52-1.51,1.18-2.94,1.72-4.39,0,0-.02.07-.02.07,0,0-.03.14-.03.14-.01.03-.05.39-.01.57-.84-.88.99,2.39,2.79,1.56.23-.1.45-.26.62-.44.05-.05.11-.13.15-.18.08-.11-.09.14-.08.13-.3.4-.44.65-1.18.92,0,.08-1.43.38-2.29-.91-.34-.74-.18-.49-.26-.79-.02-.32-.01-.39.02-.6.66-2.27,1.61-4.31,2.41-6.44,2.81-7.09,6.04-14.76,9.07-21.78.17-.42,1-1.55,1.21-1.92,0,0,.62-.95.62-.95.19.01,8.91-.07,9.46-.06,0,0,2.05-.01,2.05-.01l-.04,1.99c-.18,12.42-.55,25.93-1.01,38.3,0,0-.03.99-.03.99-5.69-.14-11.39-.37-17.08-.64,0,0,0-.4,0-.4,2.69-.19,5.38-.35,8.07-.49,2.69-.14,5.38-.32,8.07-.43l-.96.97c-.46-12.36-.83-25.89-1.01-38.3,0,0,2.01,1.98,2.01,1.98,0,0-8.36.24-8.36.24,0,0,1.71-.96,1.71-.96,0,0-1.01,1.62-1.01,1.62,0,0,.16-.31.16-.31-3.37,8.42-8.03,18.97-11.41,27.38,0,.01-.02.1.01-.09.03-.16.03-.24.01-.53-.08-.3.08-.03-.26-.77-.86-1.29-2.29-.99-2.27-.91-.63.22-.72.38-.94.61-.1.13-.07.1-.08.11.24-.4.57-.76,1-.95,1.8-.83,3.64,2.44,2.8,1.57.04.19,0,.55-.01.59-.13.63-.63,1.62-.85,2.2-1.99,4.25-3.06,8.78-2.94,13.49,0,0-1.79-1.73-1.79-1.73,4.52.07,9.05.15,13.57.28,6.76.21,20.38.62,27.15.78,3.37.06,10.2.13,13.57.14,0,0-.6.56-.6.56.59-6.13-1.09-12.03-3.4-17.65-2.8-7.28-5.57-14.94-9.33-21.74-.2-.45-.26-.76-.33-1.03-.41-1.84-1.17-2.63-2.63-3.02l.48.06-8.22.17s1.76-1.79,1.76-1.79l-.08,9.5c-.1,9.5-.31,19-.67,28.5,0,0-1.05-1.05-1.05-1.05,5.62.21,11.25.46,16.87.85,0,0,0,.4,0,.4h0Z"/>
    <polygon class="cls-13" points="364.54 323.68 378.85 325.68 364.54 327.68 364.54 323.68 364.54 323.68"/>
    <polygon class="cls-13" points="356.73 327.68 342.75 325.68 356.73 323.68 356.73 327.68 356.73 327.68"/>
    <path class="cls-13" d="M360.88,282.93c-.38,4.02-6.07,2.14-5.92-1.22.18-2.04,1.89-3.36,3.57-4.05,2.32-.88,4.95-.15,6.75,1.45,1.9,1.52,2.76,4.57,1.74,6.82-4.31,9.21-17.4,4.35-16.89-4.99.29-7.07,7.52-11.16,14.03-9.24,6.52,1.57,10.76,9.44,7.49,15.55-1.21,2.31-3.07,4.64-5.81,5.11-.56.04-.9-.11-1.32-.11-.71,0-.78,1.06-.79,1.69,0,0-.39.07-.39.07-.27-.71-.48-1.62,0-2.37.18-.29.49-.53.8-.65.62-.26,1.28-.18,1.4-.31,2.79-1.7,4.14-5.95,3.31-8.99-1.56-5.74-9.66-8.73-14.15-4.43-2.27,2.1-3.55,5.82-1.78,8.69,1.55,2.84,5.73,4.52,8.43,2.44,1.71-1.28,2.99-3.25,2.46-5.21-.51-1.65-2.7-2.99-4.32-2.57-.8.2-1.76.64-2.1,1.33-.08.11-.08.32.03.59.35.77,1.37,1.69,2.26,1.16.3-.19.59-.52.81-.9l.38.11h0Z"/>
  </g>
  <g class="cls-7">
    <path class="cls-13" d="M472.41,332.68c-5.96.41-11.92.66-17.88.88-.26-6.69-.45-13.39-.56-20.08-.13-6.23-.19-14.49-.24-20.77,1.15-.02,8.68-.13,9.99-.15,0,0,.24,0,.24,0,0,0,.24.06.24.06,2.92.65,4.72,3.42,5.09,6.13,2.58,5.31,4.37,11.04,6.18,16.63,0,0,3.58,11.79,3.58,11.79,1.16,4.23,1.48,8.62,1.1,12.96,0,0-.56,0-.56,0-12.42,0-28.25.53-40.72.91-5.09.14-10.19.23-15.28.3-.35-4.73.1-9.55,1.71-14.05.52-1.51,1.18-2.94,1.72-4.39,0,0-.02.07-.02.07l-.03.14s-.05.39-.01.57c-.84-.88.99,2.39,2.79,1.56.3-.13.58-.36.77-.62.08-.11-.09.14-.08.13-.3.4-.44.65-1.18.92,0,.08-1.43.38-2.29-.91-.34-.74-.18-.49-.26-.79-.02-.32-.01-.39.02-.6.66-2.27,1.61-4.31,2.41-6.44,2.81-7.09,6.04-14.76,9.07-21.78.17-.42,1-1.55,1.21-1.92,0,0,.62-.95.62-.95.19.01,8.91-.07,9.46-.06,0,0,2.05-.01,2.05-.01,0,0-.04,1.99-.04,1.99-.18,12.42-.55,25.93-1.01,38.3,0,0-.03.99-.03.99-5.69-.14-11.39-.37-17.08-.64,0,0,0-.4,0-.4,2.69-.19,5.38-.35,8.07-.49,2.69-.14,5.38-.32,8.07-.43l-.96.97c-.46-12.36-.83-25.89-1.01-38.3,0,0,2.01,1.98,2.01,1.98,0,0-8.36.24-8.36.24l1.71-.96s-1.01,1.62-1.01,1.62l.16-.31c-3.37,8.42-8.03,18.97-11.41,27.38,0,.01-.02.1.01-.09.03-.16.03-.24.01-.53-.08-.3.08-.03-.26-.77-.86-1.29-2.29-.99-2.27-.91-.63.22-.72.38-.94.61-.1.13-.07.1-.08.11.24-.4.57-.76,1-.95,1.8-.83,3.64,2.44,2.8,1.57.04.19,0,.55-.01.59-.13.63-.63,1.62-.85,2.2-1.99,4.25-3.06,8.78-2.94,13.49,0,0-1.79-1.73-1.79-1.73,4.52.07,9.05.15,13.57.28,6.76.21,20.38.61,27.15.78,3.37.06,10.2.13,13.57.14,0,0-.6.56-.6.56.59-6.13-1.09-12.03-3.4-17.65-2.8-7.28-5.57-14.94-9.33-21.74-.2-.45-.26-.76-.33-1.03-.41-1.84-1.17-2.63-2.63-3.02,0,0,.48.06.48.06l-8.22.17,1.76-1.79-.08,9.5c-.1,9.5-.31,19-.67,28.5,0,0-1.05-1.05-1.05-1.05,5.62.21,11.25.46,16.87.85v.4h0Z"/>
    <polygon class="cls-13" points="456.53 324.17 470.84 326.17 456.53 328.17 456.53 324.17 456.53 324.17"/>
    <polygon class="cls-13" points="448.72 328.17 434.74 326.17 448.72 324.17 448.72 328.17 448.72 328.17"/>
    <path class="cls-13" d="M452.87,283.42c-.38,4.02-6.07,2.14-5.92-1.22.18-2.04,1.89-3.36,3.57-4.05,2.32-.88,4.95-.15,6.75,1.45,1.9,1.52,2.76,4.57,1.74,6.82-4.31,9.21-17.4,4.35-16.89-4.99.29-7.07,7.52-11.16,14.03-9.24,6.52,1.57,10.76,9.44,7.49,15.55-1.21,2.31-3.07,4.64-5.81,5.11-.56.04-.9-.11-1.32-.11-.71,0-.78,1.06-.79,1.69,0,0-.39.07-.39.07-.27-.7-.48-1.62,0-2.37.18-.29.49-.53.8-.65.62-.26,1.28-.19,1.4-.31,2.79-1.7,4.14-5.95,3.31-8.99-1.56-5.74-9.66-8.73-14.15-4.43-2.27,2.1-3.55,5.82-1.78,8.69,1.55,2.84,5.73,4.52,8.43,2.44,1.71-1.28,2.99-3.25,2.46-5.21-.51-1.65-2.7-2.99-4.32-2.57-.8.2-1.76.64-2.1,1.33-.08.11-.08.32.03.59.35.77,1.37,1.69,2.26,1.16.3-.19.59-.52.81-.9l.38.11h0Z"/>
  </g>
  <g class="cls-4">
    <path class="cls-13" d="M111.05,332.68c-5.96.41-11.92.66-17.88.88-.26-6.69-.45-13.39-.56-20.08-.13-6.23-.19-14.49-.24-20.77,1.15-.02,8.68-.13,9.99-.15,0,0,.24,0,.24,0l.24.06c2.92.65,4.72,3.42,5.09,6.13,2.58,5.31,4.37,11.04,6.18,16.63,0,0,3.58,11.79,3.58,11.79,1.16,4.23,1.48,8.62,1.1,12.96,0,0-.56,0-.56,0-12.42,0-28.25.53-40.72.91-5.09.14-10.19.23-15.28.3-.35-4.73.1-9.55,1.71-14.05.52-1.51,1.18-2.94,1.72-4.39,0,0-.02.07-.02.07l-.03.14s-.05.39-.01.57c-.84-.88.99,2.39,2.79,1.56.23-.1.45-.26.62-.44.05-.05.11-.13.15-.18.08-.11-.09.14-.08.13-.3.4-.44.65-1.18.92,0,.08-1.43.38-2.29-.91-.34-.74-.18-.49-.26-.79-.02-.32-.01-.39.02-.6.66-2.27,1.61-4.31,2.41-6.44,2.81-7.09,6.04-14.76,9.07-21.78.17-.42,1-1.55,1.21-1.92,0,0,.62-.95.62-.95.19.01,8.91-.07,9.46-.06,0,0,2.05-.01,2.05-.01l-.04,1.99c-.18,12.42-.55,25.93-1.01,38.3,0,0-.03.99-.03.99-5.69-.14-11.39-.37-17.08-.64,0,0,0-.4,0-.4,2.69-.19,5.38-.35,8.07-.49,2.69-.14,5.38-.32,8.07-.43l-.96.97c-.46-12.36-.83-25.89-1.01-38.3,0,0,2.01,1.98,2.01,1.98l-8.36.24,1.71-.96-1.01,1.62.16-.31c-3.37,8.42-8.03,18.97-11.41,27.38,0,.01-.02.1.01-.09.03-.16.03-.24.01-.53-.08-.3.08-.03-.26-.77-.86-1.29-2.29-.99-2.27-.91-.63.22-.72.38-.94.61-.1.13-.07.1-.08.11.24-.4.57-.76,1-.95,1.8-.83,3.64,2.44,2.8,1.57.04.19,0,.55-.01.59-.13.63-.63,1.62-.85,2.2-1.99,4.25-3.06,8.78-2.94,13.49,0,0-1.79-1.73-1.79-1.73,4.52.07,9.05.15,13.57.28,6.76.21,20.38.61,27.15.78,3.37.06,10.2.13,13.57.14,0,0-.6.56-.6.56.59-6.13-1.09-12.03-3.4-17.65-2.8-7.28-5.57-14.94-9.33-21.74-.2-.45-.26-.76-.33-1.03-.41-1.84-1.17-2.63-2.63-3.02,0,0,.48.06.48.06,0,0-8.22.17-8.22.17l1.76-1.79-.08,9.5c-.1,9.5-.31,19-.67,28.5,0,0-1.05-1.05-1.05-1.05,5.62.21,11.25.46,16.87.85v.4h0Z"/>
    <polygon class="cls-13" points="95.16 324.17 109.47 326.17 95.16 328.17 95.16 324.17 95.16 324.17"/>
    <polygon class="cls-13" points="87.35 328.17 73.37 326.17 87.35 324.17 87.35 328.17 87.35 328.17"/>
    <path class="cls-13" d="M91.5,283.42c-.38,4.02-6.07,2.14-5.92-1.22.18-2.04,1.89-3.36,3.57-4.05,2.32-.88,4.95-.15,6.75,1.45,1.9,1.52,2.76,4.57,1.74,6.82-4.31,9.21-17.4,4.35-16.89-4.99.29-7.07,7.52-11.16,14.03-9.24,6.52,1.57,10.76,9.44,7.49,15.55-1.21,2.31-3.07,4.64-5.81,5.11-.56.04-.9-.11-1.32-.11-.71,0-.78,1.06-.79,1.69,0,0-.39.07-.39.07-.27-.7-.48-1.62,0-2.37.18-.29.49-.53.8-.65.62-.26,1.28-.19,1.4-.31,2.79-1.7,4.14-5.95,3.31-8.99-1.56-5.74-9.66-8.73-14.15-4.43-2.27,2.1-3.55,5.82-1.78,8.69,1.55,2.84,5.73,4.52,8.43,2.44,1.71-1.28,2.99-3.25,2.46-5.21-.51-1.65-2.7-2.99-4.32-2.57-.8.2-1.76.64-2.1,1.33-.08.11-.08.32.03.59.35.77,1.37,1.69,2.26,1.16.3-.19.59-.52.81-.9l.38.11h0Z"/>
  </g>
  <g class="cls-26">
    <path class="cls-13" d="M22,332.68c-5.96.41-11.92.66-17.88.88-.26-6.69-.45-13.39-.56-20.08-.13-6.23-.19-14.49-.24-20.77,1.15-.02,8.68-.13,9.99-.15,0,0,.24,0,.24,0,0,0,.24.06.24.06,2.92.65,4.72,3.42,5.09,6.13,2.58,5.31,4.37,11.04,6.18,16.63,0,0,3.58,11.79,3.58,11.79,1.16,4.23,1.48,8.62,1.1,12.96,0,0-.56,0-.56,0-12.42,0-28.25.53-40.72.91-5.09.14-10.19.23-15.28.3-.35-4.73.1-9.55,1.71-14.05.52-1.51,1.18-2.94,1.72-4.39,0,0-.02.07-.02.07l-.03.14s-.05.39-.01.57c-.84-.88.99,2.39,2.79,1.56.23-.1.45-.26.62-.44.05-.05.11-.13.15-.18.08-.11-.09.14-.08.13-.3.4-.44.65-1.18.92,0,.08-1.43.38-2.29-.91-.34-.74-.18-.49-.26-.79-.02-.32-.01-.39.02-.6.66-2.27,1.61-4.31,2.41-6.44,2.81-7.09,6.04-14.76,9.07-21.78.17-.42,1-1.55,1.21-1.92,0,0,.62-.95.62-.95.19.01,8.91-.07,9.46-.06,0,0,2.05-.01,2.05-.01l-.04,1.99c-.18,12.42-.55,25.93-1.01,38.3,0,0-.03.99-.03.99-5.69-.14-11.39-.37-17.08-.64,0,0,0-.4,0-.4,2.69-.19,5.38-.35,8.07-.49,2.69-.14,5.38-.32,8.07-.43l-.96.97c-.46-12.36-.83-25.89-1.01-38.3,0,0,2.01,1.98,2.01,1.98,0,0-8.36.24-8.36.24,0,0,1.71-.96,1.71-.96l-1.01,1.62.16-.31c-3.37,8.42-8.03,18.97-11.41,27.38,0,.01-.02.1.01-.09.03-.16.03-.24.01-.53-.08-.3.08-.03-.26-.77-.86-1.29-2.29-.99-2.27-.91-.63.22-.72.38-.94.61-.1.13-.07.1-.08.11.24-.4.57-.76,1-.95,1.8-.83,3.64,2.44,2.8,1.57.04.19,0,.55-.01.59-.13.63-.63,1.62-.85,2.2-1.99,4.25-3.06,8.78-2.94,13.49,0,0-1.79-1.73-1.79-1.73,4.52.07,9.05.15,13.57.28,6.76.21,20.38.61,27.15.78,3.37.06,10.2.13,13.57.14,0,0-.6.56-.6.56.59-6.13-1.09-12.03-3.4-17.65-2.8-7.28-5.57-14.94-9.33-21.74-.2-.45-.26-.76-.33-1.03-.41-1.84-1.17-2.63-2.63-3.02l.48.06-8.22.17,1.76-1.79-.08,9.5c-.1,9.5-.31,19-.67,28.5,0,0-1.05-1.05-1.05-1.05,5.62.21,11.25.46,16.87.85,0,0,0,.4,0,.4h0Z"/>
    <polygon class="cls-13" points="6.12 324.17 20.43 326.17 6.12 328.17 6.12 324.17 6.12 324.17"/>
    <path class="cls-13" d="M2.46,283.42c-.38,4.02-6.07,2.14-5.92-1.22.18-2.04,1.89-3.36,3.57-4.05,2.32-.88,4.95-.15,6.75,1.45,1.9,1.52,2.76,4.57,1.74,6.82-4.31,9.21-17.4,4.35-16.89-4.99.29-7.07,7.52-11.16,14.03-9.24,6.52,1.57,10.76,9.44,7.49,15.55-1.21,2.31-3.07,4.64-5.81,5.11-.56.04-.9-.11-1.32-.11-.71,0-.78,1.06-.79,1.69,0,0-.39.07-.39.07-.27-.7-.48-1.62,0-2.37.18-.29.49-.53.8-.65.62-.26,1.28-.19,1.4-.31,2.79-1.7,4.14-5.95,3.31-8.99-1.56-5.74-9.66-8.73-14.15-4.43-2.27,2.1-3.55,5.82-1.78,8.69,1.55,2.84,5.73,4.52,8.43,2.44,1.71-1.28,2.99-3.25,2.46-5.21-.51-1.65-2.7-2.99-4.32-2.57-.8.2-1.76.64-2.1,1.33-.08.11-.08.32.03.59.35.77,1.37,1.69,2.26,1.16.3-.19.59-.52.81-.9l.38.11h0Z"/>
  </g>
</svg>