<?xml version="1.0" encoding="UTF-8"?>
<svg id="Layer_1" data-name="Layer 1" xmlns="http://www.w3.org/2000/svg" xmlns:xlink="http://www.w3.org/1999/xlink" viewBox="0 0 500 350">
  <defs>
    <style>
      .cls-1 {
        fill: #939393;
      }

      .cls-2 {
        filter: url(#outer-glow-20);
      }

      .cls-3 {
        filter: url(#outer-glow-14);
      }

      .cls-4 {
        filter: url(#outer-glow-9);
      }

      .cls-5 {
        filter: url(#outer-glow-2);
      }

      .cls-6 {
        filter: url(#outer-glow-11);
      }

      .cls-7 {
        filter: url(#outer-glow-15);
      }

      .cls-8 {
        filter: url(#outer-glow-18);
      }

      .cls-9 {
        filter: url(#outer-glow-21);
      }

      .cls-10 {
        filter: url(#outer-glow-6);
      }

      .cls-11 {
        filter: url(#outer-glow-5);
      }

      .cls-12 {
        filter: url(#outer-glow-10);
      }

      .cls-13 {
        filter: url(#outer-glow-12);
      }

      .cls-14 {
        filter: url(#outer-glow-8);
      }

      .cls-15 {
        filter: url(#outer-glow-13);
      }

      .cls-16 {
        filter: url(#outer-glow-17);
      }

      .cls-17 {
        fill: #707071;
      }

      .cls-18 {
        fill: none;
        stroke: #939393;
        stroke-miterlimit: 10;
        stroke-width: 4px;
      }

      .cls-19 {
        filter: url(#outer-glow-19);
      }

      .cls-20 {
        filter: url(#outer-glow-7);
      }

      .cls-21 {
        filter: url(#outer-glow-3);
      }

      .cls-22 {
        filter: url(#outer-glow-16);
      }

      .cls-23 {
        filter: url(#outer-glow-4);
      }
    </style>
    <filter id="outer-glow-2" x="172.05" y="1.18" width="101.04" height="87.12" filterUnits="userSpaceOnUse">
      <feOffset dx="0" dy="0"/>
      <feGaussianBlur result="blur" stdDeviation="5"/>
      <feFlood flood-color="#231f20" flood-opacity=".88"/>
      <feComposite in2="blur" operator="in"/>
      <feComposite in="SourceGraphic"/>
    </filter>
    <filter id="outer-glow-3" x="54.93" y="1.66" width="101.04" height="87.12" filterUnits="userSpaceOnUse">
      <feOffset dx="0" dy="0"/>
      <feGaussianBlur result="blur-2" stdDeviation="5"/>
      <feFlood flood-color="#231f20" flood-opacity=".88"/>
      <feComposite in2="blur-2" operator="in"/>
      <feComposite in="SourceGraphic"/>
    </filter>
    <filter id="outer-glow-4" x="-61.95" y="-1.7" width="101.04" height="87.36" filterUnits="userSpaceOnUse">
      <feOffset dx="0" dy="0"/>
      <feGaussianBlur result="blur-3" stdDeviation="5"/>
      <feFlood flood-color="#231f20" flood-opacity=".88"/>
      <feComposite in2="blur-3" operator="in"/>
      <feComposite in="SourceGraphic"/>
    </filter>
    <filter id="outer-glow-5" x="286.29" y=".22" width="101.04" height="87.36" filterUnits="userSpaceOnUse">
      <feOffset dx="0" dy="0"/>
      <feGaussianBlur result="blur-4" stdDeviation="5"/>
      <feFlood flood-color="#231f20" flood-opacity=".88"/>
      <feComposite in2="blur-4" operator="in"/>
      <feComposite in="SourceGraphic"/>
    </filter>
    <filter id="outer-glow-6" x="401.49" y=".7" width="101.04" height="87.36" filterUnits="userSpaceOnUse">
      <feOffset dx="0" dy="0"/>
      <feGaussianBlur result="blur-5" stdDeviation="5"/>
      <feFlood flood-color="#231f20" flood-opacity=".88"/>
      <feComposite in2="blur-5" operator="in"/>
      <feComposite in="SourceGraphic"/>
    </filter>
    <filter id="outer-glow-7" x="229.65" y="81.58" width="101.04" height="87.12" filterUnits="userSpaceOnUse">
      <feOffset dx="0" dy="0"/>
      <feGaussianBlur result="blur-6" stdDeviation="5"/>
      <feFlood flood-color="#231f20" flood-opacity=".88"/>
      <feComposite in2="blur-6" operator="in"/>
      <feComposite in="SourceGraphic"/>
    </filter>
    <filter id="outer-glow-8" x="112.53" y="82.06" width="101.04" height="87.12" filterUnits="userSpaceOnUse">
      <feOffset dx="0" dy="0"/>
      <feGaussianBlur result="blur-7" stdDeviation="5"/>
      <feFlood flood-color="#231f20" flood-opacity=".88"/>
      <feComposite in2="blur-7" operator="in"/>
      <feComposite in="SourceGraphic"/>
    </filter>
    <filter id="outer-glow-9" x="-4.35" y="78.7" width="101.04" height="87.36" filterUnits="userSpaceOnUse">
      <feOffset dx="0" dy="0"/>
      <feGaussianBlur result="blur-8" stdDeviation="5"/>
      <feFlood flood-color="#231f20" flood-opacity=".88"/>
      <feComposite in2="blur-8" operator="in"/>
      <feComposite in="SourceGraphic"/>
    </filter>
    <filter id="outer-glow-10" x="343.89" y="80.62" width="101.04" height="87.36" filterUnits="userSpaceOnUse">
      <feOffset dx="0" dy="0"/>
      <feGaussianBlur result="blur-9" stdDeviation="5"/>
      <feFlood flood-color="#231f20" flood-opacity=".88"/>
      <feComposite in2="blur-9" operator="in"/>
      <feComposite in="SourceGraphic"/>
    </filter>
    <filter id="outer-glow-11" x="459.09" y="81.1" width="101.04" height="87.36" filterUnits="userSpaceOnUse">
      <feOffset dx="0" dy="0"/>
      <feGaussianBlur result="blur-10" stdDeviation="5"/>
      <feFlood flood-color="#231f20" flood-opacity=".88"/>
      <feComposite in2="blur-10" operator="in"/>
      <feComposite in="SourceGraphic"/>
    </filter>
    <filter id="outer-glow-12" x="174.21" y="165.1" width="101.04" height="87.36" filterUnits="userSpaceOnUse">
      <feOffset dx="0" dy="0"/>
      <feGaussianBlur result="blur-11" stdDeviation="5"/>
      <feFlood flood-color="#231f20" flood-opacity=".88"/>
      <feComposite in2="blur-11" operator="in"/>
      <feComposite in="SourceGraphic"/>
    </filter>
    <filter id="outer-glow-13" x="57.33" y="165.58" width="101.04" height="87.36" filterUnits="userSpaceOnUse">
      <feOffset dx="0" dy="0"/>
      <feGaussianBlur result="blur-12" stdDeviation="5"/>
      <feFlood flood-color="#231f20" flood-opacity=".88"/>
      <feComposite in2="blur-12" operator="in"/>
      <feComposite in="SourceGraphic"/>
    </filter>
    <filter id="outer-glow-14" x="-59.79" y="162.46" width="101.04" height="87.12" filterUnits="userSpaceOnUse">
      <feOffset dx="0" dy="0"/>
      <feGaussianBlur result="blur-13" stdDeviation="5"/>
      <feFlood flood-color="#231f20" flood-opacity=".88"/>
      <feComposite in2="blur-13" operator="in"/>
      <feComposite in="SourceGraphic"/>
    </filter>
    <filter id="outer-glow-15" x="288.69" y="164.14" width="101.04" height="87.36" filterUnits="userSpaceOnUse">
      <feOffset dx="0" dy="0"/>
      <feGaussianBlur result="blur-14" stdDeviation="5"/>
      <feFlood flood-color="#231f20" flood-opacity=".88"/>
      <feComposite in2="blur-14" operator="in"/>
      <feComposite in="SourceGraphic"/>
    </filter>
    <filter id="outer-glow-16" x="403.65" y="164.86" width="101.04" height="87.12" filterUnits="userSpaceOnUse">
      <feOffset dx="0" dy="0"/>
      <feGaussianBlur result="blur-15" stdDeviation="5"/>
      <feFlood flood-color="#231f20" flood-opacity=".88"/>
      <feComposite in2="blur-15" operator="in"/>
      <feComposite in="SourceGraphic"/>
    </filter>
    <filter id="outer-glow-17" x="233.25" y="255.1" width="101.04" height="87.36" filterUnits="userSpaceOnUse">
      <feOffset dx="0" dy="0"/>
      <feGaussianBlur result="blur-16" stdDeviation="5"/>
      <feFlood flood-color="#231f20" flood-opacity=".88"/>
      <feComposite in2="blur-16" operator="in"/>
      <feComposite in="SourceGraphic"/>
    </filter>
    <filter id="outer-glow-18" x="116.37" y="255.58" width="101.04" height="87.36" filterUnits="userSpaceOnUse">
      <feOffset dx="0" dy="0"/>
      <feGaussianBlur result="blur-17" stdDeviation="5"/>
      <feFlood flood-color="#231f20" flood-opacity=".88"/>
      <feComposite in2="blur-17" operator="in"/>
      <feComposite in="SourceGraphic"/>
    </filter>
    <filter id="outer-glow-19" x="-.51" y="252.46" width="101.04" height="87.36" filterUnits="userSpaceOnUse">
      <feOffset dx="0" dy="0"/>
      <feGaussianBlur result="blur-18" stdDeviation="5"/>
      <feFlood flood-color="#231f20" flood-opacity=".88"/>
      <feComposite in2="blur-18" operator="in"/>
      <feComposite in="SourceGraphic"/>
    </filter>
    <filter id="outer-glow-20" x="347.73" y="254.38" width="101.04" height="87.12" filterUnits="userSpaceOnUse">
      <feOffset dx="0" dy="0"/>
      <feGaussianBlur result="blur-19" stdDeviation="5"/>
      <feFlood flood-color="#231f20" flood-opacity=".88"/>
      <feComposite in2="blur-19" operator="in"/>
      <feComposite in="SourceGraphic"/>
    </filter>
    <filter id="outer-glow-21" x="462.69" y="254.86" width="101.04" height="87.12" filterUnits="userSpaceOnUse">
      <feOffset dx="0" dy="0"/>
      <feGaussianBlur result="blur-20" stdDeviation="5"/>
      <feFlood flood-color="#231f20" flood-opacity=".88"/>
      <feComposite in2="blur-20" operator="in"/>
      <feComposite in="SourceGraphic"/>
    </filter>
  </defs>
  <rect class="cls-17" width="500" height="350"/>
  <g class="cls-5">
    <polyline class="cls-18" points="239.24 24.3 239.24 41.12 247.8 41.12 247.8 18.19 197.2 18.19 197.2 41.12 205.76 41.12 205.76 24"/>
    <polyline class="cls-18" points="205.61 65.27 205.61 47.69 197.2 47.69 197.2 71.23 247.8 71.23 247.8 47.69 239.39 47.69 239.39 65.27"/>
    <polyline class="cls-18" points="196.13 24.61 189.1 24.61 189.1 63.13 196.13 63.13"/>
    <polyline class="cls-18" points="248.72 24.61 255.9 24.61 255.9 63.13 248.72 63.13"/>
    <path class="cls-1" d="M223.83,45.15c1.33,1.49,2.89.99,2.64-.99-.14-1.08-1.9-2.21-2.88-1.9-.87.16-1.85,1.71-2,3.1-.29,2.25,1.64,4.05,3.61,4.83,4.28,1.67,9.31-3.23,7.79-7.62-3.07-9.18-17.36-8.5-18.47,1.49-.65,8.27,6.27,12.65,14,10.78,0,0,.17.36.17.36-5.94,3.79-14.03,1.91-17.09-4.7-7.5-16.84,17.68-26.01,22.71-8.25.97,4.39-2.07,8.92-6.21,10.38-3.5,1.21-7.75-.45-9.46-3.83-1.79-3.64.23-8.92,4.52-9.6,2.92-.2,5.51,2.07,5.44,4.97-.2,3.23-3.86,4.45-5.12,1.18,0,0,.35-.19.35-.19h0Z"/>
  </g>
  <g class="cls-21">
    <polyline class="cls-18" points="122.23 24.81 122.23 41.62 130.79 41.62 130.79 18.69 80.2 18.69 80.2 41.62 88.76 41.62 88.76 24.5"/>
    <polyline class="cls-18" points="88.6 65.78 88.6 48.2 80.2 48.2 80.2 71.74 130.79 71.74 130.79 48.2 122.39 48.2 122.39 65.78"/>
    <polyline class="cls-18" points="79.13 25.12 72.09 25.12 72.09 63.64 79.13 63.64"/>
    <polyline class="cls-18" points="131.71 25.12 138.9 25.12 138.9 63.64 131.71 63.64"/>
    <path class="cls-1" d="M106.82,45.66c1.33,1.49,2.89.99,2.64-.99-.14-1.08-1.9-2.21-2.88-1.9-.87.16-1.85,1.71-2,3.1-.29,2.25,1.64,4.05,3.61,4.83,4.28,1.67,9.31-3.23,7.79-7.62-3.07-9.18-17.36-8.49-18.47,1.49-.65,8.27,6.27,12.65,14,10.78,0,0,.17.36.17.36-5.94,3.79-14.03,1.91-17.09-4.7-7.5-16.84,17.68-26.01,22.71-8.25.97,4.39-2.07,8.92-6.21,10.38-3.5,1.21-7.75-.45-9.46-3.83-1.79-3.64.23-8.92,4.52-9.6,2.92-.2,5.51,2.07,5.44,4.97-.19,3.23-3.86,4.45-5.12,1.18,0,0,.35-.19.35-.19h0Z"/>
  </g>
  <g class="cls-23">
    <polyline class="cls-18" points="5.32 21.6 5.32 38.42 13.88 38.42 13.88 15.49 -36.72 15.49 -36.72 38.42 -28.16 38.42 -28.16 21.29"/>
    <polyline class="cls-18" points="-28.31 62.57 -28.31 44.99 -36.72 44.99 -36.72 68.53 13.88 68.53 13.88 44.99 5.47 44.99 5.47 62.57"/>
    <polyline class="cls-18" points="14.8 21.91 21.98 21.91 21.98 60.43 14.8 60.43"/>
    <path class="cls-1" d="M-10.09,42.45c1.33,1.49,2.89.99,2.64-.99-.14-1.08-1.9-2.21-2.88-1.9-.87.16-1.85,1.71-2,3.1-.29,2.25,1.64,4.05,3.61,4.83,4.28,1.67,9.31-3.23,7.79-7.62-3.07-9.18-17.36-8.5-18.47,1.49-.65,8.27,6.27,12.65,14,10.78,0,0,.17.36.17.36-5.94,3.79-14.03,1.91-17.09-4.7C-29.82,30.96-4.63,21.78.39,39.54c.97,4.39-2.07,8.92-6.21,10.38-3.5,1.21-7.75-.45-9.46-3.83-1.79-3.64.23-8.92,4.52-9.6,2.92-.2,5.51,2.07,5.44,4.97-.19,3.23-3.86,4.45-5.12,1.18,0,0,.35-.19.35-.19h0Z"/>
  </g>
  <g class="cls-11">
    <polyline class="cls-18" points="353.58 23.46 353.58 40.28 362.15 40.28 362.15 17.35 311.55 17.35 311.55 40.28 320.11 40.28 320.11 23.16"/>
    <polyline class="cls-18" points="319.95 64.43 319.95 46.85 311.55 46.85 311.55 70.39 362.15 70.39 362.15 46.85 353.74 46.85 353.74 64.43"/>
    <polyline class="cls-18" points="310.48 23.77 303.44 23.77 303.44 62.29 310.48 62.29"/>
    <polyline class="cls-18" points="363.06 23.77 370.25 23.77 370.25 62.29 363.06 62.29"/>
    <path class="cls-1" d="M338.17,44.31c1.33,1.49,2.89.99,2.64-.99-.14-1.08-1.9-2.21-2.88-1.9-.87.16-1.85,1.71-2,3.1-.29,2.25,1.64,4.05,3.61,4.83,4.28,1.67,9.31-3.23,7.79-7.62-3.07-9.18-17.36-8.49-18.47,1.49-.65,8.27,6.27,12.65,14,10.78,0,0,.17.36.17.36-5.94,3.79-14.03,1.91-17.09-4.7-7.5-16.84,17.68-26.01,22.71-8.25.97,4.39-2.07,8.92-6.21,10.38-3.5,1.21-7.75-.45-9.46-3.83-1.79-3.64.23-8.92,4.52-9.6,2.92-.2,5.51,2.07,5.44,4.97-.19,3.23-3.86,4.45-5.12,1.18,0,0,.35-.19.35-.19h0Z"/>
  </g>
  <g class="cls-10">
    <polyline class="cls-18" points="468.64 23.97 468.64 40.78 477.2 40.78 477.2 17.85 426.6 17.85 426.6 40.78 435.16 40.78 435.16 23.66"/>
    <polyline class="cls-18" points="435 64.94 435 47.36 426.6 47.36 426.6 70.9 477.2 70.9 477.2 47.36 468.79 47.36 468.79 64.94"/>
    <polyline class="cls-18" points="425.53 24.27 418.5 24.27 418.5 62.8 425.53 62.8"/>
    <polyline class="cls-18" points="478.11 24.27 485.3 24.27 485.3 62.8 478.11 62.8"/>
    <path class="cls-1" d="M453.22,44.81c1.33,1.49,2.89.99,2.64-.99-.14-1.08-1.9-2.21-2.88-1.9-.87.16-1.85,1.71-2,3.1-.29,2.25,1.64,4.05,3.61,4.83,4.28,1.67,9.31-3.23,7.79-7.62-3.07-9.18-17.36-8.5-18.47,1.49-.65,8.27,6.27,12.65,14,10.78,0,0,.17.36.17.36-5.94,3.79-14.03,1.91-17.09-4.7-7.5-16.84,17.68-26.01,22.71-8.25.97,4.39-2.07,8.92-6.21,10.38-3.5,1.21-7.75-.45-9.46-3.83-1.79-3.64.23-8.92,4.52-9.6,2.92-.2,5.51,2.07,5.44,4.97-.19,3.23-3.86,4.45-5.12,1.18,0,0,.35-.19.35-.19h0Z"/>
  </g>
  <g class="cls-20">
    <polyline class="cls-18" points="296.9 104.71 296.9 121.52 305.47 121.52 305.47 98.59 254.87 98.59 254.87 121.52 263.43 121.52 263.43 104.4"/>
    <polyline class="cls-18" points="263.27 145.68 263.27 128.1 254.87 128.1 254.87 151.64 305.47 151.64 305.47 128.1 297.06 128.1 297.06 145.68"/>
    <polyline class="cls-18" points="253.8 105.01 246.76 105.01 246.76 143.54 253.8 143.54"/>
    <polyline class="cls-18" points="306.38 105.01 313.57 105.01 313.57 143.54 306.38 143.54"/>
    <path class="cls-1" d="M281.49,125.55c1.33,1.49,2.89.99,2.64-.99-.14-1.08-1.9-2.21-2.88-1.9-.87.16-1.85,1.71-2,3.1-.29,2.25,1.64,4.05,3.61,4.83,4.28,1.67,9.31-3.23,7.79-7.62-3.07-9.18-17.36-8.5-18.47,1.49-.65,8.27,6.27,12.65,14,10.78,0,0,.17.36.17.36-5.94,3.79-14.03,1.91-17.09-4.7-7.5-16.84,17.68-26.01,22.71-8.25.97,4.39-2.07,8.92-6.21,10.38-3.5,1.21-7.75-.45-9.46-3.83-1.79-3.64.23-8.92,4.52-9.6,2.92-.2,5.51,2.07,5.44,4.97-.19,3.23-3.86,4.45-5.12,1.18,0,0,.35-.19.35-.19h0Z"/>
  </g>
  <g class="cls-14">
    <polyline class="cls-18" points="179.9 105.22 179.9 122.03 188.46 122.03 188.46 99.1 137.86 99.1 137.86 122.03 146.42 122.03 146.42 104.91"/>
    <polyline class="cls-18" points="146.27 146.18 146.27 128.6 137.86 128.6 137.86 152.15 188.46 152.15 188.46 128.6 180.05 128.6 180.05 146.18"/>
    <polyline class="cls-18" points="136.79 105.52 129.76 105.52 129.76 144.04 136.79 144.04"/>
    <polyline class="cls-18" points="189.38 105.52 196.56 105.52 196.56 144.04 189.38 144.04"/>
    <path class="cls-1" d="M164.49,126.06c1.33,1.49,2.89.99,2.64-.99-.14-1.08-1.9-2.21-2.88-1.9-.87.16-1.85,1.71-2,3.1-.29,2.25,1.64,4.05,3.61,4.83,4.28,1.67,9.31-3.23,7.79-7.62-3.07-9.18-17.36-8.49-18.47,1.49-.65,8.27,6.27,12.65,14,10.78,0,0,.17.36.17.36-5.94,3.79-14.03,1.91-17.09-4.7-7.5-16.84,17.68-26.01,22.71-8.25.97,4.39-2.07,8.92-6.21,10.38-3.5,1.21-7.75-.45-9.46-3.83-1.79-3.64.23-8.92,4.52-9.6,2.92-.2,5.51,2.07,5.44,4.97-.19,3.23-3.86,4.45-5.12,1.18,0,0,.35-.19.35-.19h0Z"/>
  </g>
  <g class="cls-4">
    <polyline class="cls-18" points="62.99 102.01 62.99 118.82 71.55 118.82 71.55 95.89 20.95 95.89 20.95 118.82 29.51 118.82 29.51 101.7"/>
    <polyline class="cls-18" points="29.36 142.98 29.36 125.4 20.95 125.4 20.95 148.94 71.55 148.94 71.55 125.4 63.14 125.4 63.14 142.98"/>
    <polyline class="cls-18" points="19.88 102.31 12.85 102.31 12.85 140.84 19.88 140.84"/>
    <polyline class="cls-18" points="72.47 102.31 79.65 102.31 79.65 140.84 72.47 140.84"/>
    <path class="cls-1" d="M47.58,122.85c1.33,1.49,2.89.99,2.64-.99-.14-1.08-1.9-2.21-2.88-1.9-.87.16-1.85,1.71-2,3.1-.29,2.25,1.64,4.05,3.61,4.83,4.28,1.67,9.31-3.23,7.79-7.62-3.07-9.18-17.36-8.49-18.47,1.49-.65,8.27,6.27,12.65,14,10.78,0,0,.17.36.17.36-5.94,3.79-14.03,1.91-17.09-4.7-7.5-16.84,17.68-26.01,22.71-8.25.97,4.39-2.07,8.92-6.21,10.38-3.5,1.21-7.75-.45-9.46-3.83-1.79-3.64.23-8.92,4.52-9.6,2.92-.2,5.51,2.07,5.44,4.97-.19,3.23-3.86,4.45-5.12,1.18,0,0,.35-.19.35-.19h0Z"/>
  </g>
  <g class="cls-12">
    <polyline class="cls-18" points="411.25 103.87 411.25 120.68 419.81 120.68 419.81 97.75 369.21 97.75 369.21 120.68 377.77 120.68 377.77 103.56"/>
    <polyline class="cls-18" points="377.62 144.84 377.62 127.26 369.21 127.26 369.21 150.8 419.81 150.8 419.81 127.26 411.4 127.26 411.4 144.84"/>
    <polyline class="cls-18" points="368.14 104.17 361.11 104.17 361.11 142.7 368.14 142.7"/>
    <polyline class="cls-18" points="420.73 104.17 427.91 104.17 427.91 142.7 420.73 142.7"/>
    <path class="cls-1" d="M395.84,124.71c1.33,1.49,2.89.99,2.64-.99-.14-1.08-1.9-2.21-2.88-1.9-.87.16-1.85,1.71-2,3.1-.29,2.25,1.64,4.05,3.61,4.83,4.28,1.67,9.31-3.23,7.79-7.62-3.07-9.18-17.36-8.49-18.47,1.49-.65,8.27,6.27,12.65,14,10.78,0,0,.17.36.17.36-5.94,3.79-14.03,1.91-17.09-4.7-7.5-16.84,17.68-26.01,22.71-8.25.97,4.39-2.07,8.92-6.21,10.38-3.5,1.21-7.75-.45-9.46-3.83-1.79-3.64.23-8.92,4.52-9.6,2.92-.2,5.51,2.07,5.44,4.97-.19,3.23-3.86,4.45-5.12,1.18,0,0,.35-.19.35-.19h0Z"/>
  </g>
  <g class="cls-6">
    <polyline class="cls-18" points="526.3 104.38 526.3 121.19 534.86 121.19 534.86 98.26 484.26 98.26 484.26 121.19 492.82 121.19 492.82 104.07"/>
    <polyline class="cls-18" points="492.67 145.34 492.67 127.76 484.26 127.76 484.26 151.31 534.86 151.31 534.86 127.76 526.46 127.76 526.46 145.34"/>
    <polyline class="cls-18" points="483.19 104.68 476.16 104.68 476.16 143.2 483.19 143.2"/>
    <path class="cls-1" d="M510.89,125.22c1.33,1.49,2.89.99,2.64-.99-.14-1.08-1.9-2.21-2.88-1.9-.87.16-1.85,1.71-2,3.1-.29,2.25,1.64,4.05,3.61,4.83,4.28,1.67,9.31-3.23,7.79-7.62-3.07-9.18-17.36-8.5-18.47,1.49-.65,8.27,6.27,12.65,14,10.78,0,0,.17.36.17.36-5.94,3.79-14.03,1.91-17.09-4.7-7.5-16.84,17.68-26.01,22.71-8.25.97,4.39-2.07,8.92-6.21,10.38-3.5,1.21-7.75-.45-9.46-3.83-1.79-3.64.23-8.92,4.52-9.6,2.92-.2,5.51,2.07,5.44,4.97-.19,3.23-3.86,4.45-5.12,1.18,0,0,.35-.19.35-.19h0Z"/>
  </g>
  <g class="cls-13">
    <polyline class="cls-18" points="241.5 188.32 241.5 205.14 250.06 205.14 250.06 182.21 199.46 182.21 199.46 205.14 208.02 205.14 208.02 188.02"/>
    <polyline class="cls-18" points="207.87 229.29 207.87 211.71 199.46 211.71 199.46 235.25 250.06 235.25 250.06 211.71 241.65 211.71 241.65 229.29"/>
    <polyline class="cls-18" points="198.39 188.63 191.36 188.63 191.36 227.15 198.39 227.15"/>
    <polyline class="cls-18" points="250.98 188.63 258.16 188.63 258.16 227.15 250.98 227.15"/>
    <path class="cls-1" d="M226.09,209.17c1.33,1.49,2.89.99,2.64-.99-.14-1.08-1.9-2.21-2.88-1.9-.87.16-1.85,1.71-2,3.1-.29,2.25,1.64,4.05,3.61,4.83,4.28,1.67,9.31-3.23,7.79-7.62-3.07-9.18-17.36-8.49-18.47,1.49-.65,8.27,6.27,12.65,14,10.78,0,0,.17.36.17.36-5.94,3.79-14.03,1.91-17.09-4.7-7.5-16.84,17.68-26.01,22.71-8.25.97,4.39-2.07,8.92-6.21,10.38-3.5,1.21-7.75-.45-9.46-3.83-1.79-3.64.23-8.92,4.52-9.6,2.92-.2,5.51,2.07,5.44,4.97-.19,3.23-3.86,4.45-5.12,1.18,0,0,.35-.19.35-.19h0Z"/>
  </g>
  <g class="cls-15">
    <polyline class="cls-18" points="124.49 188.83 124.49 205.65 133.05 205.65 133.05 182.72 82.45 182.72 82.45 205.65 91.02 205.65 91.02 188.53"/>
    <polyline class="cls-18" points="90.86 229.8 90.86 212.22 82.45 212.22 82.45 235.76 133.05 235.76 133.05 212.22 124.65 212.22 124.65 229.8"/>
    <polyline class="cls-18" points="81.38 189.14 74.35 189.14 74.35 227.66 81.38 227.66"/>
    <polyline class="cls-18" points="133.97 189.14 141.16 189.14 141.16 227.66 133.97 227.66"/>
    <path class="cls-1" d="M109.08,209.68c1.33,1.49,2.89.99,2.64-.99-.14-1.08-1.9-2.21-2.88-1.9-.87.16-1.85,1.71-2,3.1-.29,2.25,1.64,4.05,3.61,4.83,4.28,1.67,9.31-3.23,7.79-7.62-3.07-9.18-17.36-8.49-18.47,1.49-.65,8.27,6.27,12.65,14,10.78,0,0,.17.36.17.36-5.94,3.79-14.03,1.91-17.09-4.7-7.5-16.84,17.68-26.01,22.71-8.25.97,4.39-2.07,8.92-6.21,10.38-3.5,1.21-7.75-.45-9.46-3.83-1.79-3.64.23-8.92,4.52-9.6,2.92-.2,5.51,2.07,5.44,4.97-.19,3.23-3.86,4.45-5.12,1.18,0,0,.35-.19.35-.19h0Z"/>
  </g>
  <g class="cls-3">
    <polyline class="cls-18" points="7.58 185.62 7.58 202.44 16.14 202.44 16.14 179.51 -34.46 179.51 -34.46 202.44 -25.9 202.44 -25.9 185.32"/>
    <polyline class="cls-18" points="-26.05 226.59 -26.05 209.01 -34.46 209.01 -34.46 232.55 16.14 232.55 16.14 209.01 7.73 209.01 7.73 226.59"/>
    <polyline class="cls-18" points="17.06 185.93 24.24 185.93 24.24 224.45 17.06 224.45"/>
    <path class="cls-1" d="M-7.83,206.47c1.33,1.49,2.89.99,2.64-.99-.14-1.08-1.9-2.21-2.88-1.9-.87.16-1.85,1.71-2,3.1-.29,2.25,1.64,4.05,3.61,4.83,4.28,1.67,9.31-3.23,7.79-7.62-3.07-9.18-17.36-8.49-18.47,1.49-.65,8.27,6.27,12.65,14,10.78,0,0,.17.36.17.36-5.94,3.79-14.03,1.91-17.09-4.7-7.5-16.84,17.68-26.01,22.71-8.25.97,4.39-2.07,8.92-6.21,10.38-3.5,1.21-7.75-.45-9.46-3.83-1.79-3.64.23-8.92,4.52-9.6,2.92-.2,5.51,2.07,5.44,4.97-.19,3.23-3.86,4.45-5.12,1.18,0,0,.35-.19.35-.19h0Z"/>
  </g>
  <g class="cls-7">
    <polyline class="cls-18" points="355.84 187.48 355.84 204.3 364.41 204.3 364.41 181.37 313.81 181.37 313.81 204.3 322.37 204.3 322.37 187.18"/>
    <polyline class="cls-18" points="322.21 228.45 322.21 210.87 313.81 210.87 313.81 234.41 364.41 234.41 364.41 210.87 356 210.87 356 228.45"/>
    <polyline class="cls-18" points="312.74 187.79 305.7 187.79 305.7 226.31 312.74 226.31"/>
    <polyline class="cls-18" points="365.32 187.79 372.51 187.79 372.51 226.31 365.32 226.31"/>
    <path class="cls-1" d="M340.43,208.33c1.33,1.49,2.89.99,2.64-.99-.14-1.08-1.9-2.21-2.88-1.9-.87.16-1.85,1.71-2,3.1-.29,2.25,1.64,4.05,3.61,4.83,4.28,1.67,9.31-3.23,7.79-7.62-3.07-9.18-17.36-8.5-18.47,1.49-.65,8.27,6.27,12.65,14,10.78,0,0,.17.36.17.36-5.94,3.79-14.03,1.91-17.09-4.7-7.5-16.84,17.68-26.01,22.71-8.25.97,4.39-2.07,8.92-6.21,10.38-3.5,1.21-7.75-.45-9.46-3.83-1.79-3.64.23-8.92,4.52-9.6,2.92-.2,5.51,2.07,5.44,4.97-.19,3.23-3.86,4.45-5.12,1.18,0,0,.35-.19.35-.19h0Z"/>
  </g>
  <g class="cls-22">
    <polyline class="cls-18" points="470.9 187.99 470.9 204.81 479.46 204.81 479.46 181.88 428.86 181.88 428.86 204.81 437.42 204.81 437.42 187.69"/>
    <polyline class="cls-18" points="437.26 228.96 437.26 211.38 428.86 211.38 428.86 234.92 479.46 234.92 479.46 211.38 471.05 211.38 471.05 228.96"/>
    <polyline class="cls-18" points="427.79 188.3 420.76 188.3 420.76 226.82 427.79 226.82"/>
    <polyline class="cls-18" points="480.37 188.3 487.56 188.3 487.56 226.82 480.37 226.82"/>
    <path class="cls-1" d="M455.48,208.84c1.33,1.49,2.89.99,2.64-.99-.14-1.08-1.9-2.21-2.88-1.9-.87.16-1.85,1.71-2,3.1-.29,2.25,1.64,4.05,3.61,4.83,4.28,1.67,9.31-3.23,7.79-7.62-3.07-9.18-17.36-8.49-18.47,1.49-.65,8.27,6.27,12.65,14,10.78,0,0,.17.36.17.36-5.94,3.79-14.03,1.91-17.09-4.7-7.5-16.84,17.68-26.01,22.71-8.25.97,4.39-2.07,8.92-6.21,10.38-3.5,1.21-7.75-.45-9.46-3.83-1.79-3.64.23-8.92,4.52-9.6,2.92-.2,5.51,2.07,5.44,4.97-.19,3.23-3.86,4.45-5.12,1.18,0,0,.35-.19.35-.19h0Z"/>
  </g>
  <g class="cls-16">
    <polyline class="cls-18" points="300.6 278.36 300.6 295.17 309.16 295.17 309.16 272.24 258.56 272.24 258.56 295.17 267.12 295.17 267.12 278.05"/>
    <polyline class="cls-18" points="266.97 319.33 266.97 301.75 258.56 301.75 258.56 325.29 309.16 325.29 309.16 301.75 300.75 301.75 300.75 319.33"/>
    <polyline class="cls-18" points="257.49 278.66 250.46 278.66 250.46 317.19 257.49 317.19"/>
    <polyline class="cls-18" points="310.07 278.66 317.26 278.66 317.26 317.19 310.07 317.19"/>
    <path class="cls-1" d="M285.19,299.2c1.33,1.49,2.89.99,2.64-.99-.14-1.08-1.9-2.21-2.88-1.9-.87.16-1.85,1.71-2,3.1-.29,2.25,1.64,4.05,3.61,4.83,4.28,1.67,9.31-3.23,7.79-7.62-3.07-9.18-17.36-8.5-18.47,1.49-.65,8.27,6.27,12.65,14,10.78,0,0,.17.36.17.36-5.94,3.79-14.03,1.91-17.09-4.7-7.5-16.84,17.68-26.01,22.71-8.25.97,4.39-2.07,8.92-6.21,10.38-3.5,1.21-7.75-.45-9.46-3.83-1.79-3.64.23-8.92,4.52-9.6,2.92-.2,5.51,2.07,5.44,4.97-.19,3.23-3.86,4.45-5.12,1.18,0,0,.35-.19.35-.19h0Z"/>
  </g>
  <g class="cls-8">
    <polyline class="cls-18" points="183.59 278.87 183.59 295.68 192.15 295.68 192.15 272.75 141.55 272.75 141.55 295.68 150.11 295.68 150.11 278.56"/>
    <polyline class="cls-18" points="149.96 319.83 149.96 302.25 141.55 302.25 141.55 325.8 192.15 325.8 192.15 302.25 183.75 302.25 183.75 319.83"/>
    <polyline class="cls-18" points="140.48 279.17 133.45 279.17 133.45 317.69 140.48 317.69"/>
    <polyline class="cls-18" points="193.07 279.17 200.25 279.17 200.25 317.69 193.07 317.69"/>
    <path class="cls-1" d="M168.18,299.71c1.33,1.49,2.89.99,2.64-.99-.14-1.08-1.9-2.21-2.88-1.9-.87.16-1.85,1.71-2,3.1-.29,2.25,1.64,4.05,3.61,4.83,4.28,1.67,9.31-3.23,7.79-7.62-3.07-9.18-17.36-8.49-18.47,1.49-.65,8.27,6.27,12.65,14,10.78,0,0,.17.36.17.36-5.94,3.79-14.03,1.91-17.09-4.7-7.5-16.84,17.68-26.01,22.71-8.25.97,4.39-2.07,8.92-6.21,10.38-3.5,1.21-7.75-.45-9.46-3.83-1.79-3.64.23-8.92,4.52-9.6,2.92-.2,5.51,2.07,5.44,4.97-.19,3.23-3.86,4.45-5.12,1.18,0,0,.35-.19.35-.19h0Z"/>
  </g>
  <g class="cls-19">
    <polyline class="cls-18" points="66.68 275.66 66.68 292.47 75.24 292.47 75.24 269.54 24.64 269.54 24.64 292.47 33.2 292.47 33.2 275.35"/>
    <polyline class="cls-18" points="33.05 316.62 33.05 299.04 24.64 299.04 24.64 322.59 75.24 322.59 75.24 299.04 66.83 299.04 66.83 316.62"/>
    <polyline class="cls-18" points="23.57 275.96 16.54 275.96 16.54 314.48 23.57 314.48"/>
    <polyline class="cls-18" points="76.16 275.96 83.34 275.96 83.34 314.48 76.16 314.48"/>
    <path class="cls-1" d="M51.27,296.5c1.33,1.49,2.89.99,2.64-.99-.14-1.08-1.9-2.21-2.88-1.9-.87.16-1.85,1.71-2,3.1-.29,2.25,1.64,4.05,3.61,4.83,4.28,1.67,9.31-3.23,7.79-7.62-3.07-9.18-17.36-8.49-18.47,1.49-.65,8.27,6.27,12.65,14,10.78,0,0,.17.36.17.36-5.94,3.79-14.03,1.91-17.09-4.7-7.5-16.84,17.68-26.01,22.71-8.25.97,4.39-2.07,8.92-6.21,10.38-3.5,1.21-7.75-.45-9.46-3.83-1.79-3.64.23-8.92,4.52-9.6,2.92-.2,5.51,2.07,5.44,4.97-.19,3.23-3.86,4.45-5.12,1.18,0,0,.35-.19.35-.19h0Z"/>
  </g>
  <g class="cls-2">
    <polyline class="cls-18" points="414.94 277.52 414.94 294.33 423.5 294.33 423.5 271.4 372.91 271.4 372.91 294.33 381.47 294.33 381.47 277.21"/>
    <polyline class="cls-18" points="381.31 318.49 381.31 300.91 372.91 300.91 372.91 324.45 423.5 324.45 423.5 300.91 415.1 300.91 415.1 318.49"/>
    <polyline class="cls-18" points="371.84 277.82 364.8 277.82 364.8 316.34 371.84 316.34"/>
    <polyline class="cls-18" points="424.42 277.82 431.61 277.82 431.61 316.34 424.42 316.34"/>
    <path class="cls-1" d="M399.53,298.36c1.33,1.49,2.89.99,2.64-.99-.14-1.08-1.9-2.21-2.88-1.9-.87.16-1.85,1.71-2,3.1-.29,2.25,1.64,4.05,3.61,4.83,4.28,1.67,9.31-3.23,7.79-7.62-3.07-9.18-17.36-8.49-18.47,1.49-.65,8.27,6.27,12.65,14,10.78,0,0,.17.36.17.36-5.94,3.79-14.03,1.91-17.09-4.7-7.5-16.84,17.68-26.01,22.71-8.25.97,4.39-2.07,8.92-6.21,10.38-3.5,1.21-7.75-.45-9.46-3.83-1.79-3.64.23-8.92,4.52-9.6,2.92-.2,5.51,2.07,5.44,4.97-.19,3.23-3.86,4.45-5.12,1.18,0,0,.35-.19.35-.19h0Z"/>
  </g>
  <g class="cls-9">
    <polyline class="cls-18" points="529.99 278.02 529.99 294.84 538.55 294.84 538.55 271.91 487.96 271.91 487.96 294.84 496.52 294.84 496.52 277.72"/>
    <polyline class="cls-18" points="496.36 318.99 496.36 301.41 487.96 301.41 487.96 324.95 538.55 324.95 538.55 301.41 530.15 301.41 530.15 318.99"/>
    <polyline class="cls-18" points="486.89 278.33 479.85 278.33 479.85 316.85 486.89 316.85"/>
  </g>
</svg>