<?xml version="1.0" encoding="UTF-8"?>
<svg id="Layer_1" data-name="Layer 1" xmlns="http://www.w3.org/2000/svg" xmlns:xlink="http://www.w3.org/1999/xlink" viewBox="0 0 500 350">
  <defs>
    <style>
      .cls-1 {
        filter: url(#outer-glow-23);
      }

      .cls-1, .cls-2, .cls-3, .cls-4, .cls-5, .cls-6, .cls-7, .cls-8, .cls-9, .cls-10, .cls-11, .cls-12, .cls-13, .cls-14, .cls-15, .cls-16, .cls-17, .cls-18, .cls-19, .cls-20, .cls-21, .cls-22, .cls-23, .cls-24, .cls-25, .cls-26, .cls-27, .cls-28, .cls-29, .cls-30, .cls-31 {
        fill: none;
        stroke: #cbcb2c;
        stroke-miterlimit: 10;
      }

      .cls-1, .cls-3, .cls-4, .cls-5, .cls-6, .cls-7, .cls-8, .cls-9, .cls-10, .cls-11, .cls-12, .cls-13, .cls-14, .cls-15, .cls-16, .cls-17, .cls-18, .cls-19, .cls-20, .cls-21, .cls-22, .cls-23, .cls-24, .cls-25, .cls-26, .cls-27, .cls-28, .cls-29, .cls-30, .cls-31 {
        stroke-width: 4px;
      }

      .cls-2 {
        stroke-width: 2px;
      }

      .cls-3 {
        filter: url(#outer-glow-15);
      }

      .cls-4 {
        filter: url(#outer-glow-28);
      }

      .cls-5 {
        filter: url(#outer-glow-14);
      }

      .cls-6 {
        filter: url(#outer-glow-10);
      }

      .cls-7 {
        filter: url(#outer-glow-9);
      }

      .cls-8 {
        filter: url(#outer-glow-22);
      }

      .cls-9 {
        filter: url(#outer-glow-12);
      }

      .cls-32 {
        fill: #b0a534;
      }

      .cls-10 {
        filter: url(#outer-glow-25);
      }

      .cls-11 {
        filter: url(#outer-glow-18);
      }

      .cls-12 {
        filter: url(#outer-glow-31);
      }

      .cls-13 {
        filter: url(#outer-glow-2);
      }

      .cls-14 {
        filter: url(#outer-glow-16);
      }

      .cls-15 {
        filter: url(#outer-glow-21);
      }

      .cls-16 {
        filter: url(#outer-glow-29);
      }

      .cls-17 {
        filter: url(#outer-glow-26);
      }

      .cls-18 {
        filter: url(#outer-glow-7);
      }

      .cls-19 {
        filter: url(#outer-glow-19);
      }

      .cls-20 {
        filter: url(#outer-glow-8);
      }

      .cls-21 {
        filter: url(#outer-glow-27);
      }

      .cls-22 {
        filter: url(#outer-glow-5);
      }

      .cls-23 {
        filter: url(#outer-glow-11);
      }

      .cls-24 {
        filter: url(#outer-glow-20);
      }

      .cls-25 {
        filter: url(#outer-glow-24);
      }

      .cls-26 {
        filter: url(#outer-glow-3);
      }

      .cls-27 {
        filter: url(#outer-glow-4);
      }

      .cls-28 {
        filter: url(#outer-glow-13);
      }

      .cls-29 {
        filter: url(#outer-glow-6);
      }

      .cls-30 {
        filter: url(#outer-glow-17);
      }

      .cls-31 {
        filter: url(#outer-glow-30);
      }
    </style>
    <filter id="outer-glow-2" x="-47.93" y="3.82" width="89.76" height="66" filterUnits="userSpaceOnUse">
      <feOffset dx="0" dy="0"/>
      <feGaussianBlur result="blur" stdDeviation="3"/>
      <feFlood flood-color="#292612" flood-opacity=".8"/>
      <feComposite in2="blur" operator="in"/>
      <feComposite in="SourceGraphic"/>
    </filter>
    <filter id="outer-glow-3" x="55.18" y="3.65" width="89.76" height="66.24" filterUnits="userSpaceOnUse">
      <feOffset dx="0" dy="0"/>
      <feGaussianBlur result="blur-2" stdDeviation="3"/>
      <feFlood flood-color="#292612" flood-opacity=".8"/>
      <feComposite in2="blur-2" operator="in"/>
      <feComposite in="SourceGraphic"/>
    </filter>
    <filter id="outer-glow-4" x="156.01" y="3.79" width="89.76" height="66" filterUnits="userSpaceOnUse">
      <feOffset dx="0" dy="0"/>
      <feGaussianBlur result="blur-3" stdDeviation="3"/>
      <feFlood flood-color="#292612" flood-opacity=".8"/>
      <feComposite in2="blur-3" operator="in"/>
      <feComposite in="SourceGraphic"/>
    </filter>
    <filter id="outer-glow-5" x="258.4" y="3.76" width="89.76" height="66" filterUnits="userSpaceOnUse">
      <feOffset dx="0" dy="0"/>
      <feGaussianBlur result="blur-4" stdDeviation="3"/>
      <feFlood flood-color="#292612" flood-opacity=".8"/>
      <feComposite in2="blur-4" operator="in"/>
      <feComposite in="SourceGraphic"/>
    </filter>
    <filter id="outer-glow-6" x="358.57" y="3.76" width="89.76" height="66" filterUnits="userSpaceOnUse">
      <feOffset dx="0" dy="0"/>
      <feGaussianBlur result="blur-5" stdDeviation="3"/>
      <feFlood flood-color="#292612" flood-opacity=".8"/>
      <feComposite in2="blur-5" operator="in"/>
      <feComposite in="SourceGraphic"/>
    </filter>
    <filter id="outer-glow-7" x="457.61" y="3.75" width="89.76" height="66" filterUnits="userSpaceOnUse">
      <feOffset dx="0" dy="0"/>
      <feGaussianBlur result="blur-6" stdDeviation="3"/>
      <feFlood flood-color="#292612" flood-opacity=".8"/>
      <feComposite in2="blur-6" operator="in"/>
      <feComposite in="SourceGraphic"/>
    </filter>
    <filter id="outer-glow-8" x="-85.69" y="67.63" width="89.76" height="66" filterUnits="userSpaceOnUse">
      <feOffset dx="0" dy="0"/>
      <feGaussianBlur result="blur-7" stdDeviation="3"/>
      <feFlood flood-color="#292612" flood-opacity=".8"/>
      <feComposite in2="blur-7" operator="in"/>
      <feComposite in="SourceGraphic"/>
    </filter>
    <filter id="outer-glow-9" x="17.51" y="67.63" width="89.76" height="66" filterUnits="userSpaceOnUse">
      <feOffset dx="0" dy="0"/>
      <feGaussianBlur result="blur-8" stdDeviation="3"/>
      <feFlood flood-color="#292612" flood-opacity=".8"/>
      <feComposite in2="blur-8" operator="in"/>
      <feComposite in="SourceGraphic"/>
    </filter>
    <filter id="outer-glow-10" x="118.31" y="67.63" width="89.76" height="66" filterUnits="userSpaceOnUse">
      <feOffset dx="0" dy="0"/>
      <feGaussianBlur result="blur-9" stdDeviation="3"/>
      <feFlood flood-color="#292612" flood-opacity=".8"/>
      <feComposite in2="blur-9" operator="in"/>
      <feComposite in="SourceGraphic"/>
    </filter>
    <filter id="outer-glow-11" x="220.79" y="67.63" width="89.76" height="66" filterUnits="userSpaceOnUse">
      <feOffset dx="0" dy="0"/>
      <feGaussianBlur result="blur-10" stdDeviation="3"/>
      <feFlood flood-color="#292612" flood-opacity=".8"/>
      <feComposite in2="blur-10" operator="in"/>
      <feComposite in="SourceGraphic"/>
    </filter>
    <filter id="outer-glow-12" x="320.87" y="67.63" width="89.76" height="66" filterUnits="userSpaceOnUse">
      <feOffset dx="0" dy="0"/>
      <feGaussianBlur result="blur-11" stdDeviation="3"/>
      <feFlood flood-color="#292612" flood-opacity=".8"/>
      <feComposite in2="blur-11" operator="in"/>
      <feComposite in="SourceGraphic"/>
    </filter>
    <filter id="outer-glow-13" x="419.99" y="67.63" width="89.76" height="66" filterUnits="userSpaceOnUse">
      <feOffset dx="0" dy="0"/>
      <feGaussianBlur result="blur-12" stdDeviation="3"/>
      <feFlood flood-color="#292612" flood-opacity=".8"/>
      <feComposite in2="blur-12" operator="in"/>
      <feComposite in="SourceGraphic"/>
    </filter>
    <filter id="outer-glow-14" x="-34.23" y="139.32" width="89.76" height="66" filterUnits="userSpaceOnUse">
      <feOffset dx="0" dy="0"/>
      <feGaussianBlur result="blur-13" stdDeviation="3"/>
      <feFlood flood-color="#292612" flood-opacity=".8"/>
      <feComposite in2="blur-13" operator="in"/>
      <feComposite in="SourceGraphic"/>
    </filter>
    <filter id="outer-glow-15" x="68.97" y="139.32" width="89.76" height="66" filterUnits="userSpaceOnUse">
      <feOffset dx="0" dy="0"/>
      <feGaussianBlur result="blur-14" stdDeviation="3"/>
      <feFlood flood-color="#292612" flood-opacity=".8"/>
      <feComposite in2="blur-14" operator="in"/>
      <feComposite in="SourceGraphic"/>
    </filter>
    <filter id="outer-glow-16" x="169.77" y="139.32" width="89.76" height="66" filterUnits="userSpaceOnUse">
      <feOffset dx="0" dy="0"/>
      <feGaussianBlur result="blur-15" stdDeviation="3"/>
      <feFlood flood-color="#292612" flood-opacity=".8"/>
      <feComposite in2="blur-15" operator="in"/>
      <feComposite in="SourceGraphic"/>
    </filter>
    <filter id="outer-glow-17" x="272.25" y="139.32" width="89.76" height="66" filterUnits="userSpaceOnUse">
      <feOffset dx="0" dy="0"/>
      <feGaussianBlur result="blur-16" stdDeviation="3"/>
      <feFlood flood-color="#292612" flood-opacity=".8"/>
      <feComposite in2="blur-16" operator="in"/>
      <feComposite in="SourceGraphic"/>
    </filter>
    <filter id="outer-glow-18" x="372.33" y="139.32" width="89.76" height="66" filterUnits="userSpaceOnUse">
      <feOffset dx="0" dy="0"/>
      <feGaussianBlur result="blur-17" stdDeviation="3"/>
      <feFlood flood-color="#292612" flood-opacity=".8"/>
      <feComposite in2="blur-17" operator="in"/>
      <feComposite in="SourceGraphic"/>
    </filter>
    <filter id="outer-glow-19" x="471.45" y="139.32" width="89.76" height="66" filterUnits="userSpaceOnUse">
      <feOffset dx="0" dy="0"/>
      <feGaussianBlur result="blur-18" stdDeviation="3"/>
      <feFlood flood-color="#292612" flood-opacity=".8"/>
      <feComposite in2="blur-18" operator="in"/>
      <feComposite in="SourceGraphic"/>
    </filter>
    <filter id="outer-glow-20" x="-67.37" y="211.1" width="89.76" height="66" filterUnits="userSpaceOnUse">
      <feOffset dx="0" dy="0"/>
      <feGaussianBlur result="blur-19" stdDeviation="3"/>
      <feFlood flood-color="#292612" flood-opacity=".8"/>
      <feComposite in2="blur-19" operator="in"/>
      <feComposite in="SourceGraphic"/>
    </filter>
    <filter id="outer-glow-21" x="35.83" y="211.1" width="89.76" height="66" filterUnits="userSpaceOnUse">
      <feOffset dx="0" dy="0"/>
      <feGaussianBlur result="blur-20" stdDeviation="3"/>
      <feFlood flood-color="#292612" flood-opacity=".8"/>
      <feComposite in2="blur-20" operator="in"/>
      <feComposite in="SourceGraphic"/>
    </filter>
    <filter id="outer-glow-22" x="136.87" y="211.1" width="89.52" height="66" filterUnits="userSpaceOnUse">
      <feOffset dx="0" dy="0"/>
      <feGaussianBlur result="blur-21" stdDeviation="3"/>
      <feFlood flood-color="#292612" flood-opacity=".8"/>
      <feComposite in2="blur-21" operator="in"/>
      <feComposite in="SourceGraphic"/>
    </filter>
    <filter id="outer-glow-23" x="239.11" y="211.1" width="89.76" height="66" filterUnits="userSpaceOnUse">
      <feOffset dx="0" dy="0"/>
      <feGaussianBlur result="blur-22" stdDeviation="3"/>
      <feFlood flood-color="#292612" flood-opacity=".8"/>
      <feComposite in2="blur-22" operator="in"/>
      <feComposite in="SourceGraphic"/>
    </filter>
    <filter id="outer-glow-24" x="339.19" y="211.1" width="89.76" height="66" filterUnits="userSpaceOnUse">
      <feOffset dx="0" dy="0"/>
      <feGaussianBlur result="blur-23" stdDeviation="3"/>
      <feFlood flood-color="#292612" flood-opacity=".8"/>
      <feComposite in2="blur-23" operator="in"/>
      <feComposite in="SourceGraphic"/>
    </filter>
    <filter id="outer-glow-25" x="438.31" y="211.1" width="89.76" height="66" filterUnits="userSpaceOnUse">
      <feOffset dx="0" dy="0"/>
      <feGaussianBlur result="blur-24" stdDeviation="3"/>
      <feFlood flood-color="#292612" flood-opacity=".8"/>
      <feComposite in2="blur-24" operator="in"/>
      <feComposite in="SourceGraphic"/>
    </filter>
    <filter id="outer-glow-26" x="-21.76" y="277.94" width="89.76" height="66" filterUnits="userSpaceOnUse">
      <feOffset dx="0" dy="0"/>
      <feGaussianBlur result="blur-25" stdDeviation="3"/>
      <feFlood flood-color="#292612" flood-opacity=".8"/>
      <feComposite in2="blur-25" operator="in"/>
      <feComposite in="SourceGraphic"/>
    </filter>
    <filter id="outer-glow-27" x="81.44" y="277.94" width="89.76" height="66" filterUnits="userSpaceOnUse">
      <feOffset dx="0" dy="0"/>
      <feGaussianBlur result="blur-26" stdDeviation="3"/>
      <feFlood flood-color="#292612" flood-opacity=".8"/>
      <feComposite in2="blur-26" operator="in"/>
      <feComposite in="SourceGraphic"/>
    </filter>
    <filter id="outer-glow-28" x="182.48" y="277.94" width="89.76" height="66" filterUnits="userSpaceOnUse">
      <feOffset dx="0" dy="0"/>
      <feGaussianBlur result="blur-27" stdDeviation="3"/>
      <feFlood flood-color="#292612" flood-opacity=".8"/>
      <feComposite in2="blur-27" operator="in"/>
      <feComposite in="SourceGraphic"/>
    </filter>
    <filter id="outer-glow-29" x="284.72" y="277.94" width="89.76" height="66" filterUnits="userSpaceOnUse">
      <feOffset dx="0" dy="0"/>
      <feGaussianBlur result="blur-28" stdDeviation="3"/>
      <feFlood flood-color="#292612" flood-opacity=".8"/>
      <feComposite in2="blur-28" operator="in"/>
      <feComposite in="SourceGraphic"/>
    </filter>
    <filter id="outer-glow-30" x="384.8" y="277.94" width="89.76" height="66" filterUnits="userSpaceOnUse">
      <feOffset dx="0" dy="0"/>
      <feGaussianBlur result="blur-29" stdDeviation="3"/>
      <feFlood flood-color="#292612" flood-opacity=".8"/>
      <feComposite in2="blur-29" operator="in"/>
      <feComposite in="SourceGraphic"/>
    </filter>
    <filter id="outer-glow-31" x="483.92" y="277.94" width="89.76" height="66" filterUnits="userSpaceOnUse">
      <feOffset dx="0" dy="0"/>
      <feGaussianBlur result="blur-30" stdDeviation="3"/>
      <feFlood flood-color="#292612" flood-opacity=".8"/>
      <feComposite in2="blur-30" operator="in"/>
      <feComposite in="SourceGraphic"/>
    </filter>
  </defs>
  <rect class="cls-32" width="500" height="350"/>
  <g>
    <g>
      <path class="cls-13" d="M6.93,31.24c.26.17,1.08.76,1.29,1.79.3,1.51-.93,3.06-2.18,3.37-1.82.45-3.76-1.69-4.37-3.57-.77-2.39.44-4.95,2.08-6.35,2.41-2.06,6.03-1.9,8.34-.4,3.62,2.36,4.09,8.1,1.69,11.71-2.79,4.19-8.31,3.8-8.64,3.77-5.24-.46-7.8-5.02-8.14-5.66-1.66-3.08-1.97-7.25.1-10.62C0,20.58,5.72,20.38,7.23,20.32c1.76-.06,3.36.21,4.79.68,4.16,1.35,7.38,4.7,8.86,8.82,3.52,9.8,7.04,19.61,10.57,29.41C9.21,45.27-13.02,31.31-35.25,17.35c4.14,11.05,8.27,22.1,12.41,33.15.49,1.02,1.46,2.71,3.28,4.17,2.64,2.11,5.44,2.44,6.85,2.58,1.82.19,5.5.56,8.83-1.89C-.61,52.95.18,49.39.38,48.41c.22-1.09.81-3.96-.69-6.95-1.65-3.28-5.13-5.3-8.64-5.46-1.02-.05-4.6-.05-7.34,2.68-2.24,2.23-3.92,6.28-2.18,9.83,1.02,2.08,3.34,4.26,6.45,4.27,3.65.01,5.71-2.96,5.86-3.18.36-.53,2.12-3.17.89-5.56-.97-1.89-3.54-3.11-5.06-2.28-.84.46-1.66,1.71-1.19,2.68.32.65,1.15,1.03,2.08.99"/>
      <line class="cls-2" x1="6.63" y1="44.54" x2="-.42" y2="52.23"/>
    </g>
    <g>
      <path class="cls-26" d="M110.04,31.24c.26.17,1.08.76,1.29,1.79.3,1.51-.93,3.06-2.18,3.37-1.82.45-3.76-1.69-4.37-3.57-.77-2.39.44-4.95,2.08-6.35,2.41-2.06,6.03-1.9,8.34-.4,3.62,2.36,4.09,8.1,1.69,11.71-2.79,4.19-8.31,3.8-8.64,3.77-5.24-.46-7.8-5.02-8.14-5.66-1.66-3.08-1.97-7.25.1-10.62,2.89-4.7,8.62-4.91,10.12-4.96,1.76-.06,3.36.21,4.79.68,4.16,1.35,7.38,4.7,8.86,8.82,3.52,9.8,7.04,19.61,10.57,29.41-22.23-13.96-44.47-27.92-66.7-41.89,4.14,11.05,8.27,22.1,12.41,33.15.49,1.02,1.46,2.71,3.28,4.17,2.64,2.11,5.44,2.44,6.85,2.58,1.82.19,5.5.56,8.83-1.89,3.28-2.41,4.07-5.97,4.27-6.95.22-1.09.81-3.96-.69-6.95-1.65-3.28-5.13-5.3-8.64-5.46-1.02-.05-4.6-.05-7.34,2.68-2.24,2.23-3.92,6.28-2.18,9.83,1.02,2.08,3.34,4.26,6.45,4.27,3.65.01,5.71-2.96,5.86-3.18.36-.53,2.12-3.17.89-5.56-.97-1.89-3.54-3.11-5.06-2.28-.84.46-1.66,1.71-1.19,2.68.32.65,1.15,1.03,2.08.99"/>
      <line class="cls-2" x1="109.74" y1="44.54" x2="102.7" y2="52.23"/>
      <line class="cls-2" x1="93.32" y1="32.68" x2="99.12" y2="26.78"/>
    </g>
    <g>
      <path class="cls-27" d="M210.99,31.24c.26.17,1.08.76,1.29,1.79.3,1.51-.93,3.06-2.18,3.37-1.82.45-3.76-1.69-4.37-3.57-.77-2.39.44-4.95,2.08-6.35,2.41-2.06,6.03-1.9,8.34-.4,3.62,2.36,4.09,8.1,1.69,11.71-2.79,4.19-8.31,3.8-8.64,3.77-5.24-.46-7.8-5.02-8.14-5.66-1.66-3.08-1.97-7.25.1-10.62,2.89-4.7,8.62-4.91,10.12-4.96,1.76-.06,3.36.21,4.79.68,4.16,1.35,7.38,4.7,8.86,8.82,3.52,9.8,7.04,19.61,10.57,29.41-22.23-13.96-44.47-27.92-66.7-41.89,4.14,11.05,8.27,22.1,12.41,33.15.49,1.02,1.46,2.71,3.28,4.17,2.64,2.11,5.44,2.44,6.85,2.58,1.82.19,5.5.56,8.83-1.89,3.28-2.41,4.07-5.97,4.27-6.95.22-1.09.81-3.96-.69-6.95-1.65-3.28-5.13-5.3-8.64-5.46-1.02-.05-4.6-.05-7.34,2.68-2.24,2.23-3.92,6.28-2.18,9.83,1.02,2.08,3.34,4.26,6.45,4.27,3.65.01,5.71-2.96,5.86-3.18.36-.53,2.12-3.17.89-5.56-.97-1.89-3.54-3.11-5.06-2.28-.84.46-1.66,1.71-1.19,2.68.32.65,1.15,1.03,2.08.99"/>
      <line class="cls-2" x1="210.7" y1="44.54" x2="203.65" y2="52.23"/>
      <line class="cls-2" x1="194.27" y1="32.68" x2="200.08" y2="26.78"/>
    </g>
    <g>
      <path class="cls-22" d="M313.32,31.24c.26.17,1.08.76,1.29,1.79.3,1.51-.93,3.06-2.18,3.37-1.82.45-3.76-1.69-4.37-3.57-.77-2.39.44-4.95,2.08-6.35,2.41-2.06,6.03-1.9,8.34-.4,3.62,2.36,4.09,8.1,1.69,11.71-2.79,4.19-8.31,3.8-8.64,3.77-5.24-.46-7.8-5.02-8.14-5.66-1.66-3.08-1.97-7.25.1-10.62,2.89-4.7,8.62-4.91,10.12-4.96,1.76-.06,3.36.21,4.79.68,4.16,1.35,7.38,4.7,8.86,8.82,3.52,9.8,7.04,19.61,10.57,29.41-22.23-13.96-44.47-27.92-66.7-41.89,4.14,11.05,8.27,22.1,12.41,33.15.49,1.02,1.46,2.71,3.28,4.17,2.64,2.11,5.44,2.44,6.85,2.58,1.82.19,5.5.56,8.83-1.89,3.28-2.41,4.07-5.97,4.27-6.95.22-1.09.81-3.96-.69-6.95-1.65-3.28-5.13-5.3-8.64-5.46-1.02-.05-4.6-.05-7.34,2.68-2.24,2.23-3.92,6.28-2.18,9.83,1.02,2.08,3.34,4.26,6.45,4.27,3.65.01,5.71-2.96,5.86-3.18.36-.53,2.12-3.17.89-5.56-.97-1.89-3.54-3.11-5.06-2.28-.84.46-1.66,1.71-1.19,2.68.32.65,1.15,1.03,2.08.99"/>
      <line class="cls-2" x1="313.02" y1="44.54" x2="305.97" y2="52.23"/>
      <line class="cls-2" x1="296.6" y1="32.68" x2="302.4" y2="26.78"/>
    </g>
    <g>
      <path class="cls-29" d="M413.47,31.24c.26.17,1.08.76,1.29,1.79.3,1.51-.93,3.06-2.18,3.37-1.82.45-3.76-1.69-4.37-3.57-.77-2.39.44-4.95,2.08-6.35,2.41-2.06,6.03-1.9,8.34-.4,3.62,2.36,4.09,8.1,1.69,11.71-2.79,4.19-8.31,3.8-8.64,3.77-5.24-.46-7.8-5.02-8.14-5.66-1.66-3.08-1.97-7.25.1-10.62,2.89-4.7,8.62-4.91,10.12-4.96,1.76-.06,3.36.21,4.79.68,4.16,1.35,7.38,4.7,8.86,8.82,3.52,9.8,7.04,19.61,10.57,29.41-22.23-13.96-44.47-27.92-66.7-41.89,4.14,11.05,8.27,22.1,12.41,33.15.49,1.02,1.46,2.71,3.28,4.17,2.64,2.11,5.44,2.44,6.85,2.58,1.82.19,5.5.56,8.83-1.89,3.28-2.41,4.07-5.97,4.27-6.95.22-1.09.81-3.96-.69-6.95-1.65-3.28-5.13-5.3-8.64-5.46-1.02-.05-4.6-.05-7.34,2.68-2.24,2.23-3.92,6.28-2.18,9.83,1.02,2.08,3.34,4.26,6.45,4.27,3.65.01,5.71-2.96,5.86-3.18.36-.53,2.12-3.17.89-5.56-.97-1.89-3.54-3.11-5.06-2.28-.84.46-1.66,1.71-1.19,2.68.32.65,1.15,1.03,2.08.99"/>
      <line class="cls-2" x1="413.18" y1="44.54" x2="406.13" y2="52.23"/>
      <line class="cls-2" x1="396.75" y1="32.68" x2="402.56" y2="26.78"/>
    </g>
    <g>
      <path class="cls-18" d="M512.62,31.24c.26.17,1.08.76,1.29,1.79.3,1.51-.93,3.06-2.18,3.37-1.82.45-3.76-1.69-4.37-3.57-.77-2.39.44-4.95,2.08-6.35,2.41-2.06,6.03-1.9,8.34-.4,3.62,2.36,4.09,8.1,1.69,11.71-2.79,4.19-8.31,3.8-8.64,3.77-5.24-.46-7.8-5.02-8.14-5.66-1.66-3.08-1.97-7.25.1-10.62,2.89-4.7,8.62-4.91,10.12-4.96,1.76-.06,3.36.21,4.79.68,4.16,1.35,7.38,4.7,8.86,8.82,3.52,9.8,7.04,19.61,10.57,29.41-22.23-13.96-44.47-27.92-66.7-41.89,4.14,11.05,8.27,22.1,12.41,33.15.49,1.02,1.46,2.71,3.28,4.17,2.64,2.11,5.44,2.44,6.85,2.58,1.82.19,5.5.56,8.83-1.89,3.28-2.41,4.07-5.97,4.27-6.95.22-1.09.81-3.96-.69-6.95-1.65-3.28-5.13-5.3-8.64-5.46-1.02-.05-4.6-.05-7.34,2.68-2.24,2.23-3.92,6.28-2.18,9.83,1.02,2.08,3.34,4.26,6.45,4.27,3.65.01,5.71-2.96,5.86-3.18.36-.53,2.12-3.17.89-5.56-.97-1.89-3.54-3.11-5.06-2.28-.84.46-1.66,1.71-1.19,2.68.32.65,1.15,1.03,2.08.99"/>
      <line class="cls-2" x1="495.89" y1="32.68" x2="501.7" y2="26.78"/>
    </g>
  </g>
  <g>
    <path class="cls-20" d="M-30.79,95.12c.26.17,1.08.76,1.29,1.79.3,1.51-.93,3.06-2.18,3.37-1.82.45-3.76-1.69-4.37-3.57-.77-2.39.44-4.95,2.08-6.35,2.41-2.06,6.03-1.9,8.34-.4,3.62,2.36,4.09,8.1,1.69,11.71-2.79,4.19-8.31,3.8-8.64,3.77-5.24-.46-7.8-5.02-8.14-5.66-1.66-3.08-1.97-7.25.1-10.62,2.89-4.7,8.62-4.91,10.12-4.96,1.76-.06,3.36.21,4.79.68,4.16,1.35,7.38,4.7,8.86,8.82,3.52,9.8,7.04,19.61,10.57,29.41-22.23-13.96-44.47-27.92-66.7-41.89,4.14,11.05,8.27,22.1,12.41,33.15.49,1.02,1.46,2.71,3.28,4.17,2.64,2.11,5.44,2.44,6.85,2.58,1.82.19,5.5.56,8.83-1.89,3.28-2.41,4.07-5.97,4.27-6.95.22-1.09.81-3.96-.69-6.95-1.65-3.28-5.13-5.3-8.64-5.46-1.02-.05-4.6-.05-7.34,2.68-2.24,2.23-3.92,6.28-2.18,9.83,1.02,2.08,3.34,4.26,6.45,4.27,3.65.01,5.71-2.96,5.86-3.18.36-.53,2.12-3.17.89-5.56-.97-1.89-3.54-3.11-5.06-2.28-.84.46-1.66,1.71-1.19,2.68.32.65,1.15,1.03,2.08.99"/>
    <g>
      <path class="cls-7" d="M72.32,95.12c.26.17,1.08.76,1.29,1.79.3,1.51-.93,3.06-2.18,3.37-1.82.45-3.76-1.69-4.37-3.57-.77-2.39.44-4.95,2.08-6.35,2.41-2.06,6.03-1.9,8.34-.4,3.62,2.36,4.09,8.1,1.69,11.71-2.79,4.19-8.31,3.8-8.64,3.77-5.24-.46-7.8-5.02-8.14-5.66-1.66-3.08-1.97-7.25.1-10.62,2.89-4.7,8.62-4.91,10.12-4.96,1.76-.06,3.36.21,4.79.68,4.16,1.35,7.38,4.7,8.86,8.82,3.52,9.8,7.04,19.61,10.57,29.41-22.23-13.96-44.47-27.92-66.7-41.89,4.14,11.05,8.27,22.1,12.41,33.15.49,1.02,1.46,2.71,3.28,4.17,2.64,2.11,5.44,2.44,6.85,2.58,1.82.19,5.5.56,8.83-1.89,3.28-2.41,4.07-5.97,4.27-6.95.22-1.09.81-3.96-.69-6.95-1.65-3.28-5.13-5.3-8.64-5.46-1.02-.05-4.6-.05-7.34,2.68-2.24,2.23-3.92,6.28-2.18,9.83,1.02,2.08,3.34,4.26,6.45,4.27,3.65.01,5.71-2.96,5.86-3.18.36-.53,2.12-3.17.89-5.56-.97-1.89-3.54-3.11-5.06-2.28-.84.46-1.66,1.71-1.19,2.68.32.65,1.15,1.03,2.08.99"/>
      <line class="cls-2" x1="72.02" y1="108.42" x2="64.98" y2="116.11"/>
      <line class="cls-2" x1="55.6" y1="96.56" x2="61.4" y2="90.65"/>
    </g>
    <g>
      <path class="cls-6" d="M173.27,95.12c.26.17,1.08.76,1.29,1.79.3,1.51-.93,3.06-2.18,3.37-1.82.45-3.76-1.69-4.37-3.57-.77-2.39.44-4.95,2.08-6.35,2.41-2.06,6.03-1.9,8.34-.4,3.62,2.36,4.09,8.1,1.69,11.71-2.79,4.19-8.31,3.8-8.64,3.77-5.24-.46-7.8-5.02-8.14-5.66-1.66-3.08-1.97-7.25.1-10.62,2.89-4.7,8.62-4.91,10.12-4.96,1.76-.06,3.36.21,4.79.68,4.16,1.35,7.38,4.7,8.86,8.82,3.52,9.8,7.04,19.61,10.57,29.41-22.23-13.96-44.47-27.92-66.7-41.89,4.14,11.05,8.27,22.1,12.41,33.15.49,1.02,1.46,2.71,3.28,4.17,2.64,2.11,5.44,2.44,6.85,2.58,1.82.19,5.5.56,8.83-1.89,3.28-2.41,4.07-5.97,4.27-6.95.22-1.09.81-3.96-.69-6.95-1.65-3.28-5.13-5.3-8.64-5.46-1.02-.05-4.6-.05-7.34,2.68-2.24,2.23-3.92,6.28-2.18,9.83,1.02,2.08,3.34,4.26,6.45,4.27,3.65.01,5.71-2.96,5.86-3.18.36-.53,2.12-3.17.89-5.56-.97-1.89-3.54-3.11-5.06-2.28-.84.46-1.66,1.71-1.19,2.68.32.65,1.15,1.03,2.08.99"/>
      <line class="cls-2" x1="172.98" y1="108.42" x2="165.93" y2="116.11"/>
      <line class="cls-2" x1="156.55" y1="96.56" x2="162.36" y2="90.65"/>
    </g>
    <g>
      <path class="cls-23" d="M275.6,95.12c.26.17,1.08.76,1.29,1.79.3,1.51-.93,3.06-2.18,3.37-1.82.45-3.76-1.69-4.37-3.57-.77-2.39.44-4.95,2.08-6.35,2.41-2.06,6.03-1.9,8.34-.4,3.62,2.36,4.09,8.1,1.69,11.71-2.79,4.19-8.31,3.8-8.64,3.77-5.24-.46-7.8-5.02-8.14-5.66-1.66-3.08-1.97-7.25.1-10.62,2.89-4.7,8.62-4.91,10.12-4.96,1.76-.06,3.36.21,4.79.68,4.16,1.35,7.38,4.7,8.86,8.82,3.52,9.8,7.04,19.61,10.57,29.41-22.23-13.96-44.47-27.92-66.7-41.89,4.14,11.05,8.27,22.1,12.41,33.15.49,1.02,1.46,2.71,3.28,4.17,2.64,2.11,5.44,2.44,6.85,2.58,1.82.19,5.5.56,8.83-1.89,3.28-2.41,4.07-5.97,4.27-6.95.22-1.09.81-3.96-.69-6.95-1.65-3.28-5.13-5.3-8.64-5.46-1.02-.05-4.6-.05-7.34,2.68-2.24,2.23-3.92,6.28-2.18,9.83,1.02,2.08,3.34,4.26,6.45,4.27,3.65.01,5.71-2.96,5.86-3.18.36-.53,2.12-3.17.89-5.56-.97-1.89-3.54-3.11-5.06-2.28-.84.46-1.66,1.71-1.19,2.68.32.65,1.15,1.03,2.08.99"/>
      <line class="cls-2" x1="275.3" y1="108.42" x2="268.25" y2="116.11"/>
      <line class="cls-2" x1="258.87" y1="96.56" x2="264.68" y2="90.65"/>
    </g>
    <g>
      <path class="cls-9" d="M375.75,95.12c.26.17,1.08.76,1.29,1.79.3,1.51-.93,3.06-2.18,3.37-1.82.45-3.76-1.69-4.37-3.57-.77-2.39.44-4.95,2.08-6.35,2.41-2.06,6.03-1.9,8.34-.4,3.62,2.36,4.09,8.1,1.69,11.71-2.79,4.19-8.31,3.8-8.64,3.77-5.24-.46-7.8-5.02-8.14-5.66-1.66-3.08-1.97-7.25.1-10.62,2.89-4.7,8.62-4.91,10.12-4.96,1.76-.06,3.36.21,4.79.68,4.16,1.35,7.38,4.7,8.86,8.82,3.52,9.8,7.04,19.61,10.57,29.41-22.23-13.96-44.47-27.92-66.7-41.89,4.14,11.05,8.27,22.1,12.41,33.15.49,1.02,1.46,2.71,3.28,4.17,2.64,2.11,5.44,2.44,6.85,2.58,1.82.19,5.5.56,8.83-1.89,3.28-2.41,4.07-5.97,4.27-6.95.22-1.09.81-3.96-.69-6.95-1.65-3.28-5.13-5.3-8.64-5.46-1.02-.05-4.6-.05-7.34,2.68-2.24,2.23-3.92,6.28-2.18,9.83,1.02,2.08,3.34,4.26,6.45,4.27,3.65.01,5.71-2.96,5.86-3.18.36-.53,2.12-3.17.89-5.56-.97-1.89-3.54-3.11-5.06-2.28-.84.46-1.66,1.71-1.19,2.68.32.65,1.15,1.03,2.08.99"/>
      <line class="cls-2" x1="375.46" y1="108.42" x2="368.41" y2="116.11"/>
      <line class="cls-2" x1="359.03" y1="96.56" x2="364.84" y2="90.65"/>
    </g>
    <g>
      <path class="cls-28" d="M474.89,95.12c.26.17,1.08.76,1.29,1.79.3,1.51-.93,3.06-2.18,3.37-1.82.45-3.76-1.69-4.37-3.57-.77-2.39.44-4.95,2.08-6.35,2.41-2.06,6.03-1.9,8.34-.4,3.62,2.36,4.09,8.1,1.69,11.71-2.79,4.19-8.31,3.8-8.64,3.77-5.24-.46-7.8-5.02-8.14-5.66-1.66-3.08-1.97-7.25.1-10.62,2.89-4.7,8.62-4.91,10.12-4.96,1.76-.06,3.36.21,4.79.68,4.16,1.35,7.38,4.7,8.86,8.82,3.52,9.8,7.04,19.61,10.57,29.41-22.23-13.96-44.47-27.92-66.7-41.89,4.14,11.05,8.27,22.1,12.41,33.15.49,1.02,1.46,2.71,3.28,4.17,2.64,2.11,5.44,2.44,6.85,2.58,1.82.19,5.5.56,8.83-1.89,3.28-2.41,4.07-5.97,4.27-6.95.22-1.09.81-3.96-.69-6.95-1.65-3.28-5.13-5.3-8.64-5.46-1.02-.05-4.6-.05-7.34,2.68-2.24,2.23-3.92,6.28-2.18,9.83,1.02,2.08,3.34,4.26,6.45,4.27,3.65.01,5.71-2.96,5.86-3.18.36-.53,2.12-3.17.89-5.56-.97-1.89-3.54-3.11-5.06-2.28-.84.46-1.66,1.71-1.19,2.68.32.65,1.15,1.03,2.08.99"/>
      <line class="cls-2" x1="474.6" y1="108.42" x2="467.55" y2="116.11"/>
      <line class="cls-2" x1="458.17" y1="96.56" x2="463.98" y2="90.65"/>
    </g>
  </g>
  <g>
    <g>
      <path class="cls-5" d="M20.67,166.81c.26.17,1.08.76,1.29,1.79.3,1.51-.93,3.06-2.18,3.37-1.82.45-3.76-1.69-4.37-3.57-.77-2.39.44-4.95,2.08-6.35,2.41-2.06,6.03-1.9,8.34-.4,3.62,2.36,4.09,8.1,1.69,11.71-2.79,4.19-8.31,3.8-8.64,3.77-5.24-.46-7.8-5.02-8.14-5.66-1.66-3.08-1.97-7.25.1-10.62,2.89-4.7,8.62-4.91,10.12-4.96,1.76-.06,3.36.21,4.79.68,4.16,1.35,7.38,4.7,8.86,8.82,3.52,9.8,7.04,19.61,10.57,29.41-22.23-13.96-44.47-27.92-66.7-41.89,4.14,11.05,8.27,22.1,12.41,33.15.49,1.02,1.46,2.71,3.28,4.17,2.64,2.11,5.44,2.44,6.85,2.58,1.82.19,5.5.56,8.83-1.89,3.28-2.41,4.07-5.97,4.27-6.95.22-1.09.81-3.96-.69-6.95-1.65-3.28-5.13-5.3-8.64-5.46-1.02-.05-4.6-.05-7.34,2.68-2.24,2.23-3.92,6.28-2.18,9.83,1.02,2.08,3.34,4.26,6.45,4.27,3.65.01,5.71-2.96,5.86-3.18.36-.53,2.12-3.17.89-5.56-.97-1.89-3.54-3.11-5.06-2.28-.84.46-1.66,1.71-1.19,2.68.32.65,1.15,1.03,2.08.99"/>
      <line class="cls-2" x1="20.37" y1="180.11" x2="13.33" y2="187.8"/>
      <line class="cls-2" x1="3.95" y1="168.25" x2="9.75" y2="162.34"/>
    </g>
    <g>
      <path class="cls-3" d="M123.78,166.81c.26.17,1.08.76,1.29,1.79.3,1.51-.93,3.06-2.18,3.37-1.82.45-3.76-1.69-4.37-3.57-.77-2.39.44-4.95,2.08-6.35,2.41-2.06,6.03-1.9,8.34-.4,3.62,2.36,4.09,8.1,1.69,11.71-2.79,4.19-8.31,3.8-8.64,3.77-5.24-.46-7.8-5.02-8.14-5.66-1.66-3.08-1.97-7.25.1-10.62,2.89-4.7,8.62-4.91,10.12-4.96,1.76-.06,3.36.21,4.79.68,4.16,1.35,7.38,4.7,8.86,8.82,3.52,9.8,7.04,19.61,10.57,29.41-22.23-13.96-44.47-27.92-66.7-41.89,4.14,11.05,8.27,22.1,12.41,33.15.49,1.02,1.46,2.71,3.28,4.17,2.64,2.11,5.44,2.44,6.85,2.58,1.82.19,5.5.56,8.83-1.89,3.28-2.41,4.07-5.97,4.27-6.95.22-1.09.81-3.96-.69-6.95-1.65-3.28-5.13-5.3-8.64-5.46-1.02-.05-4.6-.05-7.34,2.68-2.24,2.23-3.92,6.28-2.18,9.83,1.02,2.08,3.34,4.26,6.45,4.27,3.65.01,5.71-2.96,5.86-3.18.36-.53,2.12-3.17.89-5.56-.97-1.89-3.54-3.11-5.06-2.28-.84.46-1.66,1.71-1.19,2.68.32.65,1.15,1.03,2.08.99"/>
      <line class="cls-2" x1="123.49" y1="180.11" x2="116.44" y2="187.8"/>
      <line class="cls-2" x1="107.06" y1="168.25" x2="112.87" y2="162.34"/>
    </g>
    <g>
      <path class="cls-14" d="M224.74,166.81c.26.17,1.08.76,1.29,1.79.3,1.51-.93,3.06-2.18,3.37-1.82.45-3.76-1.69-4.37-3.57-.77-2.39.44-4.95,2.08-6.35,2.41-2.06,6.03-1.9,8.34-.4,3.62,2.36,4.09,8.1,1.69,11.71-2.79,4.19-8.31,3.8-8.64,3.77-5.24-.46-7.8-5.02-8.14-5.66-1.66-3.08-1.97-7.25.1-10.62,2.89-4.7,8.62-4.91,10.12-4.96,1.76-.06,3.36.21,4.79.68,4.16,1.35,7.38,4.7,8.86,8.82,3.52,9.8,7.04,19.61,10.57,29.41-22.23-13.96-44.47-27.92-66.7-41.89,4.14,11.05,8.27,22.1,12.41,33.15.49,1.02,1.46,2.71,3.28,4.17,2.64,2.11,5.44,2.44,6.85,2.58,1.82.19,5.5.56,8.83-1.89,3.28-2.41,4.07-5.97,4.27-6.95.22-1.09.81-3.96-.69-6.95-1.65-3.28-5.13-5.3-8.64-5.46-1.02-.05-4.6-.05-7.34,2.68-2.24,2.23-3.92,6.28-2.18,9.83,1.02,2.08,3.34,4.26,6.45,4.27,3.65.01,5.71-2.96,5.86-3.18.36-.53,2.12-3.17.89-5.56-.97-1.89-3.54-3.11-5.06-2.28-.84.46-1.66,1.71-1.19,2.68.32.65,1.15,1.03,2.08.99"/>
      <line class="cls-2" x1="224.44" y1="180.11" x2="217.39" y2="187.8"/>
      <line class="cls-2" x1="208.01" y1="168.25" x2="213.82" y2="162.34"/>
    </g>
    <g>
      <path class="cls-30" d="M327.06,166.81c.26.17,1.08.76,1.29,1.79.3,1.51-.93,3.06-2.18,3.37-1.82.45-3.76-1.69-4.37-3.57-.77-2.39.44-4.95,2.08-6.35,2.41-2.06,6.03-1.9,8.34-.4,3.62,2.36,4.09,8.1,1.69,11.71-2.79,4.19-8.31,3.8-8.64,3.77-5.24-.46-7.8-5.02-8.14-5.66-1.66-3.08-1.97-7.25.1-10.62,2.89-4.7,8.62-4.91,10.12-4.96,1.76-.06,3.36.21,4.79.68,4.16,1.35,7.38,4.7,8.86,8.82,3.52,9.8,7.04,19.61,10.57,29.41-22.23-13.96-44.47-27.92-66.7-41.89,4.14,11.05,8.27,22.1,12.41,33.15.49,1.02,1.46,2.71,3.28,4.17,2.64,2.11,5.44,2.44,6.85,2.58,1.82.19,5.5.56,8.83-1.89,3.28-2.41,4.07-5.97,4.27-6.95.22-1.09.81-3.96-.69-6.95-1.65-3.28-5.13-5.3-8.64-5.46-1.02-.05-4.6-.05-7.34,2.68-2.24,2.23-3.92,6.28-2.18,9.83,1.02,2.08,3.34,4.26,6.45,4.27,3.65.01,5.71-2.96,5.86-3.18.36-.53,2.12-3.17.89-5.56-.97-1.89-3.54-3.11-5.06-2.28-.84.46-1.66,1.71-1.19,2.68.32.65,1.15,1.03,2.08.99"/>
      <line class="cls-2" x1="326.76" y1="180.11" x2="319.72" y2="187.8"/>
      <line class="cls-2" x1="310.34" y1="168.25" x2="316.14" y2="162.34"/>
    </g>
    <g>
      <path class="cls-11" d="M427.22,166.81c.26.17,1.08.76,1.29,1.79.3,1.51-.93,3.06-2.18,3.37-1.82.45-3.76-1.69-4.37-3.57-.77-2.39.44-4.95,2.08-6.35,2.41-2.06,6.03-1.9,8.34-.4,3.62,2.36,4.09,8.1,1.69,11.71-2.79,4.19-8.31,3.8-8.64,3.77-5.24-.46-7.8-5.02-8.14-5.66-1.66-3.08-1.97-7.25.1-10.62,2.89-4.7,8.62-4.91,10.12-4.96,1.76-.06,3.36.21,4.79.68,4.16,1.35,7.38,4.7,8.86,8.82,3.52,9.8,7.04,19.61,10.57,29.41-22.23-13.96-44.47-27.92-66.7-41.89,4.14,11.05,8.27,22.1,12.41,33.15.49,1.02,1.46,2.71,3.28,4.17,2.64,2.11,5.44,2.44,6.85,2.58,1.82.19,5.5.56,8.83-1.89,3.28-2.41,4.07-5.97,4.27-6.95.22-1.09.81-3.96-.69-6.95-1.65-3.28-5.13-5.3-8.64-5.46-1.02-.05-4.6-.05-7.34,2.68-2.24,2.23-3.92,6.28-2.18,9.83,1.02,2.08,3.34,4.26,6.45,4.27,3.65.01,5.71-2.96,5.86-3.18.36-.53,2.12-3.17.89-5.56-.97-1.89-3.54-3.11-5.06-2.28-.84.46-1.66,1.71-1.19,2.68.32.65,1.15,1.03,2.08.99"/>
      <line class="cls-2" x1="426.92" y1="180.11" x2="419.87" y2="187.8"/>
      <line class="cls-2" x1="410.49" y1="168.25" x2="416.3" y2="162.34"/>
    </g>
    <path class="cls-19" d="M526.36,166.81c.26.17,1.08.76,1.29,1.79.3,1.51-.93,3.06-2.18,3.37-1.82.45-3.76-1.69-4.37-3.57-.77-2.39.44-4.95,2.08-6.35,2.41-2.06,6.03-1.9,8.34-.4,3.62,2.36,4.09,8.1,1.69,11.71-2.79,4.19-8.31,3.8-8.64,3.77-5.24-.46-7.8-5.02-8.14-5.66-1.66-3.08-1.97-7.25.1-10.62,2.89-4.7,8.62-4.91,10.12-4.96,1.76-.06,3.36.21,4.79.68,4.16,1.35,7.38,4.7,8.86,8.82,3.52,9.8,7.04,19.61,10.57,29.41-22.23-13.96-44.47-27.92-66.7-41.89,4.14,11.05,8.27,22.1,12.41,33.15.49,1.02,1.46,2.71,3.28,4.17,2.64,2.11,5.44,2.44,6.85,2.58,1.82.19,5.5.56,8.83-1.89,3.28-2.41,4.07-5.97,4.27-6.95.22-1.09.81-3.96-.69-6.95-1.65-3.28-5.13-5.3-8.64-5.46-1.02-.05-4.6-.05-7.34,2.68-2.24,2.23-3.92,6.28-2.18,9.83,1.02,2.08,3.34,4.26,6.45,4.27,3.65.01,5.71-2.96,5.86-3.18.36-.53,2.12-3.17.89-5.56-.97-1.89-3.54-3.11-5.06-2.28-.84.46-1.66,1.71-1.19,2.68.32.65,1.15,1.03,2.08.99"/>
  </g>
  <g>
    <path class="cls-24" d="M-12.41,238.5c.26.17,1.08.76,1.29,1.79.3,1.51-.93,3.06-2.18,3.37-1.82.45-3.76-1.69-4.37-3.57-.77-2.39.44-4.95,2.08-6.35,2.41-2.06,6.03-1.9,8.34-.4,3.62,2.36,4.09,8.1,1.69,11.71-2.79,4.19-8.31,3.8-8.64,3.77-5.24-.46-7.8-5.02-8.14-5.66-1.66-3.08-1.97-7.25.1-10.62,2.89-4.7,8.62-4.91,10.12-4.96,1.76-.06,3.36.21,4.79.68,4.16,1.35,7.38,4.7,8.86,8.82,3.52,9.8,7.04,19.61,10.57,29.41-22.23-13.96-44.47-27.92-66.7-41.89,4.14,11.05,8.27,22.1,12.41,33.15.49,1.02,1.46,2.71,3.28,4.17,2.64,2.11,5.44,2.44,6.85,2.58,1.82.19,5.5.56,8.83-1.89,3.28-2.41,4.07-5.97,4.27-6.95.22-1.09.81-3.96-.69-6.95-1.65-3.28-5.13-5.3-8.64-5.46-1.02-.05-4.6-.05-7.34,2.68-2.24,2.23-3.92,6.28-2.18,9.83,1.02,2.08,3.34,4.26,6.45,4.27,3.65.01,5.71-2.96,5.86-3.18.36-.53,2.12-3.17.89-5.56-.97-1.89-3.54-3.11-5.06-2.28-.84.46-1.66,1.71-1.19,2.68.32.65,1.15,1.03,2.08.99"/>
    <g>
      <path class="cls-15" d="M90.7,238.5c.26.17,1.08.76,1.29,1.79.3,1.51-.93,3.06-2.18,3.37-1.82.45-3.76-1.69-4.37-3.57-.77-2.39.44-4.95,2.08-6.35,2.41-2.06,6.03-1.9,8.34-.4,3.62,2.36,4.09,8.1,1.69,11.71-2.79,4.19-8.31,3.8-8.64,3.77-5.24-.46-7.8-5.02-8.14-5.66-1.66-3.08-1.97-7.25.1-10.62,2.89-4.7,8.62-4.91,10.12-4.96,1.76-.06,3.36.21,4.79.68,4.16,1.35,7.38,4.7,8.86,8.82,3.52,9.8,7.04,19.61,10.57,29.41-22.23-13.96-44.47-27.92-66.7-41.89,4.14,11.05,8.27,22.1,12.41,33.15.49,1.02,1.46,2.71,3.28,4.17,2.64,2.11,5.44,2.44,6.85,2.58,1.82.19,5.5.56,8.83-1.89,3.28-2.41,4.07-5.97,4.27-6.95.22-1.09.81-3.96-.69-6.95-1.65-3.28-5.13-5.3-8.64-5.46-1.02-.05-4.6-.05-7.34,2.68-2.24,2.23-3.92,6.28-2.18,9.83,1.02,2.08,3.34,4.26,6.45,4.27,3.65.01,5.71-2.96,5.86-3.18.36-.53,2.12-3.17.89-5.56-.97-1.89-3.54-3.11-5.06-2.28-.84.46-1.66,1.71-1.19,2.68.32.65,1.15,1.03,2.08.99"/>
      <line class="cls-2" x1="90.41" y1="251.8" x2="83.36" y2="259.49"/>
      <line class="cls-2" x1="73.98" y1="239.94" x2="79.79" y2="234.03"/>
    </g>
    <g>
      <path class="cls-8" d="M191.66,238.5c.26.17,1.08.76,1.29,1.79.3,1.51-.93,3.06-2.18,3.37-1.82.45-3.76-1.69-4.37-3.57-.77-2.39.44-4.95,2.08-6.35,2.41-2.06,6.03-1.9,8.34-.4,3.62,2.36,4.09,8.1,1.69,11.71-2.79,4.19-8.31,3.8-8.64,3.77-5.24-.46-7.8-5.02-8.14-5.66-1.66-3.08-1.97-7.25.1-10.62,2.89-4.7,8.62-4.91,10.12-4.96,1.76-.06,3.36.21,4.79.68,4.16,1.35,7.38,4.7,8.86,8.82,3.52,9.8,7.04,19.61,10.57,29.41-22.23-13.96-44.47-27.92-66.7-41.89,4.14,11.05,8.27,22.1,12.41,33.15.49,1.02,1.46,2.71,3.28,4.17,2.64,2.11,5.44,2.44,6.85,2.58,1.82.19,5.5.56,8.83-1.89,3.28-2.41,4.07-5.97,4.27-6.95.22-1.09.81-3.96-.69-6.95-1.65-3.28-5.13-5.3-8.64-5.46-1.02-.05-4.6-.05-7.34,2.68-2.24,2.23-3.92,6.28-2.18,9.83,1.02,2.08,3.34,4.26,6.45,4.27,3.65.01,5.71-2.96,5.86-3.18.36-.53,2.12-3.17.89-5.56-.97-1.89-3.54-3.11-5.06-2.28-.84.46-1.66,1.71-1.19,2.68.32.65,1.15,1.03,2.08.99"/>
      <line class="cls-2" x1="191.36" y1="251.8" x2="184.31" y2="259.49"/>
      <line class="cls-2" x1="174.93" y1="239.94" x2="180.74" y2="234.03"/>
    </g>
    <g>
      <path class="cls-1" d="M293.98,238.5c.26.17,1.08.76,1.29,1.79.3,1.51-.93,3.06-2.18,3.37-1.82.45-3.76-1.69-4.37-3.57-.77-2.39.44-4.95,2.08-6.35,2.41-2.06,6.03-1.9,8.34-.4,3.62,2.36,4.09,8.1,1.69,11.71-2.79,4.19-8.31,3.8-8.64,3.77-5.24-.46-7.8-5.02-8.14-5.66-1.66-3.08-1.97-7.25.1-10.62,2.89-4.7,8.62-4.91,10.12-4.96,1.76-.06,3.36.21,4.79.68,4.16,1.35,7.38,4.7,8.86,8.82,3.52,9.8,7.04,19.61,10.57,29.41-22.23-13.96-44.47-27.92-66.7-41.89,4.14,11.05,8.27,22.1,12.41,33.15.49,1.02,1.46,2.71,3.28,4.17,2.64,2.11,5.44,2.44,6.85,2.58,1.82.19,5.5.56,8.83-1.89,3.28-2.41,4.07-5.97,4.27-6.95.22-1.09.81-3.96-.69-6.95-1.65-3.28-5.13-5.3-8.64-5.46-1.02-.05-4.6-.05-7.34,2.68-2.24,2.23-3.92,6.28-2.18,9.83,1.02,2.08,3.34,4.26,6.45,4.27,3.65.01,5.71-2.96,5.86-3.18.36-.53,2.12-3.17.89-5.56-.97-1.89-3.54-3.11-5.06-2.28-.84.46-1.66,1.71-1.19,2.68.32.65,1.15,1.03,2.08.99"/>
      <line class="cls-2" x1="293.68" y1="251.8" x2="286.64" y2="259.49"/>
      <line class="cls-2" x1="277.26" y1="239.94" x2="283.06" y2="234.03"/>
    </g>
    <g>
      <path class="cls-25" d="M394.14,238.5c.26.17,1.08.76,1.29,1.79.3,1.51-.93,3.06-2.18,3.37-1.82.45-3.76-1.69-4.37-3.57-.77-2.39.44-4.95,2.08-6.35,2.41-2.06,6.03-1.9,8.34-.4,3.62,2.36,4.09,8.1,1.69,11.71-2.79,4.19-8.31,3.8-8.64,3.77-5.24-.46-7.8-5.02-8.14-5.66-1.66-3.08-1.97-7.25.1-10.62,2.89-4.7,8.62-4.91,10.12-4.96,1.76-.06,3.36.21,4.79.68,4.16,1.35,7.38,4.7,8.86,8.82,3.52,9.8,7.04,19.61,10.57,29.41-22.23-13.96-44.47-27.92-66.7-41.89,4.14,11.05,8.27,22.1,12.41,33.15.49,1.02,1.46,2.71,3.28,4.17,2.64,2.11,5.44,2.44,6.85,2.58,1.82.19,5.5.56,8.83-1.89,3.28-2.41,4.07-5.97,4.27-6.95.22-1.09.81-3.96-.69-6.95-1.65-3.28-5.13-5.3-8.64-5.46-1.02-.05-4.6-.05-7.34,2.68-2.24,2.23-3.92,6.28-2.18,9.83,1.02,2.08,3.34,4.26,6.45,4.27,3.65.01,5.71-2.96,5.86-3.18.36-.53,2.12-3.17.89-5.56-.97-1.89-3.54-3.11-5.06-2.28-.84.46-1.66,1.71-1.19,2.68.32.65,1.15,1.03,2.08.99"/>
      <line class="cls-2" x1="393.84" y1="251.8" x2="386.79" y2="259.49"/>
      <line class="cls-2" x1="377.41" y1="239.94" x2="383.22" y2="234.03"/>
    </g>
    <g>
      <path class="cls-10" d="M493.28,238.5c.26.17,1.08.76,1.29,1.79.3,1.51-.93,3.06-2.18,3.37-1.82.45-3.76-1.69-4.37-3.57-.77-2.39.44-4.95,2.08-6.35,2.41-2.06,6.03-1.9,8.34-.4,3.62,2.36,4.09,8.1,1.69,11.71-2.79,4.19-8.31,3.8-8.64,3.77-5.24-.46-7.8-5.02-8.14-5.66-1.66-3.08-1.97-7.25.1-10.62,2.89-4.7,8.62-4.91,10.12-4.96,1.76-.06,3.36.21,4.79.68,4.16,1.35,7.38,4.7,8.86,8.82,3.52,9.8,7.04,19.61,10.57,29.41-22.23-13.96-44.47-27.92-66.7-41.89,4.14,11.05,8.27,22.1,12.41,33.15.49,1.02,1.46,2.71,3.28,4.17,2.64,2.11,5.44,2.44,6.85,2.58,1.82.19,5.5.56,8.83-1.89,3.28-2.41,4.07-5.97,4.27-6.95.22-1.09.81-3.96-.69-6.95-1.65-3.28-5.13-5.3-8.64-5.46-1.02-.05-4.6-.05-7.34,2.68-2.24,2.23-3.92,6.28-2.18,9.83,1.02,2.08,3.34,4.26,6.45,4.27,3.65.01,5.71-2.96,5.86-3.18.36-.53,2.12-3.17.89-5.56-.97-1.89-3.54-3.11-5.06-2.28-.84.46-1.66,1.71-1.19,2.68.32.65,1.15,1.03,2.08.99"/>
      <line class="cls-2" x1="492.98" y1="251.8" x2="485.93" y2="259.49"/>
      <line class="cls-2" x1="476.55" y1="239.94" x2="482.36" y2="234.03"/>
    </g>
  </g>
  <g>
    <g>
      <path class="cls-17" d="M33.25,305.34c.26.17,1.08.76,1.29,1.79.3,1.51-.93,3.06-2.18,3.37-1.82.45-3.76-1.69-4.37-3.57-.77-2.39.44-4.95,2.08-6.35,2.41-2.06,6.03-1.9,8.34-.4,3.62,2.36,4.09,8.1,1.69,11.71-2.79,4.19-8.31,3.8-8.64,3.77-5.24-.46-7.8-5.02-8.14-5.66-1.66-3.08-1.97-7.25.1-10.62,2.89-4.7,8.62-4.91,10.12-4.96,1.76-.06,3.36.21,4.79.68,4.16,1.35,7.38,4.7,8.86,8.82,3.52,9.8,7.04,19.61,10.57,29.41-22.23-13.96-44.47-27.92-66.7-41.89,4.14,11.05,8.27,22.1,12.41,33.15.49,1.02,1.46,2.71,3.28,4.17,2.64,2.11,5.44,2.44,6.85,2.58,1.82.19,5.5.56,8.83-1.89,3.28-2.41,4.07-5.97,4.27-6.95.22-1.09.81-3.96-.69-6.95-1.65-3.28-5.13-5.3-8.64-5.46-1.02-.05-4.6-.05-7.34,2.68-2.24,2.23-3.92,6.28-2.18,9.83,1.02,2.08,3.34,4.26,6.45,4.27,3.65.01,5.71-2.96,5.86-3.18.36-.53,2.12-3.17.89-5.56-.97-1.89-3.54-3.11-5.06-2.28-.84.46-1.66,1.71-1.19,2.68.32.65,1.15,1.03,2.08.99"/>
      <line class="cls-2" x1="32.95" y1="318.64" x2="25.9" y2="326.33"/>
      <line class="cls-2" x1="16.52" y1="306.78" x2="22.33" y2="300.87"/>
    </g>
    <g>
      <path class="cls-21" d="M136.36,305.34c.26.17,1.08.76,1.29,1.79.3,1.51-.93,3.06-2.18,3.37-1.82.45-3.76-1.69-4.37-3.57-.77-2.39.44-4.95,2.08-6.35,2.41-2.06,6.03-1.9,8.34-.4,3.62,2.36,4.09,8.1,1.69,11.71-2.79,4.19-8.31,3.8-8.64,3.77-5.24-.46-7.8-5.02-8.14-5.66-1.66-3.08-1.97-7.25.1-10.62,2.89-4.7,8.62-4.91,10.12-4.96,1.76-.06,3.36.21,4.79.68,4.16,1.35,7.38,4.7,8.86,8.82,3.52,9.8,7.04,19.61,10.57,29.41-22.23-13.96-44.47-27.92-66.7-41.89,4.14,11.05,8.27,22.1,12.41,33.15.49,1.02,1.46,2.71,3.28,4.17,2.64,2.11,5.44,2.44,6.85,2.58,1.82.19,5.5.56,8.83-1.89,3.28-2.41,4.07-5.97,4.27-6.95.22-1.09.81-3.96-.69-6.95-1.65-3.28-5.13-5.3-8.64-5.46-1.02-.05-4.6-.05-7.34,2.68-2.24,2.23-3.92,6.28-2.18,9.83,1.02,2.08,3.34,4.26,6.45,4.27,3.65.01,5.71-2.96,5.86-3.18.36-.53,2.12-3.17.89-5.56-.97-1.89-3.54-3.11-5.06-2.28-.84.46-1.66,1.71-1.19,2.68.32.65,1.15,1.03,2.08.99"/>
      <line class="cls-2" x1="136.06" y1="318.64" x2="129.01" y2="326.33"/>
      <line class="cls-2" x1="119.64" y1="306.78" x2="125.44" y2="300.87"/>
    </g>
    <g>
      <path class="cls-4" d="M237.31,305.34c.26.17,1.08.76,1.29,1.79.3,1.51-.93,3.06-2.18,3.37-1.82.45-3.76-1.69-4.37-3.57-.77-2.39.44-4.95,2.08-6.35,2.41-2.06,6.03-1.9,8.34-.4,3.62,2.36,4.09,8.1,1.69,11.71-2.79,4.19-8.31,3.8-8.64,3.77-5.24-.46-7.8-5.02-8.14-5.66-1.66-3.08-1.97-7.25.1-10.62,2.89-4.7,8.62-4.91,10.12-4.96,1.76-.06,3.36.21,4.79.68,4.16,1.35,7.38,4.7,8.86,8.82,3.52,9.8,7.04,19.61,10.57,29.41-22.23-13.96-44.47-27.92-66.7-41.89,4.14,11.05,8.27,22.1,12.41,33.15.49,1.02,1.46,2.71,3.28,4.17,2.64,2.11,5.44,2.44,6.85,2.58,1.82.19,5.5.56,8.83-1.89,3.28-2.41,4.07-5.97,4.27-6.95.22-1.09.81-3.96-.69-6.95-1.65-3.28-5.13-5.3-8.64-5.46-1.02-.05-4.6-.05-7.34,2.68-2.24,2.23-3.92,6.28-2.18,9.83,1.02,2.08,3.34,4.26,6.45,4.27,3.65.01,5.71-2.96,5.86-3.18.36-.53,2.12-3.17.89-5.56-.97-1.89-3.54-3.11-5.06-2.28-.84.46-1.66,1.71-1.19,2.68.32.65,1.15,1.03,2.08.99"/>
      <line class="cls-2" x1="237.01" y1="318.64" x2="229.97" y2="326.33"/>
      <line class="cls-2" x1="220.59" y1="306.78" x2="226.39" y2="300.87"/>
    </g>
    <g>
      <path class="cls-16" d="M339.64,305.34c.26.17,1.08.76,1.29,1.79.3,1.51-.93,3.06-2.18,3.37-1.82.45-3.76-1.69-4.37-3.57-.77-2.39.44-4.95,2.08-6.35,2.41-2.06,6.03-1.9,8.34-.4,3.62,2.36,4.09,8.1,1.69,11.71-2.79,4.19-8.31,3.8-8.64,3.77-5.24-.46-7.8-5.02-8.14-5.66-1.66-3.08-1.97-7.25.1-10.62,2.89-4.7,8.62-4.91,10.12-4.96,1.76-.06,3.36.21,4.79.68,4.16,1.35,7.38,4.7,8.86,8.82,3.52,9.8,7.04,19.61,10.57,29.41-22.23-13.96-44.47-27.92-66.7-41.89,4.14,11.05,8.27,22.1,12.41,33.15.49,1.02,1.46,2.71,3.28,4.17,2.64,2.11,5.44,2.44,6.85,2.58,1.82.19,5.5.56,8.83-1.89,3.28-2.41,4.07-5.97,4.27-6.95.22-1.09.81-3.96-.69-6.95-1.65-3.28-5.13-5.3-8.64-5.46-1.02-.05-4.6-.05-7.34,2.68-2.24,2.23-3.92,6.28-2.18,9.83,1.02,2.08,3.34,4.26,6.45,4.27,3.65.01,5.71-2.96,5.86-3.18.36-.53,2.12-3.17.89-5.56-.97-1.89-3.54-3.11-5.06-2.28-.84.46-1.66,1.71-1.19,2.68.32.65,1.15,1.03,2.08.99"/>
      <line class="cls-2" x1="339.34" y1="318.64" x2="332.29" y2="326.33"/>
      <line class="cls-2" x1="322.91" y1="306.78" x2="328.72" y2="300.87"/>
    </g>
    <g>
      <path class="cls-31" d="M439.79,305.34c.26.17,1.08.76,1.29,1.79.3,1.51-.93,3.06-2.18,3.37-1.82.45-3.76-1.69-4.37-3.57-.77-2.39.44-4.95,2.08-6.35,2.41-2.06,6.03-1.9,8.34-.4,3.62,2.36,4.09,8.1,1.69,11.71-2.79,4.19-8.31,3.8-8.64,3.77-5.24-.46-7.8-5.02-8.14-5.66-1.66-3.08-1.97-7.25.1-10.62,2.89-4.7,8.62-4.91,10.12-4.96,1.76-.06,3.36.21,4.79.68,4.16,1.35,7.38,4.7,8.86,8.82,3.52,9.8,7.04,19.61,10.57,29.41-22.23-13.96-44.47-27.92-66.7-41.89,4.14,11.05,8.27,22.1,12.41,33.15.49,1.02,1.46,2.71,3.28,4.17,2.64,2.11,5.44,2.44,6.85,2.58,1.82.19,5.5.56,8.83-1.89,3.28-2.41,4.07-5.97,4.27-6.95.22-1.09.81-3.96-.69-6.95-1.65-3.28-5.13-5.3-8.64-5.46-1.02-.05-4.6-.05-7.34,2.68-2.24,2.23-3.92,6.28-2.18,9.83,1.02,2.08,3.34,4.26,6.45,4.27,3.65.01,5.71-2.96,5.86-3.18.36-.53,2.12-3.17.89-5.56-.97-1.89-3.54-3.11-5.06-2.28-.84.46-1.66,1.71-1.19,2.68.32.65,1.15,1.03,2.08.99"/>
      <line class="cls-2" x1="439.49" y1="318.64" x2="432.45" y2="326.33"/>
      <line class="cls-2" x1="423.07" y1="306.78" x2="428.87" y2="300.87"/>
    </g>
    <path class="cls-12" d="M538.93,305.34c.26.17,1.08.76,1.29,1.79.3,1.51-.93,3.06-2.18,3.37-1.82.45-3.76-1.69-4.37-3.57-.77-2.39.44-4.95,2.08-6.35,2.41-2.06,6.03-1.9,8.34-.4,3.62,2.36,4.09,8.1,1.69,11.71-2.79,4.19-8.31,3.8-8.64,3.77-5.24-.46-7.8-5.02-8.14-5.66-1.66-3.08-1.97-7.25.1-10.62,2.89-4.7,8.62-4.91,10.12-4.96,1.76-.06,3.36.21,4.79.68,4.16,1.35,7.38,4.7,8.86,8.82,3.52,9.8,7.04,19.61,10.57,29.41-22.23-13.96-44.47-27.92-66.7-41.89,4.14,11.05,8.27,22.1,12.41,33.15.49,1.02,1.46,2.71,3.28,4.17,2.64,2.11,5.44,2.44,6.85,2.58,1.82.19,5.5.56,8.83-1.89,3.28-2.41,4.07-5.97,4.27-6.95.22-1.09.81-3.96-.69-6.95-1.65-3.28-5.13-5.3-8.64-5.46-1.02-.05-4.6-.05-7.34,2.68-2.24,2.23-3.92,6.28-2.18,9.83,1.02,2.08,3.34,4.26,6.45,4.27,3.65.01,5.71-2.96,5.86-3.18.36-.53,2.12-3.17.89-5.56-.97-1.89-3.54-3.11-5.06-2.28-.84.46-1.66,1.71-1.19,2.68.32.65,1.15,1.03,2.08.99"/>
  </g>
</svg>