<?xml version="1.0" encoding="UTF-8"?>
<svg id="Layer_1" data-name="Layer 1" xmlns="http://www.w3.org/2000/svg" viewBox="0 0 200 210.84">
  <defs>
    <style>
      .cls-1 {
        fill: #b52025;
      }
    </style>
  </defs>
  <path class="cls-1" d="M95.02,142.08c3.87-.02,7.52-3.58,5.18-7.32-1.78-3.28-5.89-4.3-9.31-3.55-3.59.68-5.79,3.74-6.65,7.11-1.86,6.93,1.64,14.3,9.41,13.96,10.72.23,18.98-10.18,17.62-20.26-2.5-13.16-23.18-17.07-32.18-8.95-5.03,4.36-6.72,11.31-6.36,17.83.49,13.88,13.41,24.5,26.91,23.96,14.13-.33,23.51-14.26,25.38-27.22,1.5-10.99-3.69-22.86-10.82-31.36-3.3-3.93-7.25-6.01-10.72-10.21-3.16-3.94-4.17-9.56-2.95-14.39,1.49-5.79,5.22-10.61,5.98-16.09,1.7-10.84-3.74-21.01-9.79-30.05,0,0,5.2-2.15,5.2-2.15,2.07,16.24-2.44,29.01-16.15,38.4-11.32,8.1-18.58,20.37-21.71,33.88,1.38-10.37,5.25-20.75,12.02-28.94,4.24-5.46,10.48-9.41,14.7-14.64,6.15-7.8,7.27-18.17,5.43-27.81,0,0-2.19-11.85-2.19-11.85,4.37,5.85,10.67,13.4,14.04,19.81,5.11,9.11,7.84,20.56,4.05,30.76-1.15,3.57-3.25,7.08-4.03,10.43-1.07,4.86,1.41,8.14,5.36,10.98,13.28,10.09,22.32,27.45,20.32,44.38-2.26,17.24-15.18,34.69-33.82,34.9-18.24.57-35.21-13.82-35.5-32.4-.7-14.08,7.36-27.74,22.12-29.58,15.17-2.35,34.63,9,30.53,26.24-1.53,6.98-6.1,13.25-12.48,16.52-5.43,2.57-12.04,3.34-17.57.5-6.15-3.32-7.76-11.36-5.61-17.54,2.03-6.72,8.78-10.23,15.33-7.49,7,2.99,6.85,12.38-1.72,12.12h0Z"/>
  <path class="cls-1" d="M52.2,111.18c2.8,8.61,4.52,17.51,5.23,26.57.29,6.52.79,13,2.58,19.23,2.78,9.42,10,17.77,19.69,20.35,4.78,1.45,10.46,1.8,15.73,2.33,10.01,1.31,20.14,1.64,27.85-5.86,2.1-2.01,4.65-4.4,6.24-6.72,2-2.79,3.49-6.11,4.57-9.42,1.55-4.59,3.01-9.2,3.78-13.94,1-6.29.71-12.51-1.01-18.74-.55-2.12-1.19-4.36-1.6-6.67-1.17-6.79-.44-13.89,1.6-20.36-.85,8.83.36,17.59,4.19,25.64,5.34,12.4,3.68,25.45-.12,38-1.93,7.1-6.32,13.48-11.64,18.44-2.73,2.67-5.98,5.08-9.53,6.56-6.85,3.04-14.73,3.22-21.99,2.34-6.94-.91-13.68-1.15-20.63-3.46-14.63-4.46-23.9-19.1-24.34-33.95-.41-4.49-.06-9.28.24-13.71.52-8.81,0-17.78-.83-26.6h0Z"/>
  <path class="cls-1" d="M70.45,125.87c-2.24-18.19-16.14-31.4-34.47-31.6,0,0,3.3-7.01,3.3-7.01,9.94,10.73,9.66,24.99,4.24,37.84-2.33,5.53-6.31,9.86-8.35,15.38-3.2,8.57-5.99,17.51.52,25.4,2.31,2.89,5.41,5.33,8.89,7.27-8.17-1.56-16-7.39-18.01-16.02-1.08-4.25-.62-8.8.14-12.96.75-4.17,1.81-8.33,3.68-12.16,2.59-5.2,5.54-9.62,6.67-15.28,3.72-15.3-1.06-20.36-10.29-31.49,0,0,9.43.57,9.43.57,5.26.32,10.12,1.64,14.73,3.81,13.62,6.11,22.24,21.59,19.52,36.25h0Z"/>
  <path class="cls-1" d="M126.23,113.22c-4.2-14.27,2.11-30.19,14.37-38.51,4.13-2.86,8.6-5.05,13.59-6.42l6.83-1.87c-2.38,7.67-4.67,15.98-5.74,23.91-.86,5.44-1.63,11.06-.93,16.47.49,4.63,2.39,7.28,4.8,11.43,1.23,2.18,2.38,4.47,3.38,6.77,3.6,9.27,8.19,19.14,6.42,29.37-1.77,10.13-9.94,18.07-18.87,22.21,3.63-3.16,6.89-6.63,9.32-10.51,7.02-11,3.88-20.39-1.34-31.29-.85-1.89-2.05-4.49-2.97-6.3-2.17-4.54-4.71-7.62-7.21-12.34-4.64-9.77-2.59-20.78-.64-30.88.97-4.87,2.34-9.65,4.02-14.31l4.74,5.19c-18.01,3.76-30.09,18.5-29.78,37.08h0Z"/>
  <path class="cls-1" d="M86.67,118.21c-2.78-5.23-4.7-10.79-5.78-16.55-.69-3.59-1.47-7.17-.43-10.99,1.08-4.89,5.79-7.46,8.95-10.78,3.05-3.05,5.78-6.5,8.16-10.2-1.72,4.05-3.84,7.98-6.43,11.65-4.01,5.71-8.24,7.89-5.38,15.65,1.95,5.82,4.72,11.59,8.52,16.4,0,0-7.59,4.83-7.59,4.83h0Z"/>
</svg>