<?xml version="1.0" encoding="UTF-8"?>
<svg id="Layer_1" data-name="Layer 1" xmlns="http://www.w3.org/2000/svg" viewBox="0 0 200 210.84">
  <defs>
    <style>
      .cls-1 {
        fill: #35479d;
      }
    </style>
  </defs>
  <path class="cls-1" d="M55.49,42.91c-27.85,15.64-35,41.09-32.06,71.31,2.31,22.93,16.02,50.38,38.78,62.01,22,10.73,51.18,9.16,73.02-1.29,14.56-7.37,26.22-20.36,32.83-35.15,6.33-14.76,8.31-31.8,5.45-47.53-4.17-23.62-22.27-43.92-44.8-51.95-23.42-8.21-51.01-10.23-73.23,2.6h0ZM55.04,42.13c24.48-13.89,55.53-15.72,82.33-7.06,33.8,13.49,51.31,46.88,45.5,82.44-1.35,8.84-3.71,17.6-7.7,25.63-7.89,16.03-21.71,28.94-38.13,35.81-24.62,9.62-58.82,10.6-82.6-1.78-22.33-12.19-36.95-36.35-38.63-61.6-1.57-32.02,10.88-57.65,39.22-73.43h0Z"/>
  <path class="cls-1" d="M23.1,117.52c23.92,11.01,52.21,9.16,75.87-1.75,6.05-2.77,11.81-5.99,17.01-10.1,2.62-2.03,5.13-4.31,7.96-6.36,14.25-9.93,32.92-10.63,49.49-7.94-16.3-1.72-34.48-.18-47.78,10.17-2.54,2.06-4.92,4.47-7.52,6.73-10.5,9.1-23.17,15.27-36.38,19.4-13.37,4.02-27.69,5.43-41.58,3.47-7-.98-13.9-2.76-20.53-5.31,0,0,3.45-8.31,3.45-8.31h0Z"/>
  <path class="cls-1" d="M29.73,141.65c25.29,9.42,54.57,8.78,79.42-1.99,5.25-2.39,10.36-5.19,14.87-8.8,2.6-2.03,5.03-4.37,7.72-6.58,7.98-6.7,18.45-9.87,28.56-11.25,6.78-.87,13.62-.86,20.37-.2-13.38-.56-27.27,1.42-39.1,7.82-6.09,3.13-10.29,8.24-15.37,12.8-4.53,4.06-9.77,7.33-15.15,10.15-25.85,12.91-56.56,15.13-84.19,6.58,0,0,2.89-8.52,2.89-8.52h0Z"/>
  <path class="cls-1" d="M49.59,171.25c16.42,2.39,33.57,2.49,49.12-3.58,15.33-6.16,29.63-14.64,41.51-26.21,8.77-8.28,21.43-12.53,33.46-12.07,0,0-.47,8.99-.47,8.99-5.1-.46-10.25-.12-15.12,1.25-4.89,1.34-9.4,3.74-13.52,7-3.63,3-7.89,6.32-11.99,8.93-10.23,6.5-21.24,11.58-32.75,15.3-16.27,5.16-33.88,3.93-50.23.4h0Z"/>
  <path class="cls-1" d="M19.64,82.59c4.23-14.47,19.1-21.96,33.53-20.64,13.28,1.12,26.2,4.94,29.77,19.47,3.34,13.32-3.76,27.25-16.22,32.8-11.09,5.27-31.4,6.13-35.67-8.33-2.58-11.15,5.67-21.72,15.77-25.29,3.67-1.37,8.23-2.2,12.15-.46,4.24,1.68,6.33,6.91,5.73,11.02-.56,5.38-5,9.53-10.02,10.79-8.14,1.78-6.35-5.7-3.22-10.13-.69,1.88-2.56,7.45-.15,8.25,2.71.21,5.66-2.11,7.3-4.13,2.19-2.66,2.28-7.22,0-9.6-3.84-3.4-10.82.73-14.18,3.46-3.88,3.24-6.74,8.97-5.41,13.88.94,2.98,3.87,4.14,6.94,4.81,7.44,1.29,15.81-.73,21.78-5.36,10.39-8.2,10.65-26.74-3.01-31.88-16.8-6.77-35.3-5.98-45.08,11.34h0Z"/>
  <path class="cls-1" d="M81.22,32.81c18.12-6.31,38.4,5.45,43.75,23.74,3.34,11.26.91,25.67-7.14,34.58-11.51,11.91-25.65,3.29-33.92-7.34-4.42-5.96-9.32-11.34-10.33-19.15-1.21-15.34,19.38-22.22,30.13-13.21,4.82,3.82,9.04,10.02,7.77,16.45-1.54,5.14-8.02,7.53-12.79,5.92-3.55-1.12-5.1-5.25-4.78-8.54.36,2.13,1.23,4.24,2.74,5.51,3.26,2.69,8.87.69,10.69-2.71.38-.87.28-1.81.12-2.74-.51-1.94-1.51-3.76-2.9-5.39-3.43-4.16-9.06-6.77-14.3-5.39-3.16.74-6.28,2.48-7.8,5.34-2.3,4.77,1.66,9.37,4.43,13.32,4.55,5.86,9.63,12.79,16.85,14.57,10.66,1.7,15.22-15.45,15.08-23.72-.12-12.01-8.18-23.22-18.95-28.31-5.8-2.69-12.18-3.55-18.65-2.94h0Z"/>
  <path class="cls-1" d="M132.05,40.87c6.67-.02,13.67,2.83,18.58,7.63,5.17,5.29,9.26,11.61,9.57,19.35.17,6.48-4.71,11.96-10.89,13.25-7.98,1.94-16.72-1.36-21.3-8.08-3.12-4.41-5.42-10.91-1.97-15.92,6.15-7.31,17.64-2.01,15.8,7.31-.54-2.13-1.68-3.94-3.12-5.1-2.24-2.05-6.63-1.51-7.74,1.05-.26,1.09.04,2.41.54,3.57,1.94,4.43,6.17,8.12,11.03,8.64,2.78.3,5.92.06,7.9-1.9,2.91-3.44.27-9.42-1.39-13.24-3.39-7.58-9.35-12.98-16.99-16.56h0Z"/>
</svg>